<?xml version="1.0" encoding="utf-8"?>
<!-- Generator: Adobe Illustrator 25.3.1, SVG Export Plug-In . SVG Version: 6.00 Build 0)  -->
<svg version="1.1" id="Layer_1" xmlns="http://www.w3.org/2000/svg" xmlns:xlink="http://www.w3.org/1999/xlink" x="0px" y="0px"
	 viewBox="0 0 595.3 841.9" style="enable-background:new 0 0 595.3 841.9;" xml:space="preserve">
<style type="text/css">
	.st0{fill:none;stroke:#000000;stroke-miterlimit:10;}
</style>
<path class="st0" d="M495.1,436.6c0.1-25.3-0.1-198.6,0-228c15.2-37.1-77.7-12.3-94-19c-46.4-0.4-13.6-1.7,0,19
	c25,60.7-8,68.4,11,81c12.7,9.8,11.5,6.9,4,10c-16.5-26.6-4.1,2.9-38,7c-25.3,0.4,7,4.2,11,0c10.9,2.2,18.4-15.2,23-5
	c56.4,10,71.2,34.9,78.1,88c-12.4,24.2-29.8-30.8-35.1-41c2.3,16.1,4.3,46.6,20,53c17.6,0.9,10-0.3-1.8-3.4
	c10,2.2,18.2-1.8,16.8,7.4c0,0-1,43-1,43c-10.5,46.8-66.3-10.7-84-25c-18-27.1-73.9-5.4-77-32c-7.7-16.5,7.9-6.5,7,5
	c-0.7,11.4,50.9-24.6,25-14c-0.3,7.8-27,12.9-9,5c1.4-10.9,9.5-19.5,19-11c26.3,14.2-18.9-25.1-22,7c-18.7-9.3,5.2-45.1,19-17
	c13.3,4.7,29.3,42.5,29,34c9.5-11.8,33,14.4,47,17c2,6.1,29.7,10.2,12,2c-19.7-24.8-12-59.1,4-83c3.4-28.2-32.8,56.7-18,67
	c-18.6-2.7,14.6-94-4-43c-5.8,3-1.2,33.1-6,20c-5.1-10-0.3-23.8,5-29c19.4-27.4-15.9,7-12,21c-6.8,5.6,16.1,22.5,1,11
	c-13.4-7.8-1.6-8.6-3-21c-43.4-9.9-67.4,26.8-42-29c3.5,9.2,6.1-23.6,9-9c-4.7,21.9,3,4.2,5-5c3.6-6.9,14.2-21.1,2-11
	c-18.3,11-28.1,24-30,46c-4.4,1.5,2.8-17.7-2-26c1.3-6.7-3.2-27.8-7-22c0.8,11.3-9,14.5-4,24c4.6,6.7,10.1,19.4,6,20
	c-8,0.3-19.2,10.8-24-2c-11.3-3-8.2-13.6-2-19c15.9-2.6-9.9-3.1-16-6c-26.4-12.7-13.8,46.8-20,36c-1.1-6.2-0.8-36.8-4-19
	c-1.3,26.4-24.7,27-47,29c-1,17.1-22.7,31.7-36,35c-8.7,4-19.3,6-24,14c-10.3,15.6,4.6-1.3,10-4c17.8-5.5,34.6-14.7,47-28
	c17.7-9.4,30.1-23.7,53-21c14,0.8,20.3-13.7,13,5c1.7,9.7,4.9-16.6,13-14c4.2-10.6,21.9-1.1,17,9c3.5,20.9-4.1-4.7-9-7
	c-4.1-2.8,5.3,29.9-4,10c-5-9.8-4.1,18.2-12,11c-4.3,13.4,8.8,15.5,15,21c9,17.3,0.8-3.1-10-2c-9.2-3.4-13.4-12-25-13
	c-3.6-3-10.7-29.5-8-11c14.1,19.3-20.5,39,12,46c-18.1,4.9-23.8-20.5-18-37c0.9-32-13.9,43.5-7,39c-0.8,8.3-7.9,16.4-12,24
	c-9.7,13-48.9,48.3-62,31c-10.8-12.7-25-30-25-48c15.2-20.9,6.5-38.4,16-56c8.6-14.9,8.4-41.2,26-49c7-1.5,23-13.3,24,2
	c7.4,13.8-16.1-5.8-18,2c25.8,5.3,25.1,23.3,36.2,37.8c-1.6-3.2-5-17.3-7.2-21.8c-6.7-13.6,6.6-8.4,6-24c1.6-23.2-5,0.3-5,9
	c-5.1,5.8-10.6-15.7-10-15c8.9-6,12-13.5,21-3c14,9.1,3.3-3-3-7c4.9-15.1-5.7-34,7-16c6.1,7.9,19,13.7,29.6,8.8
	c-5.8,8.4-2,27-11.6,30.2c-10-12.5-16-11.5-3,3c9.3,7.9,10.8-11.5,16-16c2.3-19.4,14.7,6,3,8c13-1,5.9-22.7-2.1-17.6
	c7.5-5.5,14.7-10.2,9.1-21.4c2.3-6.8,5.7,17.4-2,20c6.8,1.8,4,21.2,18,17c15.1,15.2,43.9-15.7,24-26c-5.2-6.5-15.8-11.1-13-23
	c1.8,9.2,9.9,18.4,17,18c11.9,0,26.4-7.7,8-4c-14.8,5.7-30.7-12-16.2-17.8c-10.9,27.4,43.5,13.1,49.1-2c-3.1,6.1-7.6,14.9-14.9,17.9
	c-8.9,6.6,8,7.8-10,14c-0.7,2.3-1.2-16.4-7-2c-18.1-6.4,0.4,8.5,8,8c48,0.5,39.5-61.7,29-94c-24.2-38.3-88.6-2.8-68,35
	c0.9,14.2,6.4,25,3,3c0.4-6.4,11.9-27,9-13c0,10.8,5.4-4.9,11-10c7.9-14.6,51-1.5,40,11.9c-11.7-11.6-16.5,7.8-26.9,11.3
	c-3.9-3.2-27.2-10.5-29.1,1.8c1.2-3.3,20.3-5.9,22.9-0.2c-43.5,9,12.5,4.7,21.1-8.8c38.8-4.1-30.4,10.5,2,7c14.3,2.7,11.7-2.3,16-7
	c10.9,12.6-5.1,12.3-18,12c-73.1,2-33,31.7-62,51c-12.9,13.3-2.6-4.9,6-6c7-23.8,4-37.2,0-61c-9.1,24.8-6.5-38.4,33-46
	c5.9-3-69.3,0-79.7-1c0,0,3.7,5.7,3.7,5.7c16.8,2.4,25.5,14.4,35,26.3c5.6,27.2-1.9-9.1-7-4c5.8,10.8,1.8,6.8-3,1l-2,6.3
	c2.7,4.2,3.2,10.3-0.6,15.4c3.7-4,14.3-0.5,8.3,1.6c-3.5-2.1-11.7,4.6-12.7,6.7c9-1.3,17-8.5,15,0c-12.7,5.7-31.8,3.1-45,8
	c-26.5,8.9,3.4-6.3,11-9c9.8-9.6-18.5,5.7-13,1c13.7-3.8,17.1-34.2,32-28c2.6-3.7,2.8-9.7-1-12c7.4-4.1-32.7-22.5-47-1
	c-11,3.3-28.9,56.6-21,49c1.1-13.4,15.7-24.8,5-5c-6.7,21.3-17.4,41.6-23,64c-1.7,7.3-17.3,24.5-7,3c18.4-38.5,15.1-96.1,54-120
	c40.8-19.6-78.5-4.5-78-9c-43.7-31.8-8.1,386.9-19,396c18.3,5.6,14.4-11,18-20c2-9.2,9.4-27.2,5-5c1.9,2.6,3.1,4.4,3.9,5.6
	c-1.2-10.5-3.9-25.1,0.1-36.6c2.8-9.9,10.4-15,12-26c4.3-6.7,3.3-26.2,16-16c10.8-0.1,15.7-15.9,24-2c8.2,16.4,10.4,1.9,2-5
	c-5-7.1,4.9-10.9,10.6-18.4c-8.1,12.6,2.5,35.1,2.4,51.4c8.4-16.1-5.3-44.8,1.5-55.3c4.3-5.5,6.9-12.6,15.5-13.7
	c22.4,8.4-12-8.7,0-4c10,6.5,52.6,16.2,55-4c2.8-20.9-0.8,19.2,2,16c3.8,0.3,2.6,10.2,1,16.3c1.7-9.5-4.7-24.2-7-11.3
	c0.8,29.9,1.9-6.3,3-1c1.9,11-0.7,23.6-1,35c-3.9,54.4-9.6,125.9-76,71c-19-8.1-2.8,2.4,4,5c4.6,7.2-39.9-13.5-47-15
	c-12.3-6.1-19.8-4.8-11,3c10.2-1.3-0.9,18.9-2,23c-16.5,5.7,14,14,8-4c0.2-18.9,6.8-17.9,3,1c-2.9,16.5,5,8.9,4,2
	c8.9-2.1,22.2-7.4,11,4c-15.5,1-5.8,5.9,10,4c8.2-2.1,53.6,1.6,68,0c24.7,8.3,17.2-35,26-49c2.3-24.2,14-37,8-62
	c12.1-16,12.9-35.7,17-56c0.3-15,16.5-6.5,25-5c28-4.4-1.5,38.4,9,50c-2-11.4,9.5-21.3,9-23c-6.6,6-0.7-4.8-4-18
	c10.3-10.8-2.6,31.1,5,9c1.9-24.6,4.9,8.6,3,12c-6.4,6.3-5.9,19.4-10,28c-4.2,8.5-12.8,12.5-14,24c-3.9,8.8-3.7,21.6-10,28
	c1.4,10-17.1,21-7,12c7.1-20-17.4,1.9-4,6c13-4.2,4.3,15.9,6,26c1.6,44.1,3.3-26.5,3-34c11.7-14.3,14.4-36.3,24-52
	c9.4-3.3,8.1-17.2,11-27c4.4-20.3,0.3,15.1,2,17c4.1,11.2-14.5,24.5-2,18c5.9-17.2,0.1,12,0,18c-7.3,13.6-4.5,16.4,2,2
	c3-25.5,1.4-43.5,2-69c-2.1-24.9,0.4-4,6,0c-10.8-26.9,18,9.8,26,13c7,5.7,19.9,5.5,21,17c0.1,13.3,19.8,109.5,5,58
	c-7-18.9-2.2,8.1,0,14c-1.7,5.8-5.4,1.2-9,17c4-4.2,2.4-66.1,6-47c3.4,6.4-4.1-32.8-3-9c-4.3,19.2-5.6,42.8-17,59
	c-0.7,7.1-12.7,21.5-6,23c32.1,4.1,41.2-4.4,40-36c0.7-20.7,9.9-48.7,2-67c-8.2-17.9-3.1-7.5,5-9c2.9,32.6-2.9,69.9-8,103
	c-4.9,15.6,21.3,7.2,27,7C495.1,559.8,495.1,457.4,495.1,436.6z"/>
</svg>
