<?xml version="1.0" encoding="utf-8"?>
<!-- Generator: Adobe Illustrator 25.3.1, SVG Export Plug-In . SVG Version: 6.00 Build 0)  -->
<svg version="1.1" id="Layer_1" xmlns="http://www.w3.org/2000/svg" xmlns:xlink="http://www.w3.org/1999/xlink" x="0px" y="0px"
	 viewBox="0 0 595.3 841.9" style="enable-background:new 0 0 595.3 841.9;" xml:space="preserve">
<style type="text/css">
	.st0{fill:none;stroke:#000000;stroke-miterlimit:10;}
</style>
<path class="st0" d="M606.5,583.6c0,0-60.3-35.4-62.3-35.4l-49.1-3.6v-74c1.2-11.4-1.2-28.5,0-34l-0.2-31.4
	c-0.1-3.4-0.1-6.6,0.2-9.6v-187c4.1-16.8-2.2-23.1-19-19h-75c-7.1,0.5-38.9-1.4-21,2c10.2,2.4,13.9,11.4,21,17
	c4.8,7.4,2.8,23.3,8,29c8,6.4,0.6,20.2,0,30c-4.1,14.2-6.9,14.7,3,22c12.7,9.8,11.5,6.9,4,10c-5.9-5.6-10.7-22.2-12-5
	c-7.9,4.7-15.1,10.3-26,12c-25.3,0.4,7,4.2,11,0c10.9,2.2,18.4-15.2,23-5c9.9-2,18.3,7,27,8c7.8,4.9,17.9,7.4,25,13
	c6.6,5.6,14.4,11.7,16,21c2.5,10.2,4.6,20.8,6,32c0.8,2.5,1.7,5,2.5,7.4c2.1,1.4,2.7,4.4,1.6,6.6c0.4,4-1.3,6.3-8.1,5
	c-10.6,1.4-9.5-14.2-15-21c-6-6.2-8.4-17.7-12-25c-1.2,10.3,3.8,20.5,6,30c3.2,8.9,3.8,22.3,14,23c17.6,0.9,10-0.3-1.8-3.4
	c10,2.2,18.2-1.8,16.8,7.4l-1,43c0.1,12.6-10.2,17.1-15,19c-11.1-1.1-17.6-8.6-26-11c-9.6-3.1-16.3-9-23-15c-5.4-7.3-14-11.4-20-18
	c-5.7-7-13.2-12.2-25-13c-10.9-1.2-18.5-7.6-31-6c-12.6,6.6-18.2-4.1-21-13c-7.7-16.5,7.9-6.5,7,5c1.2,8.1,14-6.1,23-5
	c4.3-8.3,18.6-15.1,2-9c-0.3,7.8-27,12.9-9,5c1.4-10.9,9.5-19.5,19-11c15.9,9.5,9,0.1-2-4c-9.1-7.7-19.6,2.4-20,11
	c-4.8,2.8-10.5-19.4-3-23c8.7-10.1,17.7-1.6,22,6c6.3,6,16.1,10.6,17,19c6.5,1.1,10.8,24.7,12,15c2.1-9.1,20.1,0.6,22,6
	c7.8,2.3,16.7,6.3,25,11c2,6.1,29.7,10.2,12,2c-5.5-6.7-7.6-18.5-13-24c0.9-11.8,2.5-22.9,5-33c3.1-9.6,6.2-19.1,12-26
	c5.5-19-6.1,2.8-9,7c-5.2,7-6.5,19.6-10,27c-0.2,10.8-4.9,24.6,1,33c-4.1,3.8-7.7-16.9-5-25c0.4-12.3,4.2-21.1,7-31
	c5.8-15.2-6.5,8.5-6,13c-5.8,3-1.2,33.1-6,20c-5.1-10-0.3-23.8,5-29c7.8-9.2,9.1-19,0-4c-6.6,5.5-12.3,13.8-12,25
	c-6.8,5.6,16.1,22.5,1,11c-13.4-7.8-1.6-8.6-3-21c-12-1-23.4-2.5-34,0c-12.4-2-16.2,11.7-20-5c3.5-7.9,13.6-14,12-24
	c3.5,9.2,6.1-23.6,9-9c-4.7,21.9,3,4.2,5-5c3.6-6.9,14.2-21.1,2-11c-8.9,3.7-12.3,13.1-21,17c-8.1,4.5-4.7,20.7-9,29
	c-4.4,1.5,2.8-17.7-2-26c1.3-6.7-3.2-27.8-7-22c0.8,11.3-9,14.5-4,24c4.6,6.7,10.1,19.4,6,20c-8,0.3-19.2,10.8-24-2
	c-11.3-3-8.2-13.6-2-19c15.9-2.6-9.9-3.1-16-6c-9.1-6.6-15.8,5.2-19,13c1.9,7.1,2.1,33.5-1,23c-1.1-6.2-0.8-36.8-4-19
	c-2.5,10.1-3.3,22-15,23c-9.5,3.2-19.5,5.8-32,6c2,12.7-11.5,17.5-13,21c-7.3,4.9-12.2,13.9-23,14c-8.7,4-19.3,6-24,14
	c-10.3,15.6,4.6-1.3,10-4c8.8-3.8,18.6-6.7,27-11c7.5-4.7,13.7-12.4,20-17c8.5-4.1,14.8-10.5,24-14c6.8-6.8,17.4-7.4,29-7
	c14,0.8,20.3-13.7,13,5c1.7,9.7,4.9-16.6,13-14c4.2-10.6,21.9-1.1,17,9c3.5,20.9-4.1-4.7-9-7c-4.1-2.8,5.3,29.9-4,10
	c-5-9.8-4.1,18.2-12,11c-4.3,13.4,8.8,15.5,15,21c9,17.3,0.8-3.1-10-2c-9.2-3.4-13.4-12-25-13c-3.6-3-10.7-29.5-8-11
	c3.4,9.4,8.4,20.6-2,26c-4.7,9.7,3.9,19.4,14,20c2.7,1.4-18,0.5-16-8c-8.9-6.3-2.3-19.8-2-29c-0.3-23.3-5,6.9-6,12
	c2.5,9.8-9.1,25.9-1,27c-0.8,8.3-7.9,16.4-12,24c-7,5.2-10.4,15.7-18,19c-8.6,4-14.3,11-24,14c-12.7-0.9-8.9,11.1-20-2
	c-4.3-8.4-13.9-11.4-16-22c-3.6-7.3-10.5-17.8-9-26c2.8-9.9,8.9-16.4,12-26c-0.2-7.3-3.5-24.8,4-30c4.6-8.1,6.9-18.4,10-28
	c1.4-10.8,9.6-16.5,16-21c7-1.5,23-13.3,24,2c7.4,13.8-16.1-5.8-18,2c11,1.7,16.1,9.2,24,14c6.9,4.9,4.1,21.2,12.2,23.8
	c-1.6-3.2-5-17.3-7.2-21.8c-6.7-13.6,6.6-8.4,6-24c1.6-23.2-5,0.3-5,9c-5.1,5.8-10.6-15.7-10-15c8.9-6,12-13.5,21-3
	c2.6,1.3,4.8,2.8,6.9,4.6l0.6-2.7c-3.6-3.1-7.3-6.3-10.5-8.9c4.9-15.1-5.7-34,7-16c6.1,7.9,19,13.7,29.6,8.8
	c-5.8,8.4-2,27-11.6,30.2c-2.3-2.7-5.9-6.3-10.1-10.1l-1.7,2.1c3.2,3.5,5.9,7.3,8.8,11.1c9.3,7.9,10.8-11.4,16-16
	c2.3-19.4,14.7,6,3,8c13-1,5.9-22.7-2.1-17.6c7.5-5.5,14.7-10.2,9.1-21.4c2.3-6.8,5.7,17.4-2,20c6.8,1.8,4,21.2,18,17
	c8,6.3,18.9,4.8,25-3c5.4-8.4,10.2-18.2-1-23c-5.2-6.5-15.8-11.1-13-23c1.8,9.2,9.9,18.4,17,18c11.9,0,26.4-7.7,8-4
	c-14.9,2.2-23.3-2-21-17c1.8-0.2,3.4-0.5,4.8-0.8c-1.9,1.5-3.4,5.6-0.8,11.8c8,6.5,21.8,3,29,0c9.2-2.4,16.7-6.5,20.9-13.9
	c-3.1,6.1-7.6,14.9-14.9,17.9c-8.9,6.6,8,7.8-10,14c-0.7,2.3-1.2-16.4-7-2c-18.1-6.4,0.4,8.5,8,8c15.9,3.2,18.8-6.6,27-11
	c2.3-7.9,8.8-7.3,9-23c3.6-7.3,1.7-22.2-1-30c-1.7-7.6-1.8-22-6-30c-6.8-6.8-12.7-12.1-20-16c-12-3.5-23.8,0.7-31,5
	c-6.6,5.6-15.7,10.5-18,19c-6.4,10.3-3.1,18.2,1,27c0.9,14.2,6.4,25,3,3c0.4-6.4,11.9-27,9-13c0,10.8,5.4-4.9,11-10
	c5.6-6.4,18.9-9.5,28-4c7.9,2.1,12.7,7.2,15.8,14l-3.8,1.8c-4.5-4-11.9-5.7-17,2.2c-1.1,4.8-5,7.5-9.9,9.2l-3.5-1.5
	c0.9-0.3,1.4-0.9,1.3-1.7c-10.5,0.9-24.6-7-27,5c2.3-4.6,14.6-2.7,21.8-2.8l1.1,2.6c-8.2,1.7-16.9,2.4-19.9,6.2
	c16.3-2.4,31.5-5.8,41-15c38.8-4.1-30.4,10.5,2,7c10.6,2.1,14.2-0.9,13.8-4.7l2.2-2.3c10.9,12.6-5.1,12.3-18,12
	c-13.3-1.1-24.1,2.1-31,6c-10.3,2.4-19.6,5.7-18,20c-3,9.6-1.5,23.8-13,25c-12.9,13.3-2.6-4.9,6-6c1.4-12.3,5.3-19.2,5-30
	c-0.5-12.7-4.8-16.7-5-31c-3.5,14.1-5.5,8.1-3-7c0.7-12,6.6-18.8,13-25c6.1-6.1,15.3-10.8,23-14c12.8-1.7-18.9-0.8-25-1h-54.7
	l3.7,5.7c5.1,1,9.8,2.7,13,4.3c9.6,5.1,15.2,14.2,22,22c5.6,27.2-1.9-9.1-7-4c5.8,10.8,1.8,6.8-3,1l-2,6.3
	c2.7,4.2,3.2,10.3-0.6,15.4c4.2-2.4,9-3.4,10.5,1.2l-2.2,0.4c-3.5-2.1-11.7,4.6-12.7,6.7c6.3-2.5,10.3-2.2,12.4-3.2
	c0.8-0.4,1.3-0.9,1.6-1.8l1.3,0.7c0,1.2-0.1,2.6-0.3,4.3c-7.2,4.3-21.7,3.1-30,5c-4.9,1.1-10.7,1.3-15,3c-26.5,8.9,3.4-6.3,11-9
	c9.8-9.6-18.5,5.7-13,1c8.2-3.3,12.8-12,16-19c5.1-9.2,11.3-11,16-9l2.9-7.1c-1.7-2.2-3.2-4-3.9-4.9c8.5,2.3-4.6-6.6-15-11
	c-14.1-3.6-25.3,3.2-32,10c-8.8,5.8-12.4,16.9-17,27c-3,3.5-9.8,36-4,22c1.1-13.4,15.7-24.8,5-5c-4.7,10-7.9,21.4-11,33
	c-4.8,9.5-11,19-12,31c-1.7,7.3-17.3,24.5-7,3c4.9-10.2,3.5-22,11-31c2.8-11.8,6.8-22.5,10-34c0.9-13.8,7.5-21.8,11-33
	c5.1-9.5,11.4-17.9,22-22c1-0.9,2.1-1.6,3.2-2.2l6.5-6.8h-87.8c-16.8-4.1-23.1,2.2-19,19v377c18.3,5.6,14.4-11,18-20
	c2-9.2,9.4-27.2,5-5c1.9,2.6,3.1,4.4,3.9,5.6c-0.9-2.1-2.1-5.6-1.9-9.6c5.1-8.7-4.8-17,2-27c2.8-9.9,10.4-15,12-26
	c4.3-6.7,3.3-26.2,16-16c10.8-0.1,15.7-15.9,24-2c8.2,16.4,10.4,1.9,2-5c-5-7.2,4.4-10,10-18c0.2-0.1,0.4-0.3,0.6-0.4
	c-8.1,12.6,2.5,35.1,2.4,51.4c8.4-16.1-5.3-44.8,1.5-55.3c4.3-5.5,6.9-12.6,15.5-13.7c22.4,8.4-12-8.7,0-4c6,6.2,19.3,6.9,31,6
	c10.7,4.1,23.4,1.4,24-10c2.8-20.9-0.8,19.2,2,16c3.8,0.3,2.6,10.2,1,16.3c1.7-9.5-4.7-24.2-7-11.3c0.8,29.9,1.9-6.3,3-1
	c1.9,11-0.7,23.6-1,35c3.5,12.7-2.4,21.4-4,32c-1.3,10.8-3.2,22.9-6,31c-3.3,9.4-2.7,22.6-13,25c-12.1-0.2-22.1,7.3-30-2
	c-8.2-4.5-15.2-10.2-23-15c-19-8.1-2.8,2.4,4,5c8,6.6-15.3-2.7-19-5c-7.9-4.7-20.3-5-28-10c-12.3-6.1-19.8-4.8-11,3
	c10.2-1.3-0.9,18.9-2,23c-16.5,5.7,14,14,8-4c0.2-18.9,6.8-17.9,3,1c-2.9,16.5,5,8.9,4,2c8.9-2.1,22.2-7.4,11,4
	c-15.5,1-5.8,5.9,10,4c2.4-5.6,17,4.1,30,0h38c18.4,6.3,16.1-10,18-19c2.4-10.3,5.6-19.7,8-30c3-9.7,1.6-23.7,7-31
	c8-6.4,0.1-20,1-31c6.8-6.9,9.1-15.4,10-25c2.5-10.2,6.7-18.7,7-31c0.3-15,16.5-6.5,25-5c13.7-5.1,12.8,11.5,12,24
	c-7.7,4.5-6.5,21.4-3,26c-2-11.4,9.5-21.3,9-23c-6.6,6-0.7-4.8-4-18c10.3-10.8-2.6,31.1,5,9c1.9-24.6,4.9,8.6,3,12
	c-6.4,6.3-5.9,19.4-10,28c-4.2,8.5-12.8,12.5-14,24c-3.9,8.8-3.7,21.6-10,28c1.4,10-17.1,21-7,12c7.1-20-17.4,1.9-4,6
	c13-4.2,4.3,15.9,6,26c-1.2,20.3,3.9,20.9,2,0c1.9-11.8,0.1-24.4,1-34c2-10.6,13.3-12,13-25c2.8-9.9,5.4-19.9,11-27
	c9.4-3.3,8.1-17.2,11-27c4.4-20.3,0.3,15.1,2,17c4.1,11.2-14.5,24.5-2,18c5.9-17.2,0.1,12,0,18c-7.3,13.6-4.5,16.4,2,2
	c-0.2-11.2,4.2-24.1,2-33c-2.7-11.3,1.5-22.8,0-36c-2.1-24.9,0.4-4,6,0c-9.2-16.8,4.1-9.2,9-1c7.8,5.6,7.7,8.2,17,14
	c7,5.7,19.9,5.5,21,17c-0.1,12.8,4.7,20.6,5,33c-2.9,15.6,4.8,20.5,6,32c2.1,23.2-5.3-0.8-6-7c-7-18.9-2.2,8.1,0,14
	c-1.7,5.8-5.4,1.2-9,17c1.3-8.8,5-18.7,3-31c0.2-7,1.2-33.9,3-16c3.4,6.4-4.1-32.8-3-9c-2.8,9.9-3.3,22.1-6,32
	c-2.6,10-5.9,19.5-11,27c-0.7,7.1-12.7,21.5-6,23c11.7-1,26.9,1.6,36-2c0.6-12,3.9-21.5,4-34c1.1-11.5,2.2-23.2,4-34
	c2.1-10.1,1.5-26.8-2-33c-8.2-17.9-3.1-7.5,5-9c0.7,12,1.5,23.8,1,37c-2.7,10-4.8,20.6-4,34c-0.6,11.5-3.7,22.4-5,32
	c-4.9,15.6,21.3,7.2,27,7l0.2-6.8l2.5-18.7v18.7l1.1-9.3h6.6l1.1-9.3v18.7h3.2l2.3-9.5l2.2-9.2l3.2,8.5l-3.4,0.8l3.4,1.1l2.1,8.3
	h2.7v-19.6h6.6v7.8l-5.3,0.4l0.6,11.5h8.3v-18.7l6.6,0.2v5.9l-5.3,0.8l0.4,11.9h11.4v-9.8l-4-8.5l4,6.1l3.8-5.9l-2.7,6.1l0.2,12.1
	l2.5,10.2l6.4-3.3V597h-7.4l13.6,1.3l4.9-1.3v-8.3l-4.9-5.3l4.9,2.8l4-4.9l-2.7,5.8l0.2,9.7l5.9,0.2V584l8,0.2l-6.4,0.9l-0.2,4.9
	l6.6,0.2l-6.4,1.5l0.4,4.7l7.8,0.6l4.5-12.5l1.3,6.4l-2.5,1.1l2.5-0.2v5.1l1.7,0.2v-12.3l5.5,0.8v4l-3.8,0.6l3.8,6.1l3.6,0.4
	l4.4-0.8v-4l-3.2-1.1l-1.7-4.7l4.9-1.3L606.5,583.6z"/>
</svg>
