<svg viewBox="0 0 1080 1080" xmlns="http://www.w3.org/2000/svg">
  <polyline points="405,613 479,651 616,877 442,661 454,745 1075,1054 1057,625 220,120 72,68 26,458 41,340 114,131 14,736 103,364 25,117 101,456 239,70 564,326 422,134 231,236 468,116 161,302 267,113 259,270 310,178 460,199 281,92 351,96 269,259 97,215 64,193 17,325 9,131 84,124 219,30 206,17 146,336 75,192 100,199 10,729 41,975 20,289 129,118 0,34 29,597 247,2 38,17 77,30 547,203 255,167 519,277 183,113 501,150 476,160 560,319 504,189 171,58 95,138 544,98 153,277 56,505 39,557 277,32 369,25 10,28 28,932 54,1031 5,354 252,258 19,313 88,192 65,224 114,368 199,126 64,298 26,526 61,14 160,3 149,45 48,76 67,490 12,426 1,351 140,105 90,100 1,526 6,35 31,457 14,104 74,434 89,214 128,144 19,746 22,220 73,456 67,93 59,232 71,399 316,11 240,145 499,183 333,183 150,289 86,122 26,260 1070,156 695,267 731,198 726,189 541,258 439,213 511,24 1049,372 952,197 1043,223 791,126 716,191 1070,94 1079,41 967,265 961,126 905,4 841,173 1043,211 1068,171 808,83 103,343 864,168 932,25 972,48 863,27 1060,309 922,131 829,201 1017,41 818,166 1077,322 874,56 851,105 737,216 777,161 709,233 781,179 556,308 633,238 543,241 498,131 789,252 1060,327 754,94 775,205 1070,119 863,106 927,145 965,317 1003,260 959,306 1034,189 811,16 1012,298 815,128 985,266 935,122 1063,44 884,20 771,267 995,88 1069,8 814,33 964,120 1010,120 886,15 1038,113 1057,115 85,309 410,130 511,84 551,173 489,9 474,90 713,262 871,82 1045,70 1026,72 1042,388 696,105 929,221 931,283 916,228 945,62 987,307 1001,386 984,176 887,113 1037,161 1058,464 1050,427 868,16 776,342 679,66 421,423 824,57 863,56 638,185 1047,14 892,66 1028,257 981,165 921,44 917,107 974,267 995,26 889,337 776,92 865,154 684,126 208,222 481,107 495,259 462,118 601,258 902,95 414,232 554,207 624,295 552,307 487,203 709,363 979,16 858,18 918,27 871,68 849,164 1,97 656,169 704,240 98,166 383,125 522,334 854,531 882,590 208,72 978,668 587,390 834,569 740,541 878,594 478,286 258,152 788,524 261,198 209,197 407,3 68,62 448,183 353,213 284,188 169,301 210,313 271,60 551,171 315,112 441,220 561,61 433,179 226,273 260,94 345,31 596,409 457,225 41,29 182,72 159,237 1070,480 1075,899 1076,940 860,806 826,739 818,774 783,981 816,841 900,876 1005,832 911,1027 991,1056 1003,852 373,657 492,664 438,588 497,745 521,485 493,747 574,681 522,875 504,801 535,733 501,670 652,672 346,764 457,715 473,715 597,780 442,589 580,606 561,863 461,1025 598,849 486,587 586,800 1069,883 984,938 967,942 1055,341 1069,21 1045,1019 974,858 861,970 839,1039 797,752 378,579 734,756 960,1046 1056,836 1032,898 844,988 474,852 566,641 481,600 521,594 581,833 493,573 395,587 847,930 1040,877 983,835 949,1032 853,810 351,614 929,872 1076,924 1078,759 895,256 646,234 797,32 518,425 565,362 227,18 289,158 332,16 302,230 339,102 432,277 330,61 278,151 657,308 241,113 924,652 301,172 480,225 444,452 306,55 470,250 541,226 480,83 546,199 394,284 694,125 701,143 255,174 158,339 370,137 164,222 709,116 662,165 750,252 740,128 821,95 398,205 434,218 149,307 611,126 362,222 210,240 312,83 304,12 295,268 121,164 982,639 338,198 926,280 1034,355 396,106 284,40 415,23 568,1033 508,344 553,858 485,951 524,997 558,405 480,367 881,589 640,381 440,124 760,195 863,257 662,154 181,185 334,163 1024,686 954,232 25,170 952,285 1028,796 785,860 419,678 583,633 479,597 331,738 700,619 753,848 981,312 1047,1076 906,939 1012,878 782,760 923,918 703,672 412,650 519,646 602,596 253,866 605,579 476,988 454,1023 708,57 449,685 494,562 521,631 635,588 519,722 475,1014 487,574 453,719 463,628 569,619 478,699 536,613 600,613 454,589 496,564 404,677 432,687 585,600 590,814 520,711 439,546 635,735 357,596 585,664 511,642 588,664 502,495 705,906 252,15 369,0 346,150 322,41 296,5 255,288 299,45 345,116 118,337 598,124 773,127 664,238 743,263 587,231 205,82 442,294 382,118 508,211 233,81 681,427 355,840 612,758 501,776 528,1045 615,759 455,812 58,858 488,796 235,810 600,720 435,523 503,663 498,515 1037,1049 975,846 885,915 1052,786 996,816 692,626 802,877 873,857 725,982 1042,945 907,904 686,745 443,733 1073,1051 1039,952 900,717 909,439 1003,632 1056,386 958,1042 938,996 752,948 968,1010 994,1065 750,769 815,826 862,809 791,1060 800,1072 708,124 976,492 965,556 760,486 748,980 1079,983 922,896 1035,1042 795,685 463,598 596,712 273,830 547,631 598,697 485,700 634,645 468,805 545,1052 464,958 1022,802 944,892 1053,760 978,929 959,1074 1042,772 762,451 830,570 914,644 547,366 455,421 312,486 257,492 483,327 1003,639 434,282 957,663 640,456 851,112 642,102 901,337 630,202 871,7 302,305 354,2 194,18 327,7 1029,5 678,27 511,854 511,664 426,565 564,1035 522,797 530,815 435,627 1059,901 463,582 684,621 1003,965 983,986 891,991 728,655 920,796 1008,858 1024,948 1025,1013 1024,973 914,836 735,812 1009,825 772,717 575,618 244,944 776,131 729,502 817,478 761,530 783,455 779,72 725,533 1040,619 982,520 947,438 1025,678 776,565 588,354 517,372 999,682 1012,366 1076,693 1063,593 1022,341 194,59 345,69 822,324 475,90 169,3 385,92 239,4 306,121 223,38 323,145 241,226 601,23 402,161 481,223 169,281 245,139 340,0 136,166 866,154 64,119 14,37 25,6 701,222 301,64 364,154 487,186 402,155 308,154 359,2 224,56 255,423 239,548 298,459 632,309 752,40 898,653 818,372 754,207 783,176 617,95 788,253 726,184 692,140 827,250 239,67 901,220 304,97 272,224 237,91 303,94 655,403 614,266 637,216 842,71 626,161 135,76 680,224 775,156 596,213 652,397 625,112 642,350 649,99 833,176 490,702 279,822 427,641 344,786 1023,821 955,937 995,982 872,990 976,1049 864,991 827,1046 738,755 1060,851 643,636 1017,895 918,767 956,840 1004,996 1003,1037 805,1033 836,721 847,995 475,995 531,574 573,1013 546,861 580,757 502,748 584,680 540,737 526,815 376,668 616,597 537,849 515,791 438,1016 627,1051 471,932 604,862 466,1045 455,998 473,899 433,668 447,838 412,729 560,679 1019,1034 466,1052 886,757 1004,909 481,606 400,639 278,858 452,564 465,654 505,621 625,869 1011,797 676,778 936,781 973,978 1022,948 809,1027 957,289 987,514 854,565 1028,590 851,405 934,676 798,375 431,406 642,340 268,90 276,294 66,273 678,163 970,348 922,448 954,313 1013,627 887,998 1005,1025 1011,903 713,806 876,1058 913,850 970,781 967,853 971,778 596,932 1077,978 996,360 1016,573 1007,490 903,608 832,465 675,148 166,277 867,36 870,51 459,464 438,270 498,48 475,325 367,477 242,507 569,371 382,429 428,156 518,133 226,247 251,328 183,261 1077,21 1063,49 1018,52 1021,447 1026,660 1047,752 924,231 96,178 839,520 857,579 1070,387 1076,277 1036,732 706,385 1000,721 1016,435 1011,648 951,397 862,586 873,430 879,550 854,530 836,566 815,583 937,626 808,524 905,584 549,323 779,489 970,599 620,387 315,492 537,16 399,190 349,167 465,395 342,133 492,275 427,281 512,170 391,372 452,150 113,351 312,185 866,218 423,155 865,283 401,398 842,343 696,181 850,299 1015,390 954,530 977,354 877,207 750,379 712,339 399,380 412,239 419,293 487,318 1021,683 1067,1014 945,977 436,718 536,953 527,948 380,170 162,320 285,243 210,149 776,274 988,923 990,995 954,714 983,374 936,389 893,622 823,530 737,443 706,142 777,12 792,150 125,99 790,166 266,103 402,209 400,285 367,346 497,31 534,192 171,232 360,148 404,121 785,135 607,338 925,595 877,595 662,480 633,314 591,461 161,18 429,177 476,61 428,137 382,380 884,438 662,134 63,115 500,250 254,188 134,335 551,182 380,194 114,269 751,159 779,124 724,176 722,156 729,102 613,177 687,205 236,119 524,106 234,114 306,2 319,130 485,444 367,105 190,44 297,81 468,172 488,49 405,467 763,157 746,257 777,99 820,55 764,14 800,246 779,198 759,417 746,140 744,215 369,133 119,365 602,42 212,282 329,453 654,342 307,363 533,198 533,126 494,4 354,320 510,878 552,932 542,957 534,1043 466,591 474,607 303,786 536,492 480,1034 489,585 419,637 465,576 388,660 620,644 337,667 827,690 664,950 439,1027 713,958 493,954 856,765 706,776 987,1005 943,973 991,925 735,667 873,938 428,1049 460,1028 509,921 1013,955 971,950 427,652 617,645 483,653 392,681 471,568 508,725 841,898 709,726 950,804 431,583 389,826 476,715 259,824 278,861 290,807 448,544 479,579 1050,867 356,665 601,1055 788,786 992,791 1009,999 690,1008 500,528 340,725 687,609 789,718 1013,1031 839,1077 1074,1033 525,1029 505,941 528,685 497,1000 595,858 543,588 580,1060 386,702 436,593 734,901 562,1038 403,763 300,918 438,797 531,971 552,1021 536,1063 512,967 519,998 521,522 406,783 642,776 1021,813 963,1042 777,675 842,831 772,665 472,586 469,1026 815,945 674,911 1038,934 676,899 901,889 1074,954 794,995 542,1024 492,943 568,991 531,1054 1032,1062 867,838 833,1033 960,1076 971,927 855,1005 870,707 883,1023 443,600 1078,837 411,666 631,679 571,669 412,844 317,781 576,836 482,874 436,592 439,617 826,696 811,782 804,929 917,934 680,926 709,913 556,727 618,874 918,921 1019,817 988,885 1070,688 887,1070 504,1018 515,805 530,561 555,665 604,783 574,736 628,624 277,813 982,852 441,1039 622,498 247,926 512,522 467,637 394,766 348,793 398,870 371,664 436,736 778,919 821,854 1029,1074 730,1062 1003,973 836,1028 1024,1012 851,850 809,700 817,785 814,740 797,758 449,734 575,706 566,931 587,533 404,723 223,842 636,402 833,607 685,467 920,604 848,475 1074,435 1053,751 949,970 1002,1048 988,757 373,1038 820,787 870,359 854,475 900,331 359,144 1066,507 1078,6 619,200 787,57 767,264 721,99 774,588 757,181 655,97 721,147 1008,397 823,505 854,546 869,541 848,354 1012,545 971,463 742,557 752,59 423,223 287,1 11,7 569,11 166,41 964,660 698,508 701,358 766,277 780,575 1023,418 329,358 284,511 253,406 410,470 441,408 479,352 70,161 281,358 244,572 484,133 500,61 212,265 289,185 272,135 909,288 1017,558 1065,468 1069,391 1026,66 763,1014 968,852 936,802 694,986 477,1067 553,938 863,1063 715,986 923,834 998,1005 1000,853 462,551 441,582 344,775 634,706 1020,928 946,902 1002,1079 614,866 894,793 545,924 949,770 1004,1055 983,860 1007,245 1016,279 973,951 737,802 820,735 845,753 832,729 764,742 1028,812 1015,376 997,436 981,1036 442,959 592,747 609,687 437,1070 814,911 802,844 781,879 856,832 1049,1031 740,1007 391,703 329,872 491,808 382,219 496,431 357,308 430,230 173,267 218,305 306,44 581,15 521,115 452,146 177,7 1003,640 897,241 1029,652 1067,508 1070,455 764,521 994,684 1037,415 896,316 960,455 1063,732 979,329 421,179 531,170 735,72 249,1023 412,789 704,383 783,36 724,87 745,257 999,372 1032,377 1033,338 1043,526 944,491 960,384 915,469 1079,368 1073,881 1048,875 369,620 924,784 441,890 909,1067 952,918 715,961 970,1056 807,874 1008,1075 778,1075 1007,856 960,996 876,967 985,1025 1057,599 1071,546 997,529 940,561 772,481 752,440 781,1062 1040,1021 671,944 404,663 341,958 389,703 902,938 966,966 654,842 399,604 254,860 401,668 468,825 456,1009 612,1066 1068,766 219,16 220,248 257,303 187,28 638,76 86,77 102,83 1069,693 911,339 1025,591 832,446 628,322 554,349 216,551 473,343 306,397 208,482 313,477 276,433 448,433 491,18 409,197 184,221 857,540 840,597 927,638 906,427 1021,693 9,26 132,63 121,77 948,678 821,398 813,582 692,474 98,180 861,541 869,534 935,413 925,496 1005,340 945,574 700,458 1001,741 636,388 636,145 133,150 120,128 83,344 284,257 890,537 673,496 736,524 934,582 654,475 252,889 472,751 451,1044 509,965 570,492 572,701 424,581 744,758 793,1055 1028,1055 551,1064 703,926 739,797 724,862 706,825 804,765 512,670 868,1014 577,791 742,786 654,926 566,884 362,700 1006,1060 617,862 400,805 481,767 446,771 507,891 637,1075 222,1024 705,214 766,117 629,303 876,584 946,465 716,555 802,61 561,316 791,476 1055,670 1040,558 448,18 567,169 433,6 612,74 924,519 148,5 925,282 938,399 794,985 873,775 844,710 675,732 889,916 696,625 978,899 684,867 459,1059 765,916 769,999 864,1072 502,1051 644,1073 476,1049 603,866 577,1063 409,708 717,770 994,914 897,835 578,765 477,733 449,693 435,818 939,767 1035,850 678,1046 569,616 474,611 294,828 356,894 253,878 349,750 480,672 105,900 101,890 393,731 742,775 866,729 913,786 432,552 286,806 450,551 597,788 611,500 48,972 91,975 118,804 35,985 127,591 601,163 716,202 997,389 969,312 716,915 712,603 1024,945 1030,954 759,690 931,816 421,1069 945,1075 908,1025 994,952 925,771 444,535 451,648 498,1071 900,871 842,720 876,826 824,1075 808,876 893,899 694,966 620,869 965,889 947,846 810,831 745,1072 474,1056 851,819 739,1024 1046,1053 582,1011 633,1044 443,1054 969,774 20,873 132,947 14,824 132,885 441,666 793,9 787,365 610,435 119,208 11,927 74,491 244,166 845,116 237,111 244,70 360,51 189,42 377,181 769,954 962,1023 965,867 985,770 874,1012 1040,536 871,1025 882,962 1012,1013 989,913 612,769 758,841 1045,1076 542,1007 449,1026 599,657 360,667 507,615 609,644 313,885 306,929 448,1064 700,847 539,510 514,475 586,551 286,954 451,520 311,1032 821,1038 763,1038 761,1032 462,667 411,690 669,609 238,969 623,673 497,577 571,655 472,558 1031,829 1069,555 45,886 65,568 51,954 90,970 152,819 36,808 54,984 11,780 2,395 11,973 451,656 349,1044 409,1049 602,957 599,687 485,813 946,887 973,829 902,926 396,627 594,798 564,603 538,584 520,850 487,648 768,29 863,9 126,76 703,670 473,565 507,601 428,541 612,899 587,1029 394,603 1073,1027 171,135 798,295 762,240 726,401 231,487 630,383 697,372 645,382 686,395 420,424 821,342 775,270 553,238 269,413 261,420 247,139 994,1069 728,913 463,627 234,826 331,810 405,612 384,646 205,922 541,574 495,917 491,933 480,812 23,856 588,772 483,867 341,10 392,130 537,68 581,33 470,236 526,266 468,207 242,23 331,27 318,173 254,526 1015,838 999,949 464,943 513,966 436,955 716,903 238,798 579,864 488,971 808,1062 773,720 344,297 429,376 550,170 462,9 607,755 700,986 1066,969 1009,577 818,520 633,311 704,43 912,14 366,930 414,715 227,1063 286,1029 260,974 391,923 347,936 471,724 450,730 725,744 580,617 642,1048 763,734 862,761 765,687 637,805 984,1059 971,772 707,701 630,594 847,701 438,1076 642,1010 720,901 794,1025 934,1015 1005,1078 737,928 270,970 392,954 271,874 707,215 875,270 667,411 891,270 586,429 281,378 188,212 202,287 36,489 21,165 94,87 14,724 21,130 69,901 0,621 784,35 777,213 1049,489 970,286 1002,625 997,460 1049,457 1042,539 1079,690 859,251 1040,648 1066,719 672,460 703,496 815,242 18,38 339,243 582,515 602,670 301,853 390,716 497,77 620,214 872,344 692,56 940,628 1069,596 1065,699 922,371 215,379 954,323 942,497 156,205 358,452 501,432 663,372 163,257 145,326 827,205 691,262 401,233 124,350 343,192 381,315 548,425 286,12 210,136 488,92 138,326 892,41 481,219 353,426 553,49 522,149 267,453 308,435 105,183 325,497 253,367 222,135 567,154 491,118 539,73 203,271 240,279 53,420 243,268 180,287 346,30 92,31 652,33 1016,805 1060,7 1048,119 1023,13 1047,212 1033,645 958,360 1077,546 1024,531 969,873 966,1053 1027,644 948,644 1006,349 892,341 856,495 981,389 1057,673 936,644 1067,178 1071,131 1048,1068 181,1079 814,239 637,162 655,196 737,132 970,596 1018,385 921,423 1019,425 1056,671 307,255 724,100 497,447 825,34 720,136 758,449 1060,377 1045,226 937,668 497,348 130,206 271,302 244,3 315,197 757,531 678,146 993,405 1060,156 1008,828 830,777 970,1021 936,1033 1060,80 1062,11 1053,174 1026,607 968,438 947,667 576,372 827,588 830,592 939,286 999,579 956,449 735,141 778,219 873,396 1047,560 817,501 784,542 698,511 1045,587 1068,198 549,817 932,827 803,699 1011,942 1025,594 1057,108 1044,67 1047,470 1015,677 934,466 942,250 1079,626 1017,659 604,409 228,515 408,433 512,244 453,328 524,399 244,516 451,429 300,419 256,397 359,403 656,329 1015,558 941,412 947,173 938,505 754,538 728,195 607,154 917,442 895,616 998,322 990,199 318,436 702,358 765,0 726,213 385,94 816,265 819,242 783,290 184,73 263,98 149,314 252,299 244,547 337,375 272,515 811,63 733,244 754,493 727,549 913,447 912,600 671,106 720,242 868,307 671,105 223,73 279,221 191,226 293,212 549,7 438,249 355,82 537,453 688,703 621,670 388,578 773,736 455,546 228,864 401,1021 826,930 805,668 415,574 382,848 495,141 487,269 472,264 416,251 447,251 530,246 408,167 973,630 1079,696 885,199 821,336 307,53 221,118 337,170 100,289 591,161 897,293 774,285 1007,389 379,122 168,261 554,63 453,59 603,47 176,180 578,68 189,191 215,224 274,404 203,148 701,166 788,95 575,134 455,159 769,125 260,10 627,11 233,273 276,22 882,278 186,518 290,437 274,316 255,450 204,147 341,140 91,13 588,23 245,76 373,88 416,327 368,359 635,363 769,339 653,389 782,313 118,566 899,58 995,135 625,405 935,203 779,823 599,702 747,1043 839,1049 714,1035 765,960 190,980 1037,1064 836,1054 437,1067 425,1066 281,766 613,844 7,844 46,724 38,986 65,756 309,307 296,73 281,62 266,24 308,0 470,3 512,266 347,233 817,495 1067,653 947,1051 462,1034 698,824 479,742 264,853 717,828 935,1057 820,801 1008,892 998,121 1008,690 1000,870 987,1063 856,1065 790,832 801,865 910,1043 345,1055 345,784 395,1031 861,881 1040,782 958,848 442,616 448,607 400,578 329,793 845,17 574,108 283,0 229,272 300,432 547,169 218,477 267,461 372,8 392,231 692,680 23,893 16,891 1058,532 712,425 716,440 203,145 542,12 570,9 43,41 698,12 491,834 581,758 399,571 275,1008 278,1008 468,675 631,595 985,860 1053,920 903,827 711,939 669,910 435,879 820,1027 880,1030 959,1059 791,991 833,773 1065,865 742,645 756,800 844,718 675,683 830,833 696,702 910,763 949,847 871,815 659,1075 317,1050 767,1046 906,962 823,1075 845,914 955,515 968,622 1004,413 1064,810 1007,554 1076,675 432,272 487,272 370,224 674,434 788,222 798,491 743,49 714,83 710,53 979,612 700,377 647,404 1073,738 1053,841 826,704 816,734 637,593 566,623 745,633 824,763 892,737 1034,897 500,611 521,537 337,760 464,568 621,913 641,895 556,943 401,1079 614,965 519,552 341,1002 305,887 311,974 375,879 754,21 861,209 660,377 304,499 284,512 281,437 36,89 5,52 372,534 958,1051 860,1061 1009,1037 812,839 744,705 797,846 446,1007 667,758 597,852 571,1036 455,996 548,662 898,978 804,887 777,884 831,941 951,933 333,1042 370,561 366,673 500,679 365,750 392,604 249,913 614,650 950,969 941,1021 947,860 686,875 674,1007 673,926 481,983 447,801 536,1006 463,759 542,775 636,952 656,933 495,1052 802,483 616,376 982,473 1058,526 811,439 952,635 592,72 119,348 815,134 683,196 744,251 959,546 846,512 811,450 858,907 658,878 963,890 896,522 1072,603 948,968 567,625 670,616 583,897 492,1048 514,874 444,636 475,971 517,1053 530,743 449,950 591,1034 466,1011 512,636 269,946 260,1068 385,890 376,1036 321,661 818,1063 964,1012 1025,1006 274,954 395,902 270,1066 403,1058 327,986 803,1020 972,878 878,393 1007,360 938,334 699,675 495,577 488,709 264,875 508,756 530,871 447,921 791,1030 461,558 322,957 914,870 779,818 781,11 208,5 902,1 902,541 905,281 854,493 807,544 733,211 1013,367 443,98 915,324 687,141 789,141 782,51 745,499 835,567 945,417 878,558 722,439 996,708 619,277 641,397 296,769 1070,737 167,847 103,923 335,737 225,1044 375,628 325,772 510,718 241,973 604,669 335,6 224,126 245,297 1073,637 1012,584 860,340 867,644 692,117 672,125 829,66 1023,16 535,2 946,429 670,107 728,100 680,123 632,410 510,331 250,446 465,430 253,1013 397,755 3,892 82,985 73,1049 25,830 516,874 537,560 626,550 994,838 483,684 735,766 559,721 629,891 545,682 241,1050 335,992 378,991 886,1046 560,1062 452,758 274,813 258,860 273,840 328,899 622,656 954,773 613,755 239,813 926,945 838,717 768,831 443,956 909,991 724,880 631,1075 997,985 1007,977 1005,759 284,775 276,832 520,657 697,938 849,934 959,1079 411,1077 839,1047 458,701 42,923 32,1041 141,585 52,884 142,839 741,758 1065,1003 583,971 580,842 911,737 8,872 68,931 9,537 18,494 934,380 848,639 946,415 793,505 1055,669 1026,396 967,493 990,567 802,576 945,627 250,143 546,10 495,96 449,474 263,0 380,10 304,86 233,78 278,521 269,393 431,287 532,234 255,430 462,441 469,28 369,315 405,239 480,198 403,250 530,31 569,92 273,418 170,271 322,50 394,85 8,11 62,179 25,100 10,69 414,38 833,323 748,572 755,546 766,10 775,354 687,407 281,414 225,525 558,331 822,384 962,608 817,331 608,359 673,226 252,87 317,261 234,137 237,79 212,243 324,504 508,171 819,37 552,275 3,14 166,350 257,80 645,13 93,284 362,54 366,53 360,90 374,41 340,87 158,286 52,577 31,192 880,898 887,901 729,625 567,604 868,716 672,970 602,1065 274,881 282,963 371,870 248,859 969,1063 730,1007 455,863 998,1060 920,966 726,963 839,913 711,770 814,673 782,695 786,785 503,931 505,825 760,619 674,985 756,633 832,722 876,733 982,1062 636,1075 1019,995 893,765 796,666 969,828 652,596 987,824 858,768 507,1032 978,1071 211,1036 922,880 604,1071 582,971 733,1073 45,811 63,1079 46,351 35,639 48,213 978,501 973,916 452,1075 887,749 608,576 426,189 188,97 824,581 935,613 886,573 958,375 934,632 981,1051 822,841 746,557 731,533 714,417 367,342 435,468 224,101 407,78 340,89 200,209 119,183 54,493 265,39 333,171 224,533 409,400 479,369 506,329 314,365 273,40 375,4 401,34 244,193 573,31 387,388 231,549 297,21 391,98 273,15 344,160 275,286 260,485 463,160 809,7 700,450 757,522 674,400 206,448 547,75 131,355 778,45 724,80 213,170 252,214 257,34 505,156 311,490 155,179 361,42 407,139 553,38 469,75 406,403 448,189 458,125 414,466 352,412 194,509 567,306 222,442 422,461 999,347 1059,767 993,679 851,589 859,405 1021,577 950,317 332,468 224,545 381,182 245,173 806,101 209,1000 329,1074 277,996 257,1077 765,1067 442,988 640,1012 679,1005 390,1042 251,805 844,377 299,768 397,660 207,902 313,1068 582,1022 314,1045 398,621 727,324 775,306 896,326 643,213 647,381 376,409 427,471 206,136 1074,749 217,202 302,216 252,214 283,230 498,157 196,129 401,182 532,216 486,230 536,227 375,107 760,102 841,543 989,696 969,836 1020,933 754,976 572,1003 949,1033 695,802 575,773 577,910 826,530 800,512 939,700 1054,521 717,491 970,556 1038,732 924,271 609,234 938,350 894,569 830,462 681,229 741,546 858,567 803,197 730,36 735,19 848,32 743,107 124,255 600,7 520,27 401,151 121,319 175,312 266,145 278,503 718,330 689,415 212,423 939,424 866,315 1037,400 928,300 955,431 981,534 790,570 989,633 967,298 1016,799 837,805 1075,1056 1015,372 1057,520 842,354 668,388 710,515 691,414 459,725 618,734 339,683 514,865 516,1005 530,832 493,601 269,801 265,831 275,964 388,927 250,949 285,1072 321,952 216,996 338,906 744,34 833,625 674,218 771,267 764,39 857,125 1020,34 955,945 965,1002 254,1068 265,1011 550,1078 476,619 516,609 818,906 723,804 990,972 190,1073 794,46 463,47 406,492 480,242 393,498 669,912 836,929 1004,1057 922,746 997,913 972,956 957,1073 13,1078 1068,1072 663,1032 743,614 545,641 402,769 436,633 369,844 366,859 234,1009 592,1049 242,993 236,991 410,612 229,970 289,1005 416,875 292,923 575,506 477,1062 352,1034 309,832 249,803 677,865 238,830 484,538 1019,39 730,161 751,177 837,256 725,370 452,436 406,252 434,370 557,116 449,117 546,1064 512,1042 527,1058 975,1079 1002,817 1004,987 866,960 479,502 623,646 731,609 675,1072 778,1013 871,948 1035,864 912,1050 447,569 406,691 494,712 503,672 315,1057 381,854 221,1022 333,834 25,824 103,978 16,1077 135,784 710,867 467,818 577,975 599,817 824,940 709,331 949,512 248,39 290,248 298,105 537,379 534,346 394,392 451,376 585,401 942,311 855,298 178,26 760,179 482,471 811,126 753,68 1066,792 960,312 1051,499 1044,830 886,921 674,807 43,861 7,943 192,877 809,324 1069,694 979,894 1073,619 989,619 822,595 785,438 929,613 979,317 1059,581 939,1079 1065,1052 917,1027 839,967 573,785 683,831 609,773 834,918 493,1051 670,817 593,893 614,893 553,998 723,960 640,1057 649,781 725,920 647,783 647,859 1000,1021 786,746 1044,924 833,873 844,907 1059,921 699,1031 545,451 603,822 647,847 693,1067 537,969 460,991 450,1034 489,875 473,996 1069,1065 857,1061 1033,603 868,1045 1009,1069 180,1057 630,367 631,213 828,92 599,125 655,153 256,8 299,37 259,16 556,58 345,26 272,265 763,845 713,789 985,943 576,602 605,715 1006,895 1035,674 948,638 1023,450 1065,645 1016,414 1004,600 813,605 851,287 933,332 1049,527 1017,690 1010,1006 909,1058 638,815 1055,773 846,323 972,406 964,721 724,219 530,358 623,982 447,935 631,1014 687,617 964,803 1042,856 443,676 197,852 67,820 69,1030 73,609 456,405 291,490 350,393 216,540 330,497 331,399 516,234 519,217 364,247 387,195 228,66 458,167 810,292 683,142 479,278 284,161 206,325 204,244 263,46 559,70 92,391 134,230 80,417 769,135 739,167 212,573 392,321 563,54 281,39 246,11 468,18 253,50 224,235 263,532 370,319 323,502 163,546 542,355 81,67 626,19 168,283 263,229 121,138 180,168 276,510 239,238 242,51 268,404 302,394 312,510 183,108 412,4 336,54 198,455 26,1079 134,885 78,785 373,945 404,1075 271,894 596,776 931,397 1033,393 764,362 754,855 565,923 540,436 245,32 281,509 311,499 669,312 270,431 355,44 336,65 287,160 177,248 314,266 474,455 374,432 548,389 318,25 484,184 327,314 720,681 908,773 1037,812 781,728 810,765 779,679 664,646 677,781 360,286 493,221 522,232 431,341 532,147 718,162 748,239 732,194 841,182 119,325 1053,648 848,1028 434,1077 895,1079 288,1060 250,829 446,1016 698,18 864,410 669,26 838,925 984,998 1003,896 636,686 511,535 465,714 399,879 389,1060 289,974 966,1018 695,884 210,1011 1027,385 726,219 677,418 763,18 838,316 1077,590 897,305 893,225 1034,434 1037,466 1026,481 1020,388 687,494 733,500 681,380 955,537 604,303 435,686 779,878 719,968 764,976 761,1012 776,432 814,421 662,1066 846,1063 619,1052 332,995 617,1079 496,1059 496,742 757,762 769,723 796,671 742,689 709,649 892,774 371,616 427,587 801,742 592,598 810,834 628,746 828,1055 67,823 322,1049 926,702 287,1034 644,1052 1006,1075 722,1034 785,123 589,188 787,2 717,28 979,40 1000,849 752,629 598,612 791,637 341,647 529,550 760,1079 768,770 767,320 432,93 683,246 673,79 485,1031 506,992 598,949 757,907 606,940 775,911 803,914 730,924 715,935 735,845 715,1052 697,1048 683,611 338,592 976,634 1008,304 473,435 616,998 559,835 746,866 940,1041 983,1011 1007,264 1000,504 762,288 782,578 1048,131 1026,158 905,150 969,367 921,401 964,217 910,209 941,618 977,1017 930,1025 223,1032 540,1049 839,1050 715,882 774,1073 753,637 734,877 638,824 512,540 288,1034 570,971 553,492 277,803 383,853 86,865 74,1016 182,785 5,1038 89,965 67,757 26,1003 153,536 63,930 49,807 62,1011 109,384 76,871 63,1044 74,440 224,236 238,16 535,23 619,112 610,191 160,262 301,111 594,16 546,62 68,391 707,56 1059,119 998,223 1042,205 487,1050 836,1019 519,995 809,1018 675,890 346,599 373,1072 558,1061 974,712 362,218 96,284 122,151 381,27 214,199 373,290 702,381 734,290 672,408 844,500 415,1062 998,1049 1019,562 653,448 874,634 817,499 1042,755 824,842 951,870 925,909 977,832 935,1055 687,955 442,1073 247,933 434,783 61,880 501,708 742,639 626,741 1023,937 825,1000 496,941 628,1007 529,579 652,544 897,474 1001,665 803,576 1048,446 806,579 885,650 1072,617 733,455 994,732 698,392 536,635 581,740 582,839 238,826 382,873 951,426 772,458 690,361 690,400 416,182 106,325 754,149 611,226 706,236 397,157 316,23 182,3 720,152 745,453 602,350 1035,366 1009,725 617,360 993,600 1079,730 932,469 803,395 302,334 393,316 364,339 210,524 508,340 562,30 295,13 405,27 9,22 75,108 939,184 478,95 406,137 210,324 290,81 284,45 814,236 977,472 912,565 906,405 961,362 960,373 965,549 938,440 977,693 463,1013 518,893 550,990 357,643 773,290 728,26 922,640 797,568 830,545 895,355 834,563 867,455 689,346 715,373 682,173 577,173 753,37 728,168 820,275 510,113 784,294 941,418 216,339 391,407 417,328 404,346 436,783 726,631 1055,953 417,951 228,794 398,947 342,1002 410,654 346,717 294,929 290,796 345,1000 319,829 51,898 766,656 787,680 889,1070 477,778 437,793 609,1049 713,839 649,934 691,623 642,594 290,762 319,961 304,861 423,682 274,891 450,543 416,673 259,833 355,885 355,1016 374,627 306,896 291,807 393,805 179,837 66,964 38,623 860,204 330,101 289,458 177,119 818,810 983,1004 337,973 353,940 408,555 487,719 637,599 429,704 519,894 535,704 377,581 638,701 604,734 644,836 966,859 801,737 523,694 325,764 858,832 828,831 908,794 972,874 970,1056 910,858 777,984 572,893 642,773 708,789 314,800 400,575 470,632 430,525 336,1053 204,1046 341,1056 483,1069 661,1066 209,1071 521,1058 401,579 462,580 507,1016 1071,709 985,282 649,165 805,98 720,339 909,285 751,363 965,468 1052,822 1005,498 1026,369 1003,1029 988,1023 527,990 652,666 829,787 642,695 298,890 379,997 337,869 377,1014 394,878 434,784 13,867 83,798 36,847 211,850 460,622 656,599 873,735 920,921 1054,646 1058,603 1007,724 837,529 762,545 304,192 487,290 199,144 225,356 8,1069 123,1048 685,622 374,649 782,278 949,416 693,499 833,591 240,802 9,1070 109,744 60,981 91,894 900,500 978,903 994,1072 630,897 552,788 411,156 846,12 122,66 826,30 66,186 307,11 799,12 572,166 496,53 455,51 211,546 567,165 289,39 558,97 524,40 695,146 145,331 802,93 761,3 801,148 608,235 989,340 787,265 677,279 45,637 33,663 72,1073 125,859 890,750 812,711 426,762 317,973 406,1043 319,850 725,700 791,900 881,863 715,829 749,678 627,620 781,653 812,955 909,990 483,1062 461,846 361,67 283,68 337,95 618,10 215,25 596,137 929,17 1061,78 1026,684 12,57 351,475 371,439 211,164 60,119 147,15 104,19 1059,1052 833,1071 857,994 812,675 1027,1031 979,1048 981,609 251,254 632,232 812,105 732,137 282,132 387,137 528,234 217,32 600,100 520,35 54,12 574,172 461,276 395,227 131,343 288,107 192,97" fill="none" stroke="black" />
</svg>
  