<?xml version="1.0" encoding="utf-8"?>
<!-- Generator: Adobe Illustrator 25.3.1, SVG Export Plug-In . SVG Version: 6.00 Build 0)  -->
<svg version="1.1" id="Layer_1" xmlns="http://www.w3.org/2000/svg" xmlns:xlink="http://www.w3.org/1999/xlink" x="0px" y="0px"
	 viewBox="0 0 1344 896" style="enable-background:new 0 0 1344 896;" xml:space="preserve">
<g id="layer0">
	<path d="M0,896c3.5-2.1,23.9,1.7,35,0c13.8,0.3,26.9-0.5,38,0c11.3-2.2,32.8,4,37-4c4.4,14.8,22-7.5,18-2c4.7,19.7,14.6-13-4-7
		c-6.5-11.5-16.6-12,1-13c-9,0.9-4-10.4-24-5c-8.3,3.3-23.2-2.8-34,0c-24.8-0.6-3.8-9.5-17-10c20.7-4.5,1-13.9,0-12
		c-13.9-4-13.8-9.3-2-13c10.8-3.9,19.9-5.5,28-10c-3.1-3.8-23.6-3.6-32-1c-12.2,1.1-21,5.7-36,4c-15.6-2.1-4.1,24.6-8,33
		C0,869.3,0,882.7,0,896z M140,896c30.3-1.5,7.2-18.4-5-16C108,876.9,157.8,881.2,140,896z M157,896c2.5-7.8,28.9-4.9,7-8
		C160.2,873.9,157.7,886.8,157,896z M404,896c16.5-11.7,11.8,5.1,23-7C415.3,883.2,413.6,884.5,404,896z M430,896
		c7.1,2.1,6.6-12.1,6-12C430.9,878.3,430.5,891.2,430,896z M442,896c8.4,3.6,23-2.9,19-22c1.2-20.5,1.5-28,12-20c2.6,7-6.3,5.4-6,3
		c-8.7-1.7,21.2,13.5,9,3c-4.9-17,13.1,9.1,21,3c-1.9-2.1-8.2,1.4-11,0c-15.4,7.4,20.6-5.2,12,8c6.5,13.2-15.3,24.8-15,21
		c8.8-0.2,9.3,6.8,25,0c-1.3-4.2,3.1-7.2,1-9c8,1.7,5.1-12.1,10,4c-3.2,14,18.5,7.2,34,9c11.8,0.1,31.2,0,46,0c14-2.2,37.9,3.9,45-4
		c3-13,4.1-27.9,8-40c3.1-13.1,7.7-26.3,11-38c1.6-13.3,4.4-29.9,4-42c0.3-15.4-4.5-31.8-1-46c1.3-14.7,1.6-30.4,3-45
		c5.9-0.4,1.1,29.8,6,37c0.8,11.9,8,30.4,1,41c-9.3,12.3-4.5,32.4,1,8c8.2-8.5,6.1-25.8,5-41c0.8-15-8.3-17,6-29c2-13,2.3-26.5,7-39
		c6.9-10.4,6.5-26.7,9-38c4.4-21.2,11.6-11.6,17-15c16.9,2.7,16.5,1.7,8,19c-6.1,9.9-5.2,26.9-5,43c-1.7,19.8,1,37.8,2,9
		c0.9-15.7-4-32.1,3-43c7-10.6,7-26.3,23-22c18.9,0.3,8,17.3,13,31c3.6,25.9-0.2,6.7-9,22c-6.7,7.2,4.3,39.3,5,25
		c-6.7-18.9,9.9-23.3,17-30c12.8-25.2-14.8,14.8-9-3c1.6-7.3,0.2-38.5,8-33c-1.2,8.8-9.8,40.7,0,18c0.5-27.1,10.2-16.2,3,2
		c3.3,3.5,5-2.1,5-5c-0.2-18.1,5.9,8.9,5,15c-8.2,9.8,29.6,0.7,15,12c-5.3,19.1,1.7-23.9-10,4c3.2,17.6-11,26.4-5,40
		c1.6,13.6,9,35.2,6,6c-8.6-14.1,2-24.2,5-36c-5-9.4,26.1-15.6,19-1c-5.8,22.1-12.7-25-15,8c6.3-9,11.9,18.1,19-1
		c6.4-26.9,1.7,15.8-3,10c7.5-5.9,26.8-13.8,18-18c11.4,6.7,24.9,8.8,16,23c-7.1,8.9-15.1,16.9-16,32c7.2-5.7,9.4-23.5,18-29
		c11.4,19.9,0.5-26.4,8-12c7.7,10.4,3.2,31.6-1,40c-1.3,14.7-8.1,23.9-13,35c-2.1,12.1-15.5,22.1-14,31c7.3,12.4-6.4,27.9,10,10
		c4.5-11.8,8.2-25.8,14-35c4.6-10.5,7.2-26.2,9-37c-0.3-11,1.3-35.6-1-44c8.2,7.8,3.4,28.6,8,40c4,12.2,5.6,28.4,6,43
		c3.3,15.9,2.3,18.7,7,35c7,28.7-6.9,6-7-6c-4-12-3.1-28.9-5-43c-1.8-30.4-6.2-8.6-2,7c0.7,13.3,2.7,33.6-1,45
		c-2.9-12.2-2.9-34.3,0-45c-6.3,3-7.7,22.1-9,35c-2.4,13.8-6.8,27.2-11,38c-5.6,10.4-11.1,20.9-16,32c-0.4,12.3-20.6,29.6,7,24
		c16,0,32,0,48,0c5-11.3,4.4-29.6,8-41c1.3-14.7,3-29,5-43c0.3-16,3.4-30.6,4-45c1.6-14.4,0.2-31.8,2-46c-3.2-19.5,9.8-24.2,16-33
		c6.1-9.9,4.4-27.6,6-42c15.1-2.9,3.6-26.9,5-38c-1.2-14.8-2.8-29.2-6-42c-4.2-12.1-7.5-26.5-9-40c-3.9-12.1-5.1-26.9-11-37
		c-4.7-11.6-13.6-20.4-22-27c-5.2-4.3-28.4-15.7-28-8c14.1-0.9,19.1,15.5,25,14c1.2,14.8,7.7,24.3,13,35c-0.2,4.3-0.1,10.6,2,11
		c0.6,18.7,3.2-23.6,7,3c7.1,8.9,8.7,23.3,13,35c4.6,11.7,8.7,25.3,10,39c1.1,14.8,4.5,28.8,1,43c-11.6,6.9,12-33.6-11-24
		c-2.7-5.1,5.1,34.1-4,12c-3.8,14.7,17.2,19.4,6,35c-20.4-6.3-14.8-2.7-6,12c12.1,9.5,3.8,24.3-6,29c-10.4,12.9-22.2-3.8-32-6
		c-10-6.2-25.4-8.6-33-16c-9.8-6.2-18.4-13.6-26-22c-8.4-7.9-17.2-16.8-27-22c-1.1-8.1-19.6-17.3-18-20c19.8,6.4,15-26.4,9-8
		c-8,10.6-25.9,3.9-38,2c-15-1.3-25-9-40-9c-13.4,1-30.2,10-34-6c-2.6-8.9-20.5-22.9-9-30c9.5,6.5,11.8,20.2,16,32
		c-0.2-1.4,13.3-16.8,28-13c4.8-2.9,22-25.5,12-20c-6.2,10.1-22.2,23.4-15-2c8.4-0.3,19.9-31.7,5-15c-7.5,2.4-13.6,34.9-18,13
		c-7.6-4.3-14-17.2-17-29c-19.1-19.2-2.6,12.5-9,18c-6.1-16.1-13.7-17.5-11,5c-22.9,15.8,3.7-10.2-13-4c-6.6-11.8-2.8,20.9,0,28
		c-2,15.1,11.5-3.9,21,12c-1.9,9.1-24.7-1.6-28-8c-8.7-7.6-26.1-7.9-32-17c0.8-8.7-17.5-34.2,4-26c10.2,2,37.5-12.3,29-4
		c1,30.7-0.8,4.2,8-4c10.1-2.8,16.1-24.3,29-14c15.6,3.4,11.2,17.8,12,28c0-16.3,14.3-19.7,25-24c5.1-1.1,5.7,2.3,8,4
		c16,12.8-3.6,0.9,6,10c7.4,8.8,19.5,14.5,27,22c4.3,3.2-16.9-9.6-28-8c3.4,9.5,28.4,4.4,31,16c6,10,16,16,20,28
		c-0.3,19.2,9.2-18.6,24-1c13.4,1.7,11.6,21.8,26,20c5.2,1.8-2.5-4.1-3-4c-12.4-8.1,10.9,1.3,14,4c6.8,6.2,28.4,9.8,25,17
		c8.8,3.3,34,12.1,30-7c3.8,2-13.4,15.6-21-1c1.3-13.4-7.4-21.5-14-31c0-16,1.5-30.5,4-44c0.2-12.4,13-27.4,9-34
		c3.5-8.2,10.9-20.3,17-29c8.9-21.4-12.8,4-13,10c-9.2,6.8-10.2,21.8-15,33c-4.5,11.8-7.2,26.8-8,41c-5.7,8.1,5.2,40.4-2,26
		c-4.7-14.5-5.3-26.8-2-39c-0.8-13.4,4.9-25.5,7-39c-4.6,8.3-11.2,21.7-12,35c2.6,17.8-1,30.5-5,5c-9,21.3,0.7-11.6-2-23
		c4.7-13.3,13.2-15.5,18-28c7.2-15.3-11.8,11.7-15,14c-8.9,7.1-13.5,18.5-12,36c11,19.6-2.2,12-11,2c-17.7-19.9,13.2,11,8-10
		c9.1-21.3-19.6-13.6-32-15c-15.3-0.7-41.4,4.4-10,2c8.9,3.1,37.2-3.9,39,8c-11.8,10.9-25.7-2.4-33-7c-15.8,9.4-25.4,1.3-33-4
		c-13.5,4.7-6.9,28.3-18,6c-8.8-14.2-5.7-14,6-25c6.8-7.8,17.7-18.3,10-32c-4.6-5,5.7-4.8,4-1c3.6,18.8,4.7-7.5,6-14
		c4.8-13,5.6,31.7,9,15c4.9-12.4,7.2-26.1,12-35c17.5-15-9.3-1.3-13,5c-8.5,7.7-16.3,17.7-25,24c-12,4-8.6,23.5-12,36
		c-2.1,23.8-16.2,3.4-28,9c-13.1,11.6-18.7-0.1-29-7c-20.6-2.6,2.8-12.1,4-23c19.2-15.5-3.5-4.7-11-1c2.3-13.9,23-11,30-19
		c10.4-12-15.3,5.8-24,4c-11.4,4.8-14.2,19.8-20,29c-5.6,21.4,1.1-33-8-12c0.1,12.7,7.4,36.7-6,39c-19,10.1-22.8-8.2-15-21
		c6-10.2,7.5-26.5,11-38c12.1,12.8,2.6-16.8-9,3c-12.8,3.4-21.4,12.6-33,16c20.2-7.7,18.1,15.5,10,24c-3.2,13-9.4,24.6-26,23
		c-7.9,8.9-23.4,8.7-36,8c-19.7-3.5-4.6,29.4-22,27c7.2-2.3-2.2-22.7,3-37c1.8-2.5-0.3-11.4,3-8c2.8,17.1,9.7,10.2,2-2
		c-4.4-9.9-8.8-26-15-29c-0.8,15.3,11,26.9,6,39c-3.8,11.3-7.9,27.2-3,39c-8.2,8-16.4,17.6-24,25c-10.8,5.2-25.3,6.7-37,11
		c-12,4.2-21.7,12.3-28,21c-4,11.5,15.1-9.2,22-10c7.1-9.2,26.7-7.3,34-15c15.2-0.8,18.6-13.4,28-20c9.8-6.4,18.2-15.8,29-20
		c8.9-7.1,18.8-13.2,29-19c9.6-4,30-17.1,27,6c0.1,13,13,24.8,6,36c-11.1,6.7-16.4,19-8,31c-1.3,14.7-13.3,18.7-19,29
		c-1.9,2.9-6.4,5.5-4,1c7.2-16.6-4.7,1.9-6,8c-4.8,11.2-13.2,18.8-20,28c-7.7,8.5-17,17-26,23c-10.2,5.8-17.6,14.4-30,18
		c-20.8,1.7-25.9,9.6-1,6c13.6,5.4-22.4,4.7-25,1c-8.2-8.1-17.3-16.7-24-25c-7.9-8.1-14.3-17.7-18-30c-4-11-14.2-22.1-10-37
		c5.3-10.7,11.5-20.5,17-31c10-11.2-3.2-27.2,2-41c1.3-14.7,12-20,15-33c-9.3,0.6-29.9-2.1-44-1c-15.1-0.9-30.5-1.5-46-2
		c-17.2,0.9-32.8-1.2-48-1c-14.6-1.4-31.1-0.9-46-2c-14.7-0.3-30.7-0.2-45-2c-15.5-1.7-29.4,1.4-45-1c-15-1.3-31.2-2.8-47-2
		c-16.3,0.3-30-2-47-1c-15.8-0.5-33-1-47-2c-9.3-1.1-45.3-2.3-22,4c15.2,1,32.7,1.3,48,1c14.4,1.6,31.8,0.2,46,2c16.2,0,34,0,49,0
		c24,2.3-15.9,4.6-23,5c-18.6,3.9,24.1,0.7,29,0c15.6-0.4,30.7-1.3,46-2c16.1,0.1,30.8,3.2,47,2c15.3,0.7,31.1,0.9,46,2
		c16.4-0.2,32.1,1.9,48,1c13.4,2.6,32.6-0.6,46,2c14,2.2,39.2-5.2,43,6c-1.1,7.4-9.9,20.2-8,36c6.3,15.2-0.7,26.7-6,37
		c-6.7,9.3-13.1,18.9-14,34c4.4,11.9,9.6,24.4,14,35c-1.6,17,13.8,10-7,21c-9.9,20.4,8.8-8,19-4c0.4,4.9-20.5,8.5-21,21
		c-9.5,7.1-17.4,18.2-10,33c-6.8,13.8,20.1,31,3,23c-13.6-0.1-0.9-12-8-29c-10.8-15.5,19.5-31-2-20c-5.2,13,0.4,33-1,44
		c-2,11.8,6.2,14.7,3,31c3.2,8.5,1.6,40.4,8,33c-1.2-20-0.6-28.5,8-8c19.3,13.1,1.3-15.5-4-17c-17.7,4.3-2.5-36.7,0-14
		c-0.3,17.2,31.3,5.4,22,19c-5.5,17.2,8.1,23.1,22,24c2.5,13.6,12.3,0.1,3,22C452,874,447.8,885.8,442,896z M462,896
		c7.8,2,7.9-3,4-6c17.8-0.4-14.4-8,12-5c-1.1,3.3,5.1,1,10,2c11.2,2.4-29.2-7.2-5-16c5-0.1,10.5-4.4,1-3c-18.2,15.3-2.8,3.8-16,1
		c-4.8-1.7,7.9-1.2,8-4C456.6,860.5,468.4,888.8,462,896z M664,896c11.3-6,13.3-33.6,26-29c-2.5,2.2-2,9.7-2,13
		c-16,20.4,11.3,14.1,0,11c-0.1-16.9,8.4-30.3,10-48c-4.2-18-1.1-29-5-49c0-32.5-11.2-11.1-3,8c-4.9,23.5,2.8,22.1,2,38
		c0.1,20.1-14.1,25.9-20,40c-4,3.5-2.4-8.5-5-8C656.4,862.2,663.4,884.5,664,896z M694,896c6.6-5.5,2.9-20.8,3-31
		C694.4,878.5,693.4,881.3,694,896z M718,896c2.3-18.2,1.9-44.4,3-60c-4.1-25.8,5.9-38.6,17-48c4.4-14.1,4.2-34.5,15-46
		c-2.6-21.4,34.7-12.1,28-30c-6.2,13.6-35.4,2.8-36,25c-5.4,16.3-10.1,34.4-14,51c-15.8,4.8-11.7,35.1-13,50
		C718.1,858,717,874.8,718,896z M1228,896c20,0,40,0,60,0c17.4-2.2,25.2-15.4,35-24c10.3-9.6,26.8-13.2,21-39
		c3.9-27.7-1.6-38.1-19-22c-3,1.7-7.9,3.8-9,6c-23.5,7.6,11.6,7.7,18,7c-9.5,10.2-24.5,16.1-34,25c-12.6,7.4-24.8,15.3-37,23
		C1251,879.7,1236.8,886.3,1228,896z M1311,896c25.5,5.2,41.7-0.3,33-28C1331.1,875.4,1319.7,885.6,1311,896z M615,889
		c31-6.5,8.2,5.6-8,2c-16.3,6.6-27.3-5.4-37-11c-11-6.3-19-15.7-30-22c-31.2-5.9-2.3,5.8,5,10c23.4,12-11.3,1.5-17-3
		c-11.3-5.7-25.1-10.3-37-14c-15.7-1.7-24.6-10.1-38-14c-15.2-1-24.8-13.9-15-28c2-15.3,10.6-24.1,17-35c4.3-12.6,7.8-27.5,13-38
		c6.3-5.7,31.1,7.8,35-9c6.3-12.3,25,3.7,27,12c13,17.6,5-15.8-7-15c-9.8-18.1,12.5-12.5,15-24c2.5,11.5,3.8,29.7,6,44
		c6.8,6,1.1,44.3,8,27c6.5-12.6-0.9-33.3,2-42c-3-12.2-6.7-31.5-3-45c9.1-7,10.3-27.4,30-18c15,1.9,35,0.3,49,2
		c10,0.7,41.2,8.7,38-10c1.3-35.1,3.7,10.6,1,18c-5.3-1.3-3.6,6.9-6,7c0.1,28.1-1.9,3.5-1-8c-14.3-4.8-8.9-1.4-10,17
		c-1.4,15.9-4.6,30-9,43c3.1,13.7-7.8,46.8,2,23c3.9-6.8,5.8-40.9,11-29c0.5-3.6,2.1-8.4,2-11c1.1-22.8,4.6,7.1,2,14
		c-0.3,16.5,2.1,34.6,1,49c-3.2,13.7-3.8,31.5-7,44c-2.3,15-5.9,28.7-10,42C644.1,884,623.9,882.3,615,889z M595,887
		c4.1-8.2,5.1-21.6,4-32c-0.2-12.5-1.8-23.6-1-37c-1.2-11.5-1.7-23.7-4-34c-2.2-10-5.2-20.9-8-29c-3-7.3-13-21.6,2-22
		c14.1,1.4,19.5-5.8,29-9c16.8-9.5,8.2,10.5,9,21c0.6,12.8-2.3,23.8-3,34c-2.1,10.6-3.4,21.9-5,33c-2.6,10.1-5.5,19.9-8,30
		c-7.5,19.7-2-9.5-4-10c-4.5,9.7,0.4,23.2-1,34c-4.4,10.6-3.1,28.3,5,11c0.3-11.9,3.2-22.9,6-31c2.5-10.2,5.8-19.6,8-30
		c2.1-10.1,4.2-22,7-30c3-9.7,4.6-20.7,4-34c-1.4-7.3,0.8-21.5,0-34c2.5-10.1-1-26.4,3-35c-0.7-14-8.9,4.9-5,14
		c-0.9,16.3-0.1,19.7-12,20c-9.3,3.4-17.2,8.1-27,11c-10.3,0.4-24.5,4.5-19,15c2.5,9.7,8.1,18,10,27c3.6,9.1,5.3,20.1,7,31
		c0.2,12.5,1.8,23.6,1,37c0.5,22.6-5.4-6.5-7-11c-3-5.9-8.6-8-12-19c-3.8-5.8-11.8-26.4-8-4c2.6,9.5,7.6,18.6,11,26
		c6.1,6.6,6.1,19.2,10,28C591.3,865.8,589.9,881.2,595,887z M427,886c6.8-8.9-7.8-26-1-21c8.9,10.4,28,1.4,10-4
		c-9.1-21-9.8,5.5-13-3C417.6,869.3,425.9,875.7,427,886z M168,885c7.3-0.9,6-4.4,0-6C160.2,874.5,164.7,883.8,168,885z M481,882
		c11.2,0.4,7.6-5.5,11-6C494.9,869.6,469.9,873.6,481,882z M111,880c-5.4-20.9-17.6,12.5-14-5C60.9,872.7,111.1,865.2,111,880z
		 M579,878c-1-18.6-10.4-33.6-20-46c-10.6-12-17.6-27.7-32-36c-10.6-12.1-17.1-28.3-23-45c-14.1-29.1-5.9,20.8-1,28
		c13,6.6-1.2,52.4,9,37c1.1-4.3,2.9-10.2,3-14c-3-27.3,4.5,3.5,13,2c13.3,9.4,18.9,26.4,31,37C560.3,854.7,571,860,579,878z
		 M517,871c2.9,7.2-7.2,5.8-12,4C499.4,868,514.8,867,517,871z M655,867c10.5-6.2,5.7-27.7,10-40C657.7,836.4,658.4,853.7,655,867z
		 M108,862c4.2-2.9,0.2-11.4-7-5C88.5,861.6,107,856.8,108,862z M794,862c-1.8-5.5,0.9-16.1-2-22C790.1,849.2,790,855.2,794,862z
		 M512,852c9.6-3-2.8-12.5-3-16C505.3,832.4,505.8,855.2,512,852z M424,851c10.6,1.8,14.2-5.4,14-13
		C435.1,843.8,426.8,846.4,424,851z M451,851c-9.5-5.5-4-1.2,0-7C441.7,833.6,437.3,855.6,451,851z M808,851c6.8-7.9,14-15.4,18-26
		c6.6-8,8-24.4-4-28c5.2,9,3.3,31.8-7,25C818.1,831.8,802.4,838.2,808,851z M65,849c1.7,2,19.4-10.9,13-10
		C64.8,840.5,55.8,839.4,65,849z M47,847c0.7,3.2-13.6-2.6-8-5C43.9,843.6,50.2,841.6,47,847z M781,845c5.4-11.5,1.7-33.6,3-48
		c-4.3-24.5,10.2-19.6,5-8c2.3-14.6,14.9-20.5,19-32c1.3-9.9-0.7-43.7,7-18c14.4,9.8-1.3,21.9-4,33c-3.9,10.7,18.8-9,19-16
		c9.3-12.4,0.4-28.6,7-38c3.5-3.2,11.4-24.7,3-33c-5.8,11.1-10.7,24.6-18,33c6.5-7,7.5-44.6,2-15c3.3,13.1-21.9,6.7-23,22
		c-10.7,5.3,7.2,29.2-4,35c-7.5,12-17.6,25.9-13,4c2-16-2.7-42.1-3-10c-2.8,15.5,0.1,28.2,0,43C779.4,814.1,783.8,829.6,781,845z
		 M427,843c6,0.3,6.9-6.7,1-7C421.8,839.3,426.3,840.6,427,843z M666,843c4.2-5.7,8.9-15.1,7-20C671,823.6,665.2,835.5,666,843z
		 M802,831c8.6,9.9,1.2-9.7-3-14C786.6,805.9,802.8,825.8,802,831z M544,830c0.3-5.4-10.4-18.6-17-25C527,810.2,537.6,823.3,544,830
		z M707,825c10.8,1.9,9.4-15.9,1-14C697.2,812,699.6,823.9,707,825z M916,820c12.7-2.7,22.6-8.1,33-13c9.7-5.2,21.9-9.5,32-13
		c6.2-4,34.3-6.8,23-12c-25.1-1.9-10.4-8.4,6-5c14.3,0.6,27.7,3.7,39,6c12.9,2,27,4.3,40,5c12.5,2.4,26.8,4.5,39,6
		c12.6,2.3,27.7,3.7,39,6c13.4,1.9,25.6,5.1,39,7c28.8,3.7,8.2-3.5-5-4c-11.9-3-27.2-4.2-38-7c-12.2-2.7-28.1-3.3-39-6
		c-12.6-2.3-26.5-4.9-38-7c-13.5-1.4-28.3-3.1-40-5c-23-4.7-11.8-9,5-4c11.9,3,27.1,4.3,39,6c13.3,2,25.6,5.1,39,7
		c12.7,2.2,29.4,2,39,6c12.9,2,28.1,3.3,40,5c11,3.9,28.2,3.2,39,6c9.3,0.7,41.4,4.5,23-2c-12.5-2.4-27.4-4-40-5
		c-13.8-1.1-25.8-5.6-38-7c-14.2-0.7-27.4-4-40-5c-12.8-2.1-27.4-4-40-5c-11.8-3-25.8-5.6-38-7c-13.6-1.2-27-4.4-39-6
		c-14.5-3.7-27.2,3.4-38,5c-10.4,4.2-25.3,7.8-37,4c-19.2-2.6,16.8-6.7,21-8c10.7-4.1,25.4-5.9,36-9c13.8,1.1,27.9,3.5,40,5
		c14.7,0.6,27.2,3.4,40,6c13.2,1.7,27.9,3.5,39,6c14.1,0.8,27.2,4.2,40,5c11.8,3,28.7,2.7,39,6c12.4,2.5,26.8,4.5,39,6
		c9.4,1.5,42.7,4.2,18-1c-13.7-1.2-26.6-4.8-40-5c-14.4-0.4-25.1-6.3-39-6c-12.1-3.2-26.9-3.8-39-7c-13.1-1.8-27.2-4.2-39-6
		c-13.9-0.9-27.5-3.9-38-7c-11.1-6.6,17.6-9.2,20-15c9.1-5.5,26.9-5.8,26-17c11.9-2.2,23.7-13.3,28-7c12.1-2.8,21.5-9.9,33-12
		c10.3-4.6,23.1-8.3,32-13c10-5.3,21.7-8.9,32-14c9.6-5.3,23.9-7.5,32-13c-4.7,0-22.8,1.5-32,5c-11.5,3.4-23.4,8-34,11
		c-12.4,2.5-23.3,8.1-34,11c-11.7,3.2-20.6,10.8-31,14c-9,5.9-22.3,9.1-31,14c-9.9,5-24.2,7.1-34,11c-9.3,5.6-19.2,12.1-30,15
		c-9.1,7.2-25.8,4.3-39,4c-12.2,2.7-25.8,5.6-37,8c-8.1,4.6-31.9,3-26,15c12.1,4.2,23,7,36,7c-6.9,4.6-28.8,1.4-36,7
		c-10.3,4.6-23.8,7.6-33,12C913.7,807.5,935.6,809.3,916,820z M1197,817c22.6,1.1,3.7-4.5-7-3C1169.5,810.8,1187.9,816.8,1197,817z
		 M77,815c5.6,0,25.7-5.2,11-7C78.1,807,59.8,811.3,77,815z M686,804c1.7-15.7-9.8-32.4-3-45C670.8,772.9,677.7,792.2,686,804z
		 M1113,802c-7.3-5.6-31.5-4.7-45-9c-17.6-1.7-33.5-5.2-51-7c8.1,4.8,29.2,7,45,9C1078.1,798.3,1094.9,800.8,1113,802z M548,800
		c4.8-4.6,10.2-8.5,10-18C553.2,786.5,551.1,793.7,548,800z M543,796c9.7-3.9,13.4-15.4,16-25c2.7-9.4,6.6-22.2,4-34
		c-4.9,4.9-2.1,25.2-7,32C552,778.4,550.1,789.8,543,796z M534,794c21.1-3.3,2.9-22.2,0-31c-5.3-12-11.2-23.5-20-32
		c-13.7-11,3.1,21.7,6,25C529,764.3,529.9,780.7,534,794z M699,792c0.8-8.1,3.3-18.5,1-27C699.6,774,697.6,784.3,699,792z M720,789
		c5.2-10.5-1.1-19.5,2-30c-1.3-12.3,2-23.7,1-33c-1.5,6.8-3.1,19.9-3,31C717.7,768.5,720.1,779.4,720,789z M762,785
		c8.4-3.6,8.4-15.6,10-26C767.6,766.6,767.2,778.2,762,785z M408,781c4.6,6-8.8-3-13-3C391.7,770.7,405.2,779.6,408,781z M423,781
		c7.4-5.9,10.7-15.9,16-24c8.7-11.3,6.5-13.6,7-22c5.7-17.1,11.6-5.5,6,8c-2.5,10.4-6.3,21.1-10,29c0.1,7.8-20.7,18.5-21,3
		c-2.3-10.6-6.2-21.2-7-32c-4.8-14,6.8-19.1,9-29c6.7-10.5,20.5-8.8,7,0c-1.4,5-17.6,22.4-9,17c8.6-4.2,12.3-15.1,19-20
		c9.1,7.7-6.4,14.9-9,23c-2.8,7.9-13.6,17.6-11,24c5.5-7.9,11.1-15.5,16-24c2.4-6.2,17.3-22.7,11-8c-5.4,8-11,15.6-15,25
		C427.9,759.7,425.3,771.8,423,781z M602,780c3-11.3,1.7-33,2-42C596.7,746.2,601,769.1,602,780z M416,779c1.5,14-4.8,22.8-2,2
		c-1.8,1-5.8-16.4-7-25c-5.5-11.5-0.6-27.5,2-6C415.4,757.8,411,771.7,416,779z M745,776c7.8-7.1,19-12.3,22-23
		C760.8,761.7,746,763.4,745,776z M700,763c5.3-12.4,0.7-24.3,4-36c3.1-13.1,1.2-26.5,3-39c-5.6-13,1.4-23.4,0-36
		c-0.1-28.8-3.7-4.9-6,5c0,7.4-0.3,17.6,0,28c-1.6,13.1-2.4,26.9-4,40c-1.7,5.4-2.3,3.1-2-1c-2.2-1.6-1.9,17.9-1,24
		C702.2,734.3,695.5,753.4,700,763z M791,760c1.9-6.2,7.5-10.8,7-18C792.6,744.7,791,753.3,791,760z M786,738
		c5.4-16.6-3.2-34.6,0-48c-0.6-9,1.3-46.1-1-44c-0.6,18.1-2.3,35.1-4,52C784,718.1,782.3,726.1,786,738z M768,717c5-7,5-19,11-25
		c-2.6-8.4,3.8-31.9-1-25c-9.9,3.6-3.4,19.9-6,26C764.9,695.3,760,711.1,768,717z M907,716c2,13.3,1,35.6-3,11
		C900.5,715.2,897.3,697.1,907,716z M723,715c1.1-19.2,19.9-22,17-44c2.9-17.1,1.6-38.4,6-54c-9.3,11-6.7,35.2-11,50
		C733.8,685.8,724.1,696.1,723,715z M1339,710c11.7-4.7-16.4-4.3-22-6c-9.3-2.9-25.1-1.1-34-3c-11.2,4.2,15.6,5.1,22,6
		C1317.3,706.9,1329.3,708.8,1339,710z M1335,701c22.4-1.4-3-10.1-11-6C1303.1,698.5,1328.3,700.8,1335,701z M1279,700
		c8.7-4.6,22-4.7,32-8c7.6-5.6,29.6,1.6,32-4c-10.3-2.9-25.8-2.7-35,1C1297.7,692,1282.5,690.2,1279,700z M458,695
		c5-10.4,5.7-25,11-35c3.4-12,2.2-28.4,8-38c-10.6,4.7-5.8,24.8-13,33C461.3,667.7,455.6,677.3,458,695z M0,678
		c9.5,0.7,18.1-1.5,22-5C15.4,675.2,0.3,670.9,0,678z M17,671c18.1,0.9-7.9-5.9-10-7C-11.5,663.5,13.3,671.5,17,671z M1184,668
		c13.4-0.6,29.6,1.6,40-2c14.3-4.5,6-9.5,10-15c6.5-6.3,20.6-2.7,30-3c3.3-5.7-22.2-3.7-31-4c-15.1-1.1-25.4,2.6-38,4
		c-11.9,1.6-23.7,5.1-32,9c-7,0.9-30.8,10.4-17,10C1160.4,666.9,1171.6,666.2,1184,668z M637,664c5.1-5.2-31.4-4.8-36-13
		c-14.7-27.9,2.8,4,17,2c14.8,8,37.1,3,43-8c4.4-2.4-2.8,5.5-1,8C665.9,670,636.9,667.2,637,664z M624,663c-23.5,9-38.6-9.8-34-27
		c5.4-8.1-0.3,3.3,3,7C594.4,658.6,611.1,660.3,624,663z M593,661c-4.2,1.1-10.3-9.1-11-17C587.8,640.9,588.4,657.2,593,661z
		 M581,660c1.9,3.3-12.1-0.8-8-7C574.5,646.4,578.8,659.6,581,660z M814,656c-10.5,9.5-22.8-11.8-23-16
		C794.8,632.9,813,650.9,814,656z M716,654c0.7-5.5,7.2-17.9,1-20C714,635.2,716.8,649.9,716,654z M437,653c9-3.2,12.3-13.8,17-20
		c1.2-7.6,14.3-17.9,11-20c-7.9,6.6-19.1,6.4-14,17C447.7,638.9,440.5,645.6,437,653z M632,647c14.4,1.4,25.5-4,33-7
		c-3.4,6-16.7,11.1-27,12c-12.8-1.2-19.6-8.5-31-11c-10.6-19.7-6.3-2.3-4,1c-14.1-8.1,1.2-21.7,12-12c7.4,0.6,23.6,15.3,18,13
		c-8.1-3.7-20.6-11.1-28-10C609.3,642.3,626.5,640.2,632,647z M751,640c10.7-1.4,7.7-22.2,6-27C746.2,608.5,751.4,633.2,751,640z
		 M919,640c4.8-2.3-5.4-3.7-4-7c-2.4-0.5-0.4-10.8,0-7c0.2,18.5,4.9-7,4-10c1.5-6-5.3-7.6-3-10c-19.1-8,12.6,0.7,17-5
		c-18.1,0.9-42.3-9.2-36,16C880.3,638.7,911.7,627.2,919,640z M0,639c12.1-0.8,24.8-2.6,35-4c11.9-0.8,23.9-1.4,35-3
		c10.5-2.4,26.2-1.2,35-4c10.7-1.9,22.4-3,34-4c11.1-1.7,24-3.5,34-5c11.5-1.1,22.6-2.8,34-4c11.9-0.8,22.7-2.6,34-4
		c11.2-1.5,20.4-5,30-8c-13-0.1-25,2.4-36,3c-13-0.3-23.9,1.4-35,3c-14.7-1.8-24.2,3.3-36,3c-10.5,2.2-23.1,2.2-34,4
		c-11.7,1.2-25.1,2.3-35,4c-12,0.6-22.9,2.4-34,4c-11.4,1.2-23.7,1.6-34,4C18,631.7-3.5,622.9,0,639z M572,630
		c9.8-3.4,4.7-18.8,3-29C572.2,599.2,573.2,625.1,572,630z M579,628c6.9-14.5,21.7-11.3,5-29c-0.9-15.2,5.5-31.6,3-50
		c-11.6,19.3-1,12.7-7,31C572.5,595.1,581,614.4,579,628z M607,622c-15.5,18.9-9.6-37.8-7-27c-1.1,2.2,0.1,9.7,1,13
		C621.2,627.1,591.5,612.4,607,622z M770,620c1.2,2.9,0,27.8-2,17C764.6,633.2,766.9,612.5,770,620z M1338,618c15.7-4.1-16-4.5-19-6
		C1307.6,611.8,1333.9,617.6,1338,618z M1312,608c9.1-4.3,25.8-0.8,32-8C1332,601.3,1318.3,601,1312,608z M678,606
		c1.4,6-8.4,7.6-6-1C670,595.3,677.6,601.7,678,606z M1084,602c26.2,0.9,35.2-6.2,4-3c-5.5,0.8-7.5-1.8-13-1
		C1046.2,598.1,1074.7,602.6,1084,602z M885,599c14.1-2.6,5.1-15.3,1-30c-4.1-13.5-8.3-28.3-11-42c-4.4-21.3-3.3,24.8,0,29
		C874.8,573.8,886.6,581.1,885,599z M916,599c15.4,1.4,25.1-4.8,3-3C906.1,589.8,900.2,596.3,916,599z M0,594
		c12.2-1.1,24.1-2.6,36-4c11.4-1,26.3-1.9,34-4c-12-2.2-26-0.4-38,0C22.6,589.9,3.9,584.5,0,594z M914,594c39.9-1.2-6.6-1.1-6-8
		c3.3,1.3,6.1,3.2,11,3c28.3-1.3-7.1-1.9-11-4c-10.9-14.1-0.6-4.4,21-6c-13.6,0.6-26-4.4-26-21c-5.9-12.1-13.8-22.2-19-35
		c-5.6-20.7-15.1-21.7-5,0c2.1,15.5,9.8,26.8,11,42C895.1,577.5,898.6,593,914,594z M1058,594c13-1.9,28.3-3.1,38-7
		C1083.2,589.1,1065.1,587.5,1058,594z M371,591c19.2-0.5,38.3-2.3,53-6C405.2,585.8,386.7,588.3,371,591z M619,591
		c-1.2,3.4-8.3-17.4-13-7C609.2,571,620.6,580.1,619,591z M911,584c6,0.7,30.7-0.2,15-2C917.4,583.9,899.9,577.5,911,584z M782,580
		c-8.1-0.4-13.8-14.6-21-21C774.2,563.6,776.4,566.2,782,580z M628,578c-3.5-3.4-6,13.9-8,6C613.5,576.8,622.9,572.8,628,578z
		 M446,577c2.1-16.6-3-7.1,13-4C457.3,565.5,435.6,560.5,446,577z M732,577c6.8,1.5,7.9-7.2,3-9C733.9,563.3,729.3,574.9,732,577z
		 M1289,573c19.5-2.1,46.5,1.9,55-10c-17.9-3.4-29-13.6-54-10c-18.6-2.7-43.2,0.5-62-2c-21.9,0.6-42-0.7-62-2
		c-22.4,1.1-40.9-1.7-63-1c-5.3,0-10.7,0-16,0c-22.8,8.6-13.2-31.4-20-2c-16.2,6.2-37.1,4.9-58,4c-22.7,1.3-37.8-4.9-60-4
		c-38.2,3.4,22.9,4.3,29,6c18.5,2.8,40.6,2,61,3c19.9-3.2,35.9-4.8,59-3c21.3,0,40.8,1.9,63,1c20.6,0.7,39.8,2.9,62,2
		c20.1,1.2,42,0.6,62,2c24.7-3.4,37.1,5.6,57,7C1328.2,568.4,1305.4,568.7,1289,573z M627,566c-0.5-3.7,10.1-7.7,4-8
		C624.7,555.7,621,565,627,566z M1100,566c10.7,0.2,26.6,0.1,31-2C1122.8,563.1,1106.7,563.7,1100,566z M170,561
		c12.1-1.2,26.1-0.6,36-4C194.6,558.9,179.4,557,170,561z M685,557c0.7,13.9-11.3,15.9-10-4C671.6,539.7,679.2,544.6,685,557z
		 M511,553c2.7-13.3-12-32.2-8-37c12.7,25,7.2-1.4,0-12c-4.6-28.3-16.7-4.2-8,11C497.9,530.1,505.1,540.9,511,553z M545,533
		c6.7-18.3-7.3-33.7-10-49c9.5-5.9,20-33.4,10-42c5.2,23-12.5,46.2-18,21c-2.8-7.1-1.2-3.7,4-2c5.8-2.8-22.7-11.9,2-18
		c7.3-19.2,29.9,3.4,38,9c11.8,5.5,16.5,33.6,33,23c4.8-14.4,19.5-31,13-46c23.2,10.9,16.1-47.7,20-14c-1.3,5-3.5,9.1-3,12
		c-16.9,6.8-18.2,4.2-4,18c-4.3,39.3,6.8-26,10,2c-4.6,5.9,2.1,7.9,3,8c31.5,2.3,1,1.6,0-12c-1-6.3,4-6.7,6-10
		c21.1-15.7-5.3,5.2,3,13c6.9,15,35.3,9.6,40,9c15.7-5.6-3.3-33.8-10-8c-14.2,8.3-42.7-3.8-22-18c8.8-12.5,9.6-33.1,13-51
		c-4.8-16.9-5.9-38.6-15-50c-5.2-11.2-10.3-40.5-14-40c4.8,0.6,8.5,4.6,9,8c10.6,0.9-10.6-14.8-17-17c-9.7-11.6-23.9-18.8-40-24
		c-16.4-9.4-39.5,0.4-49,8c-12.5,8.8-22.8,19.8-29,35c-7.3,14.3-13,31.6-17,48c-5.7,15.6-7.9,34.8-14,50c-4.9,16.8-15.9,28.7-18,47
		c-3,18.3-11.9,30.7-14,50c-1.1,4.3-2.9,10.2-3,14c-5.9,20.7-0.4,26.2,3,3c3-18.3,7.8-34.9,23-41c9.7-3.8,36.5-25.4,41-4
		c11.7,26.3-18.2-1-34,4c12,2.3,29.3,11.3,40,20C535.8,499.6,542.8,513.9,545,533z M571,532c6.4-1.8-0.1-11.7,0-16
		C568.1,514.2,571.8,527,571,532z M746,525c8.8-5.4,19-11,23-20C762.1,512.3,749.3,515.4,746,525z M620,523c-4.6,17.5-6.7-34.3-5-42
		C622.4,463.1,613.8,511.2,620,523z M816,516c12.5-8.4,23.6-19.6,31-32C836,494,827,507.2,816,516z M722,515
		c15.3-11.8,3.3-30.2,6-48c-1.9-11.5-7.3-49.1-15-30c-11.4,13-10,27.7-1,43C717.1,489,726.9,511,722,515z M801,510
		c10.3-8.4,20.4-17,28-28C818.1,489.7,809.3,499.6,801,510z M879,504c6.5,0.6,14.6-5.4,10-10C885,491.1,884.5,502.4,879,504z
		 M773,502c4.5-17.1,14.3-30.3,24-41c9-2,23.7-40.8,22-23c-8.7,7.9,20,47.6,6,19c1.9,7.4,45.4-12.3,16-8c-13.6,36-23.6-28.4-14-3
		c1.8,3.5,7.4,6.4,7-1c-14-19.7,10.4,5.1,19-3c1.5-7.5,16.2-22.7,24-3c10.9,6.2,29.2,33.3,20,2c16.2,13.1,36.4-5.4,50,1
		c10.9-19.4,26.7-11.1,33-3c8.3,11.3,45.1-9.7,19-4c-18.5,14.4-17.3-32-37-11c-9.3,15.8-30.5,8.6-42,17c-13-7.3-38.8,1.2-43-17
		c-23.4-21.3-27.1,21.9-37,12c-16.7-4.6-28.2-14.5-34-30c-24.3-7-2.8-25.8-6-43c7.4-16.2,11.6-39.8-6-45c-0.1-18.5-3.4-39.8-13-50
		c-10.1-11.3-21.8-20.9-40-24c-20.6-2.7-36.3,7.3-49,14c-12.8,8.5-22.7,20-29,35c-6.9,21.1,4,38.5,8,53c7.3,14,3,39.7,12,52
		c10.8,10.8,21.4,23.2,37,28c14.1,8,40.8,6.9,49-5c10-6.6,28.1-34.9,23-6c-2.7,2.7-5.3,5.3-8,8c-11.5,3.5,5-17.5-14,2
		c1.8,14.9-55.6,6.1-32,13c18.5-2.8,45.4,2.8,52-12c28.1-9.6-9.3,15.8,0,33C785.3,473.7,770.5,485.6,773,502z M575,500
		c-11.8-20.7,33.5-6.1,23-12c-17.5,5.4-32.5-12.3-12-8c-8.5-0.5-13.6-31.2-16-19C575.8,471.4,572,485.6,575,500z M860,499
		c5.4-6.8,12.2-13.9,15-22C869.2,483.3,863,491.2,860,499z M694,498c26.8,3.6,15.2-17.5,10-27C694.8,455.5,713.4,505.1,694,498z
		 M689,495c7.4-2.9,5.5-18.8,6-26C692,479.1,690.7,485,689,495z M760,494c9.8-2.2,4.9-10.1,6-20C761.6,470.9,762.2,498.7,760,494z
		 M541,489c13.8,0,7.1-26.7,21-14c10,19.2,3.6-7.6-5-9c1-20-5.6-27.8-4-3C552.3,474,542.4,484.8,541,489z M453,487
		c-3.7-13.6,6.5-20.2-1-17c-9.1-14.5-6.4-0.1-24-2c-13.4-0.1-27-0.4-39,1c-13.3,0-26.7,0-40,0c-14.3-1-25.1,1.5-39,1
		c-13.6,0-25.1,2.3-36-2c-16-5.8-12.6-9.2,5-5c9.5,8.7,18.5,2,29,0c10.6,3.2,21.5-1.2,31,1c11.7,2,25-0.1,37-1
		c8.1-3.7,19.9-0.5,29-3c12.7,3.4,22.2-3.8,33-4c14-10.3,8.4,18.1,14,6c-2.7-20.3,14-6.4,6-22c14.4-13.1-0.8-7-6,2
		c-4,8.9-17.8,9.6-28,11c-11.6,2.8-24.4,0.8-34,2c-8.2,0.9-19.7,6.2-33,5c-12.7,0.6-22.1-4.9-32-2c-13.4-1.7-27.4,2.2-35,2
		c-11.3-3.5-23.3-3.1-34,0c-9.2-6.1-25.5,2.5-31-7c-2.5,9.9-17.4,12.1-27,9c-5.5-7.3-25.5-7.1-25,4c-10.8-6.3-21.2,0.4-31-5
		c-9.6,0.8-20.7,13.2-28,2c-7.1-13.2-9.6,7.4-25,3c-13.9,1.2-20.3-8.4-32-3c-5.4,3.3,15.4,7.6,25,7c10.6,5.9,24.8-2.6,33,1
		c7.5,4.7-20.7,2.4-29,3c-13.1,0.2-27.6,0.1-37-2c-2.2-11.2-2.4-24.2-2-38c3.7-15.5-3.7-16.4-2-34c0.5-13.9-2-24.7-1-39
		c-0.4-13-1.7-25-1-39c1-14.3-1.8-24.8-1-39c-3-16.3,1.6-25,19-21c25-2.8-1.5-3.8-13-3c-8.1-4.7-8.9-18.6-11-28
		c-5-17.1-2.9,16.1,1,19c1.9,11.9-0.9,24.5,0,36c0.5,12.8-1.1,27.7,1,39c0,12.9,0,27.4,0,39c0.4,13.8,1.1,25.9,0,36
		c1.4,11.9,3.5,23.1,4,36c-3.4,11.6,2.4,25.1-1,37c-7.4,5.8-4.6-19.9-9-24c-4-10.1-10-25.5-5-3c-1.7,11.7-11,15.7-17,23
		c-26.9,0.6,4.3,10.4,9,1c9.9,7.3-21,2.8-20,11c13.5,0.1,24.8-1.9,39-1c13.4,0.1,27,0.4,39-1c13.3,0,26.7,0,40,0
		c13,0.1,25.5-1.9,38-1c11.3-2.1,26.2-0.5,39-1c11.5-1.8,25.9-0.7,39-1c13.3,0,26.7,0,40,0c12.6-0.5,22.7-1,36-1
		c12.7-0.6,27.8,1.1,39-1c13.3,0,26.7,0,40,0c13.5,0.1,24.8-1.9,39-1C442.8,471.1,455.8,472.7,453,487z M868,473
		c-1.7-9-14-14.9-28-13C849.2,461.5,862,467,868,473z M142,471c21.6-1.2,37.1-0.7,61-1c18.1-4.5,38.5-13,51,0c-21.8,1.5-45.7,1-69,1
		C172.4,472.4,118.9,473.9,142,471z M782,467c6.6-3.5,2.6-19.6,5-26C782.6,446.8,783.7,459.9,782,467z M655,466c14.1,0.3,4-6.8-4-6
		C638.4,458.2,648.8,465,655,466z M819,466c-1.9-1.6-1.3-14.8-5-16C811,456.4,816.9,463,819,466z M903,465c20.6-0.1,37.4-1.8,61-1
		c20.2-1.2,41-1.7,62-2c21.6,0.3,40.7-2,63-1c19.6-1.3,42.1-1.1,62-1c20-1.3,41.6-1.1,63-1c17.6-0.5,39.6-1.4,61-1
		c20.3-1,41.3-1.3,63-1c23-17.8-22.3-22.6-12-11c-3.2,9.3-30.4,5.8-49,7c-20.8-1.5-45.8,3.6-55-1c-19.4,5.9-34.2-2.6-48,2
		c-18.9,2.1-42.7,0.5-62,1c-19.4,1.9-42,0.7-63,1c-23.4,0.5-32.7-1-54,2c-20.5,1-36.8-0.1-55,1C926.5,459.4,880.1,455.6,903,465z
		 M589,457c8.8-5.1,7.2-10.3,13-19C592.1,422.3,591.7,450.8,589,457z M1016,454c6.6-6.8,21,4.4,17-4C1030,441,1014.8,446,1016,454z
		 M296,452c8.5-0.4,23,1.2,26-2C315.5,449.9,302.3,448.8,296,452z M478,443c9.9-7.7,13.7-23,23-30c4-1.9-10.1,19.1-14,26
		c-6.4,1.6-23.1,33.8-16,15C472.6,443.9,485.1,414,478,443z M805,443c1.1-15,13.8-19.9,5-4c-4.5,9-12.2,16.6-18,23
		c-2-0.2,9.6-15.5,8-25C806.6,413,803.6,434.4,805,443z M1149,441c19.3,2.8,19.5-15.1,38-7c12.9,5.2,17.8-12.6,34-10
		c13.8-2.9,29.8-1.8,44,0c16.4-5.6,22.5,7.1,31,1c-2.6,9.9,5.7,4.2,18,6c15.7,2.8,19.9-22.2,23-11c-3-13.5-19.3,7.6-22,6
		c-11.4-3.9-23.2-10.9-36-8c-11.6,3.7-29.7-2.7-45,0c-13.6-1.9-27.2,4-38,8c-11,7.3-28.6-7.2-34,8c-15.5,9.7-25.2-11.5-29-3
		c-15.6,8.2-25-7.2-39-3c-1.3-11.6-20-11.7-5-5c-2.6,18.8,16.6,2.2,25,15C1133.8,443.2,1135.4,430.9,1149,441z M672,440
		c1.2-7.5-1.9-19.4-3-26C666.9,422.5,669.3,434.9,672,440z M1019,440c13.5-1.1,2.6-23.2,16-9c4.9,5.5,22.1,14.1,23,0
		c0.7-0.8,14.9,4.7,21,6c9.9-7.8,7.3-16.8-1-3c-5.4-7.4-19.3-8.2-17-22c-7.3-2.2-4.4,21.2-14,21c1.5-8-17.2-6.7-18-17
		C1024.4,416.2,1017.6,428.2,1019,440z M54,437c1.7-6.4,6.9-17.7,1-23C47.3,415.9,57.6,427.3,54,437z M560,437
		c0.7-3.4-0.1-14.7-3-16C553.5,427.3,558.4,434.1,560,437z M26,431c1.3-4.5,7.6-13.7,0-16C18.3,415.8,30.7,421.3,26,431z M840,431
		c11.5,5.4-3-20.6-13-15C822.8,433.5,833.7,417.6,840,431z M610,424c1.6,21.4-4.8,43.2-14,48c-9.8-13.2-20.8-26.4-36-33
		c-16.1-5.6-0.5-47.6,4-36C573.1,415.8,590.5,425.9,610,424z M691,417c2.3-4.4-15-8.8-18-16C668.6,407.5,683.3,414.5,691,417z
		 M741,413c4.7,13.4-5.8,9.1-8,3C724.2,411.7,736.4,407,741,413z M706,412c-15.5-4.6,1.3-7,12-9C739.4,402.8,704.7,405,706,412z
		 M651,407c1.6,5.8-11.9,32.4-9,20C646.2,423,648.4,387.6,651,407z M719,397c14.2-7.1,36.2-6.5,46-18c-0.9,11.2-19.7,25.2-30,24
		c-10.6-10.1-43.5,6.1-49-11c1.2-3.4-1-2.5-1-9c-1.7-24.2,5.1-0.2,8-16c6.7-0.3-3,1-1,7c-2.3,20.4,13.6-9.6,14-10
		c4.2-2.2,5.7-1.1,11-3c-10.5,14-1,11.3,7-3c7.3-4.5,14.6,32.9-2,34c-3.7,2.6-8.9-1-13-1C681.9,393.4,705.4,395.2,719,397z M657,392
		c3.9,18-5,37.5-2,8C650.8,382.9,659.7,360.9,657,392z M501,390c0,7.7-20.3,35.1-16,25c5.7-13.6,10.6-28.1,15-43
		c2.2-17.1,11.7-27,18-40c2.6-7.8-1-4.9-2-1c-5.3-1.5,8.8-34.8,4-13c4.5,19.9-9.4,30.5-13,44c-9.7,18.5-5.2,34.5,2,6
		c2.4-7.1,21.4-41.5,11-15C514.7,365.9,509,382.6,501,390z M697,390c2.7-1.3,7.3,0.4,10-1c28,2.3-7.8-5.7-1-5
		C736.8,377.2,687.2,374.2,697,390z M689,349c13.4,2.5,40.7-8,31-10C716.2,344.2,679.4,343.4,689,349z M797,345c1,18.8-4.1-4.9-2-10
		C793.6,319.5,804.1,343.3,797,345z M590,344c17.3-12.6-17.3-12.6-20-4c5.7-5.8,19.3-11,19-24c7.1-7.8,12.4-19,22-23
		c15.9-8.7,19.4,10.1,24,17c-2.4,7.7-9.2,6.3-19,17c-3.7,12.3,4,24-18,21c-8,0.1-37.1,7.7-30,1C572.5,346.4,597.9,330.8,590,344z
		 M737,343c3-10.3,11.3-15.4,22-18c21.3-1.1,12.6,4.7,0,7c-11.5-2.3-25.8,15.5-8,6c12.9,4.2,25.4-10.1,28-3c9.9,3.6-27.6,4.3-1,7
		c16-1.5-2.2-18.2-2-23c-2.6-11.7-20-0.5-26,2C741.7,323.3,729.7,332.5,737,343z M622,341c7.2-11.9,27.9,8.8,19-12
		c10.6,5-0.2,21.2-15,16c-15.7-4.2-0.7-22.3,8-21C649.8,326.5,618.2,331.5,622,341z M786,339c1.5,9.8-17.2,5.8-27,7
		c-11.3,1.9-23.1-0.2-32,1c-11.7,0.3-16,8-26,10c-7.1,1-20.5,10.5-24,5c1.3-9.1-1-19.2-1-29c1.1-6.1,12.1-20.8,6-21
		c-8-4.2,2.2-14.6,8-18c11.5-15.1-0.6,5.8,3,12c-6.5,3.5-8.4,18.9-10,22c4.1-7.4,10.7-14.1,14-21c-2.1,4.2-10.4,28.4-1,15
		c2.6-8.9,6.7-18.1,12-23c6.4-5.6,14.6-9.4,25-11c12.4-0.9,17.5,7.3,29,6c10.1,1.9,9.5,14.5,18,18C784.1,318.2,787.4,331.6,786,339z
		 M684,338c10-5.9,40.1,3.1,39-4C712.6,332.7,686.2,323.2,684,338z M641,300c1,1.4-10.8-17.9-18-22C623,275.6,641.1,288.5,641,300z
		 M25,261c20.7-0.2-3.5-5.5-8-5C-2.4,258.8,19.6,259.6,25,261z M0,2c14.2,0,30.1,0,43,0c14,0,28,0,42,0s28,0,42,0s28,0,42,0
		s28,0,42,0s28,0,42,0s28,0,42,0s28,0,42,0s28,0,42,0s28,0,42,0s28,0,42,0s28,0,42,0c14,0,28,0,42,0s28,0,42,0s28,0,42,0s28,0,42,0
		c14.2,0,30.1,0,43,0c14,0,28,0,42,0s28,0,42,0s28,0,42,0s28,0,42,0s28,0,42,0s28,0,42,0s28,0,42,0c14,0,28,0,42,0s28,0,42,0
		s28,0,42,0s28,0,42,0s28,0,42,0s28,0,42,0s28,0,42,0c13.1-0.9,29.5,1.5,40-2c-14.2,0-30.1,0-43,0c-14,0-28,0-42,0s-28,0-42,0
		s-28,0-42,0s-28,0-42,0s-28,0-42,0s-28,0-42,0s-28,0-42,0c-14,0-28,0-42,0s-28,0-42,0s-28,0-42,0s-28,0-42,0s-28,0-42,0s-28,0-42,0
		s-28,0-42,0s-28,0-42,0c-14.2,0-30.1,0-43,0c-14,0-28,0-42,0s-28,0-42,0s-28,0-42,0c-14,0-28,0-42,0s-28,0-42,0s-28,0-42,0
		s-28,0-42,0s-28,0-42,0s-28,0-42,0s-28,0-42,0s-28,0-42,0s-28,0-42,0S96,0,82,0S54,0,40,0C26.9,0.9,10.5-1.5,0,2z"/>
</g>
</svg>
