<?xml version="1.0" encoding="utf-8"?>
<!-- Generator: Adobe Illustrator 25.3.1, SVG Export Plug-In . SVG Version: 6.00 Build 0)  -->
<svg version="1.1" id="Layer_1" xmlns="http://www.w3.org/2000/svg" xmlns:xlink="http://www.w3.org/1999/xlink" x="0px" y="0px"
	 viewBox="0 0 1344 896" style="enable-background:new 0 0 1344 896;" xml:space="preserve">
<style type="text/css">
	.st0{fill:none;}
</style>
<g id="layer0">
	<path class="st0" d="M0,896c15.7-0.6,55.1,0.4,73,0c11.3-2.2,32.8,4,37-4c4.4,14.8,22-7.5,18-2c4.7,19.7,14.6-13-4-7
		c-6.5-11.5-16.6-12,1-13c-9,0.9-4-10.4-24-5c-8.3,3.3-23.2-2.8-34,0c-24.8-0.6-3.8-9.5-17-10c20.7-4.5,1-13.9,0-12
		c-31.5-10.8,19.4-17.2,26-23c-18.3-9.4-45.6,5.6-68,3c-15.6-2.1-4.1,24.6-8,33C0,869.3,0,882.7,0,896z M140,896
		c30.3-1.5,7.2-18.4-5-16C108,876.9,157.8,881.2,140,896z M157,896c2.5-7.8,28.9-4.9,7-8C160.2,873.9,157.7,886.8,157,896z M404,896
		c16.5-11.7,11.8,5.1,23-7C415.3,883.2,413.6,884.5,404,896z M430,896c7.1,2.1,6.6-12.1,6-12C430.9,878.3,430.5,891.2,430,896z
		 M442,896c34.2,11,7.4-59.2,31-42c2.6,7-6.3,5.4-6,3c-8.7-1.7,21.2,13.5,9,3c-4.9-17,13.1,9.1,21,3c-1.9-2.1-8.2,1.4-11,0
		c-15.4,7.4,20.6-5.2,12,8c6.5,13.2-15.3,24.8-15,21c8.8-0.2,9.3,6.8,25,0c-1.3-4.2,3.1-7.2,1-9c8,1.7,5.1-12.1,10,4
		c-3.2,14,18.5,7.2,34,9c11.8,0.1,31.2,0,46,0c14-2.2,37.9,3.9,45-4c4.1-26.4,11.1-53.5,19-78c7.2-45-0.3-88.5,6-133
		c5.9-0.4,1.1,29.8,6,37c0.8,11.9,8,30.4,1,41c-9.3,12.3-4.5,32.4,1,8c8.2-8.5,6.1-25.8,5-41c0.8-15-8.3-17,6-29
		c0.9-26.3,13.9-51.1,16-77c4.4-21.2,11.6-11.6,17-15c16.9,2.7,16.5,1.7,8,19c-7.8,2.3-5.9,101.4-3,52c0.9-15.7-4-32.1,3-43
		c7-10.6,7-26.3,23-22c18.9,0.3,8,17.3,13,31c3.6,25.9-0.2,6.7-9,22c-6.7,7.2,4.3,39.3,5,25c-6.7-18.9,9.9-23.3,17-30
		c12.8-25.2-14.8,14.8-9-3c1.6-7.3,0.2-38.5,8-33c-1.2,8.8-9.8,40.7,0,18c0.5-27.1,10.2-16.2,3,2c3.3,3.5,5-2.1,5-5
		c-0.2-18.1,5.9,8.9,5,15c-8.2,9.8,29.6,0.7,15,12c-5.3,19.1,1.7-23.9-10,4c3.2,17.6-11,26.4-5,40c1.6,13.6,9,35.2,6,6
		c-8.6-14.1,2-24.2,5-36c-5-9.4,26.1-15.6,19-1c-5.8,22.1-12.7-25-15,8c6.3-9,11.9,18.1,19-1c6.4-26.9,1.7,15.8-3,10
		c7.5-5.9,26.8-13.8,18-18c41.1,15.3,0.4,27.2,0,55c7.2-5.7,9.4-23.5,18-29c11.4,19.9,0.5-26.4,8-12c11.6,24.7-4.9,54.3-14,75
		c-2.1,12.1-15.5,22.1-14,31c7.3,12.4-6.4,27.9,10,10c4.5-11.8,8.2-25.8,14-35c9.7-23.4,11.2-57.7,8-81c8.2,7.8,3.4,28.6,8,40
		c7.5,24.8,4.6,52.2,13,78c7,28.7-6.9,6-7-6c-4-12-3.1-28.9-5-43c-1.8-30.4-6.2-8.6-2,7c0.7,13.3,2.7,33.6-1,45
		c-2.9-12.2-2.9-34.3,0-45c-6.3,3-7.7,22.1-9,35c-2.4,13.8-6.8,27.2-11,38c-5.6,10.4-11.1,20.9-16,32c-0.4,12.3-20.6,29.6,7,24
		c51.7-2.6,48.1,15.1,56-41c5.1-45.2,9.9-89.3,11-134c-1.7-35.8,24.3-14,22-75c15.1-2.9,3.6-26.9,5-38c-0.6-29.8-11.4-53.1-15-82
		c-5.3-24.2-12.2-50.2-33-64c-5.2-4.3-28.4-15.7-28-8c14.1-0.9,19.1,15.5,25,14c1.2,14.8,7.7,24.3,13,35c-0.2,4.3-0.1,10.6,2,11
		c0.6,18.7,3.2-23.6,7,3c16,34.3,29,78.1,24,117c-11.6,6.9,12-33.6-11-24c-2.7-5.1,5.1,34.1-4,12c-1.6,6.2,1.2,10.6,4.1,14.8
		c4,5.8,8.4,11.2,1.9,20.2c-20.4-6.3-14.8-2.7-6,12c12.1,9.5,3.8,24.3-6,29c-10.4,12.9-22.2-3.8-32-6c-39-12-55.2-38.7-86-60
		c-1.1-8.1-19.6-17.3-18-20c19.8,6.4,15-26.4,9-8c-19.8,16.6-54.7-7.1-78-7c-13.4,1-30.2,10-34-6c-2.6-8.9-20.5-22.9-9-30
		c9.5,6.5,11.8,20.2,16,32c-0.2-1.4,13.3-16.8,28-13c4.8-2.9,22-25.5,12-20c-6.2,10.1-22.2,23.4-15-2c8.4-0.3,19.9-31.7,5-15
		c-7.5,2.4-13.6,34.9-18,13c-7.6-4.3-14-17.2-17-29c-19.1-19.2-2.6,12.5-9,18c-6.1-16.1-13.7-17.5-11,5c-22.9,15.8,3.7-10.2-13-4
		c-6.6-11.8-2.8,20.9,0,28c-2,15.1,11.5-3.9,21,12c-1.9,9.1-24.7-1.6-28-8c-8.7-7.6-26.1-7.9-32-17c0.8-8.7-17.5-34.2,4-26
		c10.2,2,37.5-12.3,29-4c1,30.7-0.8,4.2,8-4c10.1-2.8,16.1-24.3,29-14c15.6,3.4,11.2,17.8,12,28c-2.3-14.3,26.1-31.2,33-20
		c16,12.8-3.6,0.9,6,10c7.4,8.8,19.5,14.5,27,22c4.3,3.2-16.9-9.6-28-8c3.4,9.5,28.4,4.4,31,16c6,10,16,16,20,28
		c-0.3,19.2,9.2-18.6,24-1c13.4,1.7,11.6,21.8,26,20c5.2,1.8-2.5-4.1-3-4c-12.4-8.1,10.9,1.3,14,4c6.8,6.2,28.4,9.8,25,17
		c8.8,3.3,34,12.1,30-7c3.8,2-13.4,15.6-21-1c1.3-13.4-7.4-21.5-14-31c0-16,1.5-30.5,4-44c0.2-12.4,13-27.4,9-34
		c3.5-8.2,10.9-20.3,17-29c8.9-21.4-12.8,4-13,10c-15.2,19.1-20.2,48.5-23,74c-5.7,8.1,5.2,40.4-2,26c-9.1-28.3-0.3-50.9,5-78
		c-4.6,8.3-11.2,21.7-12,35c2.6,17.8-1,30.5-5,5c-9,21.3,0.7-11.6-2-23c4.7-13.3,13.2-15.5,18-28c7.2-15.3-11.8,11.7-15,14
		c-29.9,21.8,10.6,69.3-23,38c-17.7-19.9,13.2,11,8-10c9.1-21.3-19.6-13.6-32-15c-15.3-0.7-41.4,4.4-10,2c8.9,3.1,37.2-3.9,39,8
		c-11.8,10.9-25.7-2.4-33-7c-15.8,9.4-25.4,1.3-33-4c-13.5,4.7-6.9,28.3-18,6c-19-23,31-29.2,16-57c-4.6-5,5.7-4.8,4-1
		c3.6,18.8,4.7-7.5,6-14c4.8-13,5.6,31.7,9,15c4.9-12.4,7.2-26.1,12-35c17.5-15-9.3-1.3-13,5c-8.5,7.7-16.3,17.7-25,24
		c-12,4-8.6,23.5-12,36c-2.1,23.8-16.2,3.4-28,9c-13.1,11.6-18.7-0.1-29-7c-20.6-2.6,2.8-12.1,4-23c19.2-15.5-3.5-4.7-11-1
		c2.3-13.9,23-11,30-19c10.4-12-15.3,5.8-24,4c-11.4,4.8-14.2,19.8-20,29c-5.6,21.4,1.1-33-8-12c0.1,12.7,7.4,36.7-6,39
		c-19,10.1-22.8-8.2-15-21c6-10.2,7.5-26.5,11-38c12.1,12.8,2.6-16.8-9,3c-12.8,3.4-21.4,12.6-33,16c20.2-7.7,18.1,15.5,10,24
		c-3.2,13-9.4,24.6-26,23c-7.9,8.9-23.4,8.7-36,8c-19.7-3.5-4.6,29.4-22,27c7.2-2.3-2.2-22.7,3-37c1.8-2.5-0.3-11.4,3-8
		c2.8,17.1,9.7,10.2,2-2c-4.4-9.9-8.8-26-15-29c-0.8,15.3,11,26.9,6,39c-3.8,11.3-7.9,27.2-3,39c-20.7,24.9-29.9,29.2-61,36
		c-12,4.2-21.7,12.3-28,21c-4,11.5,15.1-9.2,22-10c7.1-9.2,26.7-7.3,34-15c15.2-0.8,18.6-13.4,28-20c18.9-14.5,37.5-26.9,58-39
		c9.6-4,30.1-17.1,27,6c0.1,13,13,24.8,6,36c-11.1,6.7-16.4,19-8,31c-1.3,14.7-13.3,18.7-19,29c-1.9,2.9-6.4,5.5-4,1
		c7.2-16.6-4.7,1.9-6,8c-4.8,11.2-13.2,18.8-20,28c-16.7,17.2-34,31.3-56,41c-20.8,1.7-25.9,9.6-1,6c13.6,5.4-22.4,4.7-25,1
		c-16.8-17.4-34.5-30.9-42-55c-18.2-30-9.6-39.7,7-68c10-11.2-3.2-27.2,2-41c1.3-14.7,12-20,15-33c-105.8-2.6-214.9-7.3-321-11
		c-8.9,2-153.7-9.7-116,1c15.2,1.1,32.7,1.3,48,1c19.5,2.4,156.4,0.5,72,7c-18.6,3.9,24.1,0.7,29,0c62.4-4.2,124.9,3.3,187,3
		c15.6,4.5,86.8-4.2,89,8c-17.2,36,4,43.6-14,73c-21,23.3-12,43.6,0,69c-1.6,17,13.8,10-7,21c-9.9,20.4,8.8-8,19-4
		c0.4,4.9-20.5,8.5-21,21c-9.5,7.1-17.4,18.2-10,33c-6.8,13.8,20.1,31,3,23c-13.6-0.1-0.9-12-8-29c-10.8-15.5,19.5-31-2-20
		c-5.2,13,0.4,33-1,44c-2,11.8,6.2,14.7,3,31c3.2,8.5,1.6,40.4,8,33c-1.2-20-0.6-28.5,8-8c19.3,13.1,1.3-15.5-4-17
		c-17.7,4.3-2.5-36.7,0-14c-0.3,17.2,31.3,5.4,22,19c-5.5,17.2,8.1,23.1,22,24c2.5,13.6,12.3,0.1,3,22C452,874,447.8,885.8,442,896z
		 M462,896c7.8,2,7.9-3,4-6c17.8-0.4-14.4-8,12-5c-1.1,3.3,5.1,1,10,2c11.2,2.4-29.2-7.2-5-16c5-0.1,10.5-4.4,1-3
		c-18.2,15.3-2.8,3.8-16,1c-4.8-1.7,7.9-1.2,8-4C456.6,860.5,468.4,888.8,462,896z M664,896c11.3-6,13.3-33.6,26-29
		c-2.5,2.2-2,9.7-2,13c-16,20.4,11.3,14.1,0,11c-0.1-16.9,8.4-30.3,10-48c-4.2-18-1.1-29-5-49c0-32.5-11.2-11.1-3,8
		c-4.9,23.5,2.8,22.1,2,38c0.1,20.1-14.1,25.9-20,40c-4,3.5-2.4-8.5-5-8C656.4,862.2,663.4,884.5,664,896z M694,896
		c6.6-5.5,2.9-20.8,3-31C694.4,878.5,693.4,881.3,694,896z M718,896c6.9-34.1-8.9-89.1,20-108c13.8-89.5,45.9-49.4,43-76
		c-6.2,13.6-35.4,2.8-36,25c-5.4,16.3-10.1,34.4-14,51C708.7,798.3,720.6,870.9,718,896z M1228,896c36.8-1.6,70.8,9.7,95-24
		c10.4-9.6,26.8-13.2,21-39c6-39.5-9-31.9-28-16c-23.5,7.6,11.6,7.7,18,7C1301.9,852.1,1260,869.1,1228,896z M1311,896
		c25.5,5.2,41.7-0.3,33-28C1331.1,875.4,1319.7,885.6,1311,896z M615,889c31-6.5,8.2,5.6-8,2c-28.6,7.5-45.3-21.7-67-33
		c-31.2-5.9-2.3,5.8,5,10c23.4,12-11.3,1.5-17-3c-11.3-5.7-25.1-10.3-37-14c-15.7-1.7-24.6-10.1-38-14c-15.2-1-24.8-13.9-15-28
		c2-15.3,10.6-24.1,17-35c4.3-12.6,7.8-27.5,13-38c6.3-5.7,31.1,7.8,35-9c6.3-12.3,25,3.7,27,12c13,17.6,5-15.8-7-15
		c-9.8-18.1,12.5-12.5,15-24c2.5,11.5,3.8,29.7,6,44c6.8,6,1.1,44.3,8,27c6.5-12.6-0.9-33.3,2-42c-3-12.2-6.7-31.5-3-45
		c9.1-7,10.3-27.4,30-18c15,1.9,35,0.3,49,2c10,0.7,41.2,8.7,38-10c1.3-35.1,3.7,10.6,1,18c-5.3-1.3-3.6,6.9-6,7
		c0.1,28.1-1.9,3.5-1-8c-14.3-4.8-8.9-1.4-10,17c-0.4,8.6-18.9,98.5-7,66c3.9-6.8,5.8-40.9,11-29c3.5-30.9,6-19.1,4,3
		c1.9,32.2,0.7,63-6,93c-2.3,15-5.9,28.7-10,42C644.1,884,623.9,882.3,615,889z M595,887c4.1-8.2,5.1-21.6,4-32
		c-1.4-22.5-0.3-48.8-5-71c-2.2-10-5.2-20.9-8-29c-3-7.3-13-21.6,2-22c46.4-4.9,42.3-40.5,35,46c-0.9,10.9-18.5,103.8-17,53
		c-4.5,9.7,0.4,23.2-1,34c-4.4,10.6-3.1,28.3,5,11c0.3-11.9,3.2-22.9,6-31c12.3-44.1,21.9-80.2,19-128c2.5-10.1-1-26.4,3-35
		c-0.7-14-8.9,4.9-5,14c-0.9,16.3-0.1,19.7-12,20c-9.3,3.4-17.2,8.1-27,11c-46.2,2.3,6.6,34.2-1,110c0.5,22.6-5.4-6.5-7-11
		c-3-5.9-8.6-8-12-19c-3.8-5.8-11.8-26.4-8-4c2.6,9.5,7.6,18.6,11,26C587.2,844.8,587.6,871.5,595,887z M427,886
		c6.8-8.9-7.8-26-1-21c8.9,10.4,28,1.4,10-4c-9.1-21-9.8,5.5-13-3C417.6,869.3,425.9,875.7,427,886z M168,885c7.3-0.9,6-4.4,0-6
		C160.2,874.5,164.7,883.8,168,885z M481,882c11.2,0.4,7.6-5.5,11-6C494.9,869.6,469.9,873.6,481,882z M111,880
		c-5.4-20.9-17.6,12.5-14-5C60.9,872.7,111.1,865.2,111,880z M579,878c-3.4-31.4-29.3-62.9-52-82c-10.6-12.1-17.1-28.3-23-45
		c-14.1-29.1-5.9,20.8-1,28c13,6.6-1.2,52.4,9,37c1.1-4.3,2.9-10.2,3-14c-3-27.3,4.5,3.5,13,2C552.4,827.1,559.8,847.4,579,878z
		 M517,871c2.9,7.2-7.2,5.8-12,4C499.4,868,514.8,867,517,871z M655,867c10.5-6.2,5.7-27.7,10-40C657.7,836.4,658.4,853.7,655,867z
		 M108,862c4.2-2.9,0.2-11.4-7-5C88.5,861.6,107,856.8,108,862z M794,862c-1.8-5.5,0.9-16.1-2-22C790.1,849.2,790,855.2,794,862z
		 M512,852c9.6-3-2.8-12.5-3-16C505.3,832.4,505.8,855.2,512,852z M424,851c10.6,1.8,14.2-5.4,14-13
		C435.1,843.8,426.8,846.4,424,851z M451,851c-9.5-5.5-4-1.2,0-7C441.7,833.6,437.3,855.6,451,851z M808,851
		c10.2-12.3,37-42.1,14-54c5.2,9,3.3,31.8-7,25C818.1,831.8,802.4,838.2,808,851z M65,849c1.7,2,19.4-10.9,13-10
		C64.8,840.5,55.8,839.4,65,849z M47,847c0.7,3.2-13.6-2.6-8-5C43.9,843.6,50.2,841.6,47,847z M781,845c5.4-11.5,1.7-33.6,3-48
		c-4.3-24.5,10.2-19.6,5-8c2.3-14.6,14.9-20.5,19-32c1.3-9.9-0.7-43.7,7-18c14.4,9.8-1.3,21.9-4,33c-3.9,10.7,18.8-9,19-16
		c9.3-12.4,0.4-28.6,7-38c3.5-3.2,11.4-24.7,3-33c-5.8,11.1-10.7,24.6-18,33c6.5-7,7.5-44.6,2-15c3.3,13.1-21.9,6.7-23,22
		c-10.7,5.3,7.2,29.2-4,35c-7.5,12-17.6,25.9-13,4c2-16-2.7-42.1-3-10C777.4,784.5,783.9,815.7,781,845z M427,843c6,0.3,6.9-6.7,1-7
		C421.8,839.3,426.3,840.6,427,843z M666,843c4.2-5.7,8.9-15.1,7-20C671,823.6,665.2,835.5,666,843z M802,831c8.6,9.9,1.2-9.7-3-14
		C786.6,805.9,802.8,825.8,802,831z M544,830c0.3-5.4-10.4-18.6-17-25C527,810.2,537.6,823.3,544,830z M707,825
		c10.8,1.9,9.4-15.9,1-14C697.2,812,699.6,823.9,707,825z M916,820c23.7-5.7,42.2-19.6,65-26c6.2-4,34.3-6.8,23-12
		c-25.1-1.9-10.4-8.4,6-5c66.5,9.6,130.7,18.1,196,30c28.8,3.7,8.2-3.5-5-4c-38.5-7.6-77.6-12.5-115-20c-13.5-1.4-28.3-3.1-40-5
		c-23-4.7-11.8-9,5-4c51.8,8.6,106,17.5,157,24c7,2.5,84.5,13,62,4c-78.7-11.2-157.3-22.4-235-35c-28.4-5.3-47.9,16.6-75,9
		c-19.2-2.6,16.8-6.7,21-8c24.3-10,51.8-9,76-4c40.8,4.2,79.7,13.2,119,17c9.1,1.6,131.5,21.2,96,11c-64.4-9.1-132.2-18.3-195-31
		c-11.1-6.6,17.6-9.2,20-15c9.1-5.5,26.9-5.8,26-17c11.9-2.2,23.7-13.3,28-7c43.9-15.4,86.7-34.6,129-52c-42.6,3.7-92.3,23.6-131,41
		c-31.3,15.7-64.3,24.3-95,40c-9.1,7.2-25.8,4.3-39,4c-31.4,6-109.9,21.6-27,30c-6.9,4.6-28.8,1.4-36,7c-10.3,4.6-23.8,7.6-33,12
		C913.7,807.5,935.6,809.3,916,820z M1197,817c22.6,1.1,3.7-4.5-7-3C1169.5,810.8,1187.9,816.8,1197,817z M77,815
		c5.6,0,25.7-5.2,11-7C78.1,807,59.8,811.3,77,815z M686,804c1.7-15.7-9.8-32.4-3-45C670.8,772.9,677.7,792.2,686,804z M1113,802
		c-25.5-8.4-67.1-11-96-16C1042.1,794.9,1082.7,798.4,1113,802z M548,800c4.8-4.6,10.2-8.5,10-18C553.2,786.5,551.1,793.7,548,800z
		 M543,796c17.7-11.3,21.4-38.2,20-59c-4.9,4.9-2.1,25.2-7,32C552,778.4,550.1,789.8,543,796z M534,794c21.1-3.3,2.9-22.2,0-31
		c-8.2-26.2-42-55.9-14-7C529,764.3,529.9,780.7,534,794z M699,792c0.8-8.1,3.3-18.5,1-27C699.6,774,697.6,784.3,699,792z M720,789
		c3.7-19.6,1-44.4,3-63C719.5,742.2,718.5,771.6,720,789z M762,785c8.4-3.6,8.4-15.6,10-26C767.6,766.6,767.2,778.2,762,785z
		 M408,781c4.6,6-8.8-3-13-3C391.7,770.7,405.2,779.6,408,781z M423,781c7.4-5.9,10.7-15.9,16-24c8.7-11.3,6.5-13.6,7-22
		c5.7-17.1,11.6-5.5,6,8c-2.5,10.4-6.3,21.1-10,29c0.1,7.8-20.7,18.5-21,3c-2.3-10.6-6.2-21.2-7-32c-4.8-14,6.8-19.1,9-29
		c6.7-10.5,20.5-8.8,7,0c-1.4,5-17.6,22.4-9,17c8.6-4.2,12.3-15.1,19-20c9.1,7.7-6.4,14.9-9,23c-2.8,7.9-13.6,17.6-11,24
		c3.1-3.3,33.2-53.8,27-32C434.8,741.6,426.7,761.4,423,781z M602,780c3-11.3,1.7-33,2-42C596.7,746.2,601,769.1,602,780z M416,779
		c1.5,14-4.8,22.8-2,2c-1.8,1-5.8-16.4-7-25c-5.5-11.5-0.6-27.5,2-6C415.4,757.8,411,771.7,416,779z M745,776c7.8-7.1,19-12.3,22-23
		C760.8,761.7,746,763.4,745,776z M700,763c5.2-25.1,4.7-50.2,7-75c-5.6-13,1.4-23.4,0-36c-0.1-28.8-3.7-4.9-6,5
		c1.1,3.6-2.9,84.9-6,67c-2.1-1.6-1.9,17.9-1,24C702.2,734.3,695.5,753.4,700,763z M791,760c1.9-6.2,7.5-10.8,7-18
		C792.6,744.7,791,753.3,791,760z M786,738c5.4-16.6-3.2-34.6,0-48c-0.6-9,1.3-46.1-1-44C783.4,675.1,778.7,713.3,786,738z M768,717
		c5-7,5-19,11-25c-2.6-8.4,3.8-31.9-1-25c-9.9,3.6-3.4,19.9-6,26C764.9,695.3,760,711.1,768,717z M907,716c2,13.3,1,35.6-3,11
		C900.5,715.2,897.3,697.1,907,716z M723,715c1.1-19.2,19.9-22,17-44c2.9-17.1,1.6-38.4,6-54c-9.3,11-6.7,35.2-11,50
		C733.8,685.8,724.1,696.1,723,715z M1339,710c14.6-6-51.7-7.6-56-9C1270.7,707.9,1334.4,707.2,1339,710z M1335,701
		c22.4-1.4-3-10.1-11-6C1303.1,698.5,1328.3,700.8,1335,701z M1279,700c8.7-4.6,22-4.7,32-8c7.6-5.6,29.6,1.6,32-4
		C1331.8,683.5,1282,689,1279,700z M458,695c9.7-22.4,11.5-51.1,19-73c-10.6,4.7-5.8,24.8-13,33C461.3,667.7,455.6,677.3,458,695z
		 M0,678c9.5,0.7,18.1-1.5,22-5C15.4,675.2,0.3,670.9,0,678z M17,671c18.1,0.9-7.9-5.9-10-7C-11.5,663.5,13.3,671.5,17,671z
		 M1184,668c13.4-0.6,29.6,1.6,40-2c14.3-4.5,6-9.5,10-15c6.5-6.3,20.6-2.7,30-3c3.3-5.7-22.2-3.7-31-4c-9.4-4.6-107.9,18.8-87,23
		C1160.4,666.9,1171.6,666.2,1184,668z M637,664c5.1-5.2-31.4-4.8-36-13c-14.7-27.9,2.8,4,17,2c14.8,8,37.1,3,43-8
		c4.4-2.4-2.8,5.5-1,8C665.9,670,636.9,667.2,637,664z M624,663c-23.5,9-38.6-9.8-34-27C597.7,625.6,578.4,658.6,624,663z M593,661
		c-4.2,1.1-10.3-9.1-11-17C587.8,640.9,588.4,657.2,593,661z M581,660c1.9,3.3-12.1-0.8-8-7C574.5,646.4,578.8,659.6,581,660z
		 M814,656c-10.5,9.5-22.8-11.8-23-16C794.8,632.9,813,650.9,814,656z M716,654c0.7-5.5,7.2-17.9,1-20
		C714,635.2,716.8,649.9,716,654z M437,653c9-3.2,12.3-13.8,17-20c1.2-7.6,14.3-17.9,11-20c-7.9,6.6-19.1,6.4-14,17
		C447.7,638.9,440.5,645.6,437,653z M632,647c14.4,1.4,25.5-4,33-7c-16.7,19.4-38.1,9.4-58,1c-10.6-19.7-6.3-2.3-4,1
		c-14.1-8.1,1.2-21.7,12-12c7.4,0.6,23.6,15.3,18,13c-8.1-3.7-20.6-11.1-28-10C609.3,642.3,626.5,640.2,632,647z M751,640
		c10.7-1.4,7.7-22.2,6-27C746.2,608.5,751.4,633.2,751,640z M919,640c4.8-2.3-5.4-3.7-4-7c-2.4-0.5-0.4-10.8,0-7
		c0.2,18.5,4.9-7,4-10c1.5-6-5.3-7.6-3-10c-19.1-8,12.6,0.7,17-5c-18.1,0.9-42.3-9.2-36,16C880.3,638.7,911.7,627.2,919,640z M0,639
		c58.7-5.9,115.5-11.3,173-20c32.5-4.6,67.4-4.6,98-16c-71.5,4.5-140.2,12.2-210,21c-11.4,1.2-23.7,1.6-34,4
		C18,631.7-3.5,622.9,0,639z M572,630c9.8-3.4,4.7-18.8,3-29C572.2,599.2,573.2,625.1,572,630z M579,628c6.9-14.5,21.7-11.3,5-29
		c-0.9-15.2,5.5-31.6,3-50c-11.6,19.3-1,12.7-7,31C572.5,595.1,581,614.4,579,628z M607,622c-15.5,18.9-9.6-37.8-7-27
		c-1.1,2.2,0.1,9.7,1,13C621.2,627.1,591.5,612.4,607,622z M770,620c1.2,2.9,0,27.8-2,17C764.6,633.2,766.9,612.5,770,620z
		 M1338,618c15.7-4.1-16-4.5-19-6C1307.6,611.8,1333.9,617.6,1338,618z M1312,608c9.1-4.3,25.8-0.8,32-8
		C1332,601.3,1318.3,601,1312,608z M678,606c1.4,6-8.4,7.6-6-1C670,595.3,677.6,601.7,678,606z M1084,602c26.2,0.9,35.2-6.2,4-3
		C1062.1,595.7,1051.8,601.2,1084,602z M885,599c14.1-2.6,5.1-15.3,1-30c-4.1-13.5-8.3-28.3-11-42c-4.4-21.3-3.3,24.8,0,29
		C874.8,573.8,886.6,581.1,885,599z M916,599c15.4,1.4,25.1-4.8,3-3C906.1,589.8,900.2,596.3,916,599z M0,594
		c21.7-2.8,50.2-4.3,70-8C58.2,584.6,4.2,584.2,0,594z M914,594c39.9-1.2-6.6-1.1-6-8c3.3,1.3,6.1,3.2,11,3c28.3-1.3-7.1-1.9-11-4
		c-10.9-14.1-0.6-4.4,21-6c-13.6,0.6-26-4.4-26-21c-5.9-12.1-13.8-22.2-19-35c-22.3-49.7,5.2,32.4,6,42
		C895.1,577.5,898.6,593,914,594z M1058,594c13-1.9,28.3-3.1,38-7C1083.2,589.1,1065.1,587.5,1058,594z M371,591
		c19.2-0.5,38.3-2.3,53-6C405.2,585.8,386.7,588.3,371,591z M619,591c-1.2,3.4-8.3-17.4-13-7C609.2,571,620.6,580.1,619,591z
		 M911,584c6,0.7,30.7-0.2,15-2C917.4,583.9,899.9,577.5,911,584z M782,580c-8.1-0.4-13.8-14.6-21-21
		C774.2,563.6,776.4,566.2,782,580z M628,578c-3.5-3.4-6,13.9-8,6C613.5,576.8,622.9,572.8,628,578z M446,577c2.1-16.6-3-7.1,13-4
		C457.3,565.5,435.6,560.5,446,577z M732,577c6.8,1.5,7.9-7.2,3-9C733.9,563.3,729.3,574.9,732,577z M1289,573
		c19.5-2.1,46.5,1.9,55-10c-32.3-14.6-78.7-9.6-116-12c-48.8,0.2-93.1-3.8-141-3c-22.8,8.6-13.2-31.4-20-2
		c-35.2,11.3-80.5,0.5-118,0c-38.2,3.4,22.9,4.3,29,6c18.5,2.8,40.6,2,61,3c19.9-3.2,35.9-4.8,59-3c79,4.6,166.6-2.4,244,12
		C1328.2,568.4,1305.4,568.7,1289,573z M627,566c-0.5-3.7,10.1-7.7,4-8C624.7,555.7,621,565,627,566z M1100,566
		c10.7,0.2,26.6,0.1,31-2C1122.8,563.1,1106.7,563.7,1100,566z M170,561c12.1-1.2,26.1-0.6,36-4C194.6,558.9,179.4,557,170,561z
		 M685,557c0.7,13.9-11.3,15.9-10-4C671.6,539.7,679.2,544.6,685,557z M511,553c2.7-13.3-12-32.2-8-37c12.7,25,7.2-1.4,0-12
		c-4.6-28.3-16.7-4.2-8,11C497.9,530.1,505.1,540.9,511,553z M545,533c6.7-18.3-7.3-33.7-10-49c9.5-5.9,20-33.4,10-42
		c5.2,23-12.5,46.2-18,21c-2.8-7.1-1.2-3.7,4-2c5.8-2.8-22.7-11.9,2-18c7.3-19.2,29.9,3.4,38,9c11.8,5.5,16.5,33.6,33,23
		c4.8-14.4,19.5-31,13-46c23.2,10.9,16.1-47.7,20-14c-1.5,23.9-31,8.7-7,30c-4.3,39.3,6.8-26,10,2c-4.6,5.9,2.1,7.9,3,8
		c37.1,4-18.3-3.6,6-22c26.9-21.3-34.3,30.5,43,22c15.7-5.6-3.3-33.8-10-8c-14.2,8.3-42.7-3.8-22-18c16.3-26.1,14.6-75.5-2-101
		c-5.2-11.2-10.3-40.5-14-40c4.8,0.6,8.5,4.6,9,8c10.6,0.9-10.6-14.8-17-17c-39.2-41.9-95-33.3-118,19c-15.4,29.7-20.4,66.4-31,98
		c-15.6,35.4-27.6,72.4-35,111c-5.8,20.7-0.4,26.2,3,3c3-18.3,7.8-34.9,23-41c9.7-3.8,36.5-25.4,41-4c11.7,26.3-18.2-1-34,4
		C515.4,476.2,542.4,497.1,545,533z M571,532c6.4-1.8-0.1-11.7,0-16C568.1,514.2,571.8,527,571,532z M746,525c8.8-5.4,19-11,23-20
		C762.1,512.3,749.3,515.4,746,525z M620,523c-4.6,17.5-6.7-34.3-5-42C622.4,463.1,613.8,511.2,620,523z M816,516
		c12.5-8.4,23.6-19.6,31-32C836,494,827,507.2,816,516z M722,515c16-1.2,2.4-105.4-9-78C688.1,458.5,728.6,494.4,722,515z M801,510
		c10.3-8.4,20.4-17,28-28C818.1,489.7,809.3,499.6,801,510z M879,504c6.5,0.6,14.6-5.4,10-10C885,491.1,884.5,502.4,879,504z
		 M773,502c4.5-17.1,14.3-30.3,24-41c9-2,23.7-40.8,22-23c-8.7,7.9,20,47.6,6,19c1.9,7.4,45.4-12.3,16-8c-13.6,36-23.6-28.4-14-3
		c1.8,3.5,7.4,6.4,7-1c-14-19.7,10.4,5.1,19-3c1.5-7.5,16.2-22.7,24-3c10.9,6.2,29.2,33.3,20,2c16.2,13.1,36.4-5.4,50,1
		c10.9-19.4,26.7-11.1,33-3c8.3,11.3,45.1-9.7,19-4c-18.5,14.4-17.3-32-37-11c-8.5,17.8-81.9,21.6-85,0c-23.4-21.3-27.1,21.9-37,12
		c-16.7-4.6-28.2-14.5-34-30c-34.2-9.2,24.9-75.7-12-88c3.1-124.6-174.2-73.4-123,28c7.3,14,3,39.7,12,52c17.7,23,62.2,48,86,23
		c9.9-6.6,28.1-34.9,23-6c-2.7,2.7-5.3,5.3-8,8c-11.5,3.5,5-17.5-14,2c1.8,14.9-55.6,6.1-32,13c18.5-2.8,45.4,2.8,52-12
		c28.1-9.6-9.3,15.8,0,33C785.3,473.7,770.5,485.6,773,502z M575,500c-11.8-20.7,33.5-6.1,23-12c-17.5,5.4-32.5-12.3-12-8
		c-8.5-0.5-13.6-31.2-16-19C575.8,471.4,572,485.6,575,500z M860,499c5.4-6.8,12.2-13.9,15-22C869.2,483.3,863,491.2,860,499z
		 M694,498c26.8,3.6,15.2-17.5,10-27C694.8,455.5,713.4,505.1,694,498z M689,495c7.4-2.9,5.5-18.8,6-26C692,479.1,690.7,485,689,495
		z M760,494c9.8-2.2,4.9-10.1,6-20C761.6,470.9,762.2,498.7,760,494z M541,489c13.8,0,7.1-26.7,21-14c10,19.2,3.6-7.6-5-9
		c1-20-5.6-27.8-4-3C552.3,474,542.4,484.8,541,489z M453,487c-3.7-13.6,6.5-20.2-1-17c-9.1-14.5-6.4-0.1-24-2
		c-13.4-0.1-27-0.4-39,1c-37.6-2.6-78.9,5.3-115-1c-16-5.8-12.6-9.2,5-5c9.5,8.7,18.5,2,29,0c33.1,3.4,64,0.3,97-3
		c12.7,3.4,22.2-3.8,33-4c14-10.3,8.4,18.1,14,6c-2.7-20.3,14-6.4,6-22c14.4-13.1-0.8-7-6,2c-11.6,16.1-45,10.8-62,13
		c-8.3,0.9-19.7,6.2-33,5c-22.4-3.3-48.6-2.7-67,0c-11.3-3.5-23.3-3.1-34,0c-9.2-6.1-25.5,2.5-31-7c-2.5,9.9-17.4,12.1-27,9
		c-5.5-7.3-25.5-7.1-25,4c-10.8-6.3-21.2,0.4-31-5c-9.6,0.8-20.7,13.2-28,2c-7.1-13.2-9.6,7.4-25,3c-13.9,1.2-20.3-8.4-32-3
		c-5.4,3.3,15.4,7.6,25,7c10.6,5.9,24.8-2.6,33,1c7.5,4.7-20.7,2.4-29,3c-42,1.6-40,0.5-39-40c-2.3-48.8-4.5-100.7-5-151
		c-3-16.3,1.6-25,19-21c25-2.8-1.5-3.8-13-3c-8.1-4.7-8.9-18.6-11-28c-5-17.1-2.9,16.1,1,19c-1.4,75.4,4.2,149.1,4,223
		c-7.4,5.8-4.7-19.9-9-24c-4-10.1-10-25.5-5-3c-1.7,11.7-11,15.7-17,23c-26.9,0.6,4.3,10.4,9,1c9.9,7.3-21,2.8-20,11
		c13.5,0.1,24.8-1.9,39-1c66.3-0.1,128.5-3.5,195-4c51.5,0.4,103.7-2.1,155-2C404.8,476.9,457.5,461,453,487z M868,473
		c-1.7-9-14-14.9-28-13C849.2,461.5,862,467,868,473z M142,471c21.6-1.2,37.1-0.7,61-1c18.1-4.5,38.5-13,51,0
		C241.7,470,122.1,474.8,142,471z M782,467c6.6-3.5,2.6-19.6,5-26C782.6,446.8,783.7,459.9,782,467z M655,466c14.1,0.3,4-6.8-4-6
		C638.4,458.2,648.8,465,655,466z M819,466c-1.9-1.6-1.3-14.8-5-16C811,456.4,816.9,463,819,466z M903,465c144.5-3.6,289-6.7,435-8
		c23-17.8-22.3-22.6-12-11c2.6,10.1-99.2,8.4-104,6c-77.1,6.2-150.3,0.6-227,6C982.8,461.1,875.1,452.9,903,465z M589,457
		c8.8-5.1,7.2-10.3,13-19C592.1,422.3,591.7,450.8,589,457z M1016,454c6.6-6.8,21,4.4,17-4C1030,441,1014.8,446,1016,454z M296,452
		c8.5-0.4,23,1.2,26-2C315.5,449.9,302.3,448.8,296,452z M478,443c9.9-7.7,13.7-23,23-30c4-1.9-10.1,19.1-14,26
		c-6.4,1.6-23.1,33.8-16,15C472.6,443.9,485.1,414,478,443z M805,443c1.1-15,13.8-19.9,5-4c-4.5,9-12.2,16.6-18,23
		c-2-0.2,9.6-15.5,8-25C806.6,413,803.6,434.4,805,443z M1149,441c19.3,2.8,19.5-15.1,38-7c12.9,5.2,17.8-12.6,34-10
		c13.8-2.9,29.8-1.8,44,0c16.4-5.6,22.5,7.1,31,1c-2.6,9.9,5.7,4.2,18,6c15.7,2.8,19.9-22.2,23-11c-3-13.5-19.3,7.6-22,6
		c-11.4-3.9-23.2-10.9-36-8c-11.6,3.7-29.7-2.7-45,0c-13.6-1.9-27.2,4-38,8c-11,7.3-28.6-7.2-34,8c-15.5,9.7-25.2-11.5-29-3
		c-15.6,8.2-25-7.2-39-3c-1.3-11.6-20-11.7-5-5c-2.6,18.8,16.6,2.2,25,15C1133.8,443.2,1135.4,430.9,1149,441z M672,440
		c1.2-7.5-1.9-19.4-3-26C666.9,422.5,669.3,434.9,672,440z M1019,440c13.5-1.1,2.6-23.2,16-9c4.9,5.5,22.1,14.1,23,0
		c0.7-0.8,14.9,4.7,21,6c9.9-7.8,7.3-16.8-1-3c-5.4-7.4-19.3-8.2-17-22c-7.3-2.2-4.4,21.2-14,21c1.5-8-17.2-6.7-18-17
		C1024.4,416.2,1017.6,428.2,1019,440z M54,437c1.7-6.4,6.9-17.7,1-23C47.3,415.9,57.6,427.3,54,437z M560,437
		c0.7-3.4-0.1-14.7-3-16C553.5,427.3,558.4,434.1,560,437z M26,431c1.3-4.5,7.6-13.7,0-16C18.3,415.8,30.7,421.3,26,431z M840,431
		c11.5,5.4-3-20.6-13-15C822.8,433.5,833.7,417.6,840,431z M610,424c1.6,21.4-4.8,43.2-14,48c-9.8-13.2-20.8-26.4-36-33
		c-16.1-5.6-0.5-47.6,4-36C573.1,415.8,590.5,425.9,610,424z M691,417c2.3-4.4-15-8.8-18-16C668.6,407.5,683.3,414.5,691,417z
		 M741,413c4.7,13.4-5.8,9.1-8,3C724.2,411.7,736.4,407,741,413z M706,412c-15.5-4.6,1.3-7,12-9C739.4,402.8,704.7,405,706,412z
		 M651,407c1.6,5.8-11.9,32.4-9,20C646.2,423,648.4,387.6,651,407z M719,397c14.2-7.1,36.2-6.5,46-18c-0.9,11.2-19.7,25.2-30,24
		c-10.6-10.1-43.5,6.1-49-11c-4.6-36.4,4.2-8.9,7-25c6.7-0.3-3,1-1,7c-2.3,20.4,13.6-9.6,14-10c4.2-2.2,5.7-1.1,11-3
		c-10.5,14-1,11.3,7-3c7.3-4.5,14.6,32.9-2,34C698.4,391.1,681.5,392.9,719,397z M657,392c3.9,18-5,37.5-2,8
		C650.8,382.9,659.7,360.9,657,392z M501,390c0,7.7-20.3,35.1-16,25c11.6-26.4,16.5-59.8,33-83c2.6-7.8-1-4.9-2-1
		c-5.3-1.5,8.8-34.8,4-13c4.5,19.9-9.4,30.5-13,44c-9.7,18.5-5.2,34.5,2,6c2.4-7.1,21.4-41.5,11-15C514.7,365.9,509,382.6,501,390z
		 M697,390c2.7-1.3,7.3,0.4,10-1c28,2.3-7.8-5.7-1-5C736.8,377.2,687.2,374.2,697,390z M689,349c13.4,2.5,40.7-8,31-10
		C716.2,344.2,679.4,343.4,689,349z M797,345c1,18.8-4.1-4.9-2-10C793.6,319.5,804.1,343.3,797,345z M590,344
		c17.3-12.6-17.3-12.6-20-4c5.7-5.8,19.3-11,19-24c15.5-22.2,34.1-39.6,46-6c-2.4,7.7-9.2,6.3-19,17c-3.7,12.3,4,24-18,21
		c-8,0.1-37.1,7.7-30,1C572.5,346.4,597.9,330.8,590,344z M737,343c2.2-23.3,59.1-20.5,22-11c-11.5-2.3-25.8,15.5-8,6
		c12.9,4.2,25.4-10.1,28-3c9.9,3.6-27.6,4.3-1,7c16-1.5-2.2-18.2-2-23c-2.6-11.7-20-0.5-26,2C741.7,323.3,729.7,332.5,737,343z
		 M622,341c7.2-11.9,27.9,8.8,19-12c10.6,5-0.2,21.2-15,16c-15.7-4.2-0.7-22.3,8-21C649.8,326.5,618.2,331.5,622,341z M786,339
		c2.2,12.6-50.3,5.4-59,8c-11.3-0.2-42.2,22-50,15c1.3-9.1-1-19.2-1-29c1.1-6.1,12.1-20.8,6-21c-8-4.2,2.2-14.6,8-18
		c11.5-15.1-0.6,5.8,3,12c-6.5,3.5-8.4,18.9-10,22c4.1-7.4,10.7-14.1,14-21c-2.1,4.2-10.4,28.4-1,15c5.3-20,16.3-31,37-34
		c12.4-0.9,17.5,7.3,29,6c10.1,1.9,9.5,14.5,18,18C784.1,318.2,787.4,331.6,786,339z M684,338c10-5.9,40.1,3.1,39-4
		C712.6,332.7,686.2,323.2,684,338z M641,300c1,1.4-10.8-17.9-18-22C623,275.6,641.1,288.5,641,300z M25,261c20.7-0.2-3.5-5.5-8-5
		C-2.4,258.8,19.6,259.6,25,261z M0,2c447.9-1.9,896.7,3.7,1344-2C896.1,1.9,447.3-3.7,0,2z"/>
</g>
</svg>
