<?xml version='1.0' encoding='utf-8'?>
<!-- Generator: imaengine 6.0   -->
<svg xmlns:xlink="http://www.w3.org/1999/xlink" xmlns="http://www.w3.org/2000/svg" viewBox="0,0,1344,896" style="enable-background:new 0 0 1344 896;" version="1.1">
<defs/>
<g id="layer0">
<path d="M0,896C3.50698,893.924 23.8617,897.682 35,896C48.7967,896.337 61.9137,895.495 73,896C84.3008,893.766 105.771,900.016 110,892C114.419,906.758 131.985,884.52 128,890C132.692,909.704 142.642,876.983 124,883C117.541,871.521 107.39,871.015 125,870C116.017,870.889 120.985,859.551 101,865C92.6712,868.313 77.8007,862.179 67,865C42.2004,864.391 63.1574,855.489 50,855C70.6639,850.54 51.0394,841.13 50,843C36.1104,838.951 36.231,833.711 48,830C58.7851,826.061 67.8794,824.509 76,820C72.9406,816.243 52.4345,816.423 44,819C31.7999,820.132 23.0094,824.677 8,823C-7.59487,820.94 3.86691,847.622 0,856C0,869.332 0,882.668 0,896ZM140,896C170.287,894.458 147.166,877.62 135,880C108.035,876.936 157.766,881.199 140,896ZM157,896C159.476,888.17 185.936,891.063 164,888C160.242,873.945 157.651,886.803 157,896ZM404,896C420.514,884.332 415.81,901.062 427,889C415.306,883.244 413.568,884.506 404,896ZM430,896C437.113,898.132 436.646,883.877 436,884C430.891,878.288 430.537,891.171 430,896ZM442,896C450.392,899.641 464.967,893.088 461,874C462.247,853.48 462.499,845.995 473,854C475.586,861.025 466.749,859.393 467,857C458.263,855.284 488.232,870.463 476,860C471.14,843.026 489.089,869.07 497,863C495.053,860.902 488.753,864.376 486,863C470.564,870.38 506.599,857.825 498,871C504.538,884.182 482.679,895.777 483,892C491.825,891.768 492.268,898.786 508,892C506.706,887.834 511.055,884.833 509,883C517.039,884.749 514.103,870.944 519,887C515.841,900.965 537.504,894.222 553,896C564.822,896.083 584.202,896.015 599,896C613.012,893.767 636.881,899.872 644,892C647.032,879.034 648.083,864.082 652,852C655.135,838.891 659.741,825.732 663,814C664.554,800.742 667.38,784.119 667,772C667.322,756.643 662.546,740.176 666,726C667.347,711.349 667.607,695.605 669,681C674.867,680.617 670.11,710.787 675,718C675.786,729.926 682.978,748.387 676,759C666.716,771.271 671.529,791.41 677,767C685.185,758.451 683.079,741.216 682,726C682.805,710.961 673.652,708.961 688,697C690.007,683.984 690.271,670.53 695,658C701.938,647.582 701.512,631.258 704,620C708.37,598.774 715.644,608.378 721,605C737.879,607.71 737.472,606.659 729,624C722.913,633.911 723.85,650.852 724,667C722.259,686.814 724.961,704.842 726,676C726.912,660.283 721.978,643.936 729,633C736.04,622.425 735.968,606.727 752,611C770.941,611.271 760.04,628.265 765,642C768.572,667.897 764.844,648.714 756,664C749.294,671.188 760.254,703.33 761,689C754.329,670.148 770.876,665.66 778,659C790.811,633.795 763.249,673.79 769,656C770.586,648.662 769.228,617.537 777,623C775.839,631.781 767.159,663.717 777,641C777.486,613.945 787.248,624.792 780,643C783.285,646.508 785,640.874 785,638C784.787,619.94 790.862,646.852 790,653C781.832,662.829 819.558,653.721 805,665C799.653,684.117 806.711,641.054 795,669C798.185,686.642 783.997,695.431 790,709C791.618,722.647 798.997,744.185 796,715C787.365,700.857 797.992,690.779 801,679C795.986,669.582 827.094,663.427 820,678C814.235,700.123 807.338,652.99 805,686C811.321,676.962 816.885,704.107 824,685C830.425,658.141 825.697,700.761 821,695C828.497,689.061 847.794,681.161 839,677C850.387,683.702 863.946,685.785 855,700C847.865,708.864 839.866,716.868 839,732C846.212,726.316 848.355,708.506 857,703C868.407,722.892 857.467,676.626 865,691C872.722,701.38 868.218,722.634 864,731C862.722,745.72 855.937,754.938 851,766C848.883,778.077 835.49,788.116 837,797C844.311,809.369 830.63,824.924 847,807C851.456,795.212 855.165,781.156 861,772C865.619,761.483 868.175,745.788 870,735C869.708,723.966 871.344,699.354 869,691C877.185,698.814 872.426,719.576 877,731C881.022,743.222 882.592,759.417 883,774C886.28,789.912 885.263,792.737 890,809C897.04,837.718 883.137,814.998 883,803C878.963,791.039 879.883,774.116 878,760C876.24,729.617 871.781,751.398 876,767C876.658,780.271 878.705,800.568 875,812C872.122,799.817 872.088,777.731 875,767C868.744,769.972 867.341,789.065 866,802C863.555,815.8 859.161,829.17 855,840C849.386,850.384 843.926,860.928 839,872C838.6,884.261 818.352,901.608 846,896C861.998,896 878.002,896 894,896C898.981,884.737 898.404,866.395 902,855C903.261,840.263 904.966,825.965 907,812C907.258,796.014 910.422,781.413 911,767C912.613,752.615 911.211,735.21 913,721C909.786,701.542 922.832,696.823 929,688C935.059,678.061 933.442,660.441 935,646C950.106,643.061 938.618,619.07 940,608C938.783,593.218 937.239,578.759 934,566C929.818,553.938 926.502,539.489 925,526C921.065,513.937 919.946,499.052 914,489C909.341,477.414 900.437,468.554 892,462C886.84,457.712 863.576,446.322 864,454C878.119,453.121 883.137,469.526 889,468C890.19,482.809 896.661,492.341 902,503C901.799,507.28 901.868,513.581 904,514C904.618,532.736 907.175,490.38 911,517C918.083,525.915 919.706,540.296 924,552C928.562,563.682 932.675,577.334 934,591C935.097,605.776 938.498,619.75 935,634C923.371,640.925 947.02,600.373 924,610C921.302,604.859 929.098,644.124 920,622C916.217,636.716 937.17,641.432 926,657C905.624,650.747 911.223,654.287 920,669C932.132,678.508 923.85,693.343 914,698C903.603,710.864 891.771,694.243 882,692C871.981,685.775 856.559,683.432 849,676C839.187,669.815 830.612,662.386 823,654C814.645,646.111 805.797,637.194 796,632C794.93,623.914 776.386,614.651 778,612C797.757,618.449 792.986,585.614 787,604C779.012,614.635 761.115,607.941 749,606C734.014,604.742 724.022,596.969 709,597C695.555,597.976 678.758,607.038 675,591C672.363,582.105 654.521,568.122 666,561C675.539,567.459 677.82,581.181 682,593C681.83,591.615 695.27,576.165 710,580C714.802,577.099 732.042,554.544 722,560C715.801,570.069 699.761,583.412 707,558C715.412,557.731 726.859,526.278 712,543C704.45,545.439 698.356,577.854 694,556C686.426,551.668 680.018,538.765 677,527C657.852,507.804 674.393,539.517 668,545C661.889,528.899 654.279,527.481 657,550C634.073,565.826 660.746,539.762 644,546C637.382,534.222 641.199,566.89 644,574C641.957,589.14 655.529,570.067 665,586C663.122,595.106 640.333,584.444 637,578C628.342,570.413 610.908,570.083 605,561C605.789,552.266 587.475,526.805 609,535C619.208,537.04 646.478,522.713 638,531C639.045,561.735 637.212,535.155 646,527C656.077,524.195 662.118,502.701 675,513C690.603,516.441 686.154,530.823 687,541C686.954,524.709 701.29,521.281 712,517C717.063,515.937 717.747,519.253 720,521C735.969,533.843 716.371,521.873 726,531C733.431,539.813 745.503,545.506 753,553C757.28,556.196 736.112,543.363 725,545C728.436,554.46 753.418,549.432 756,561C761.977,571.022 771.977,577.025 776,589C775.688,608.234 785.231,570.429 800,588C813.402,589.735 811.585,609.802 826,608C831.172,609.807 823.524,603.86 823,604C810.615,595.88 833.923,605.309 837,608C843.809,614.236 865.44,617.845 862,625C870.779,628.251 895.982,637.136 892,618C895.778,619.95 878.582,633.63 871,617C872.309,603.594 863.641,595.488 857,586C857.021,570.023 858.458,555.456 861,542C861.248,529.628 873.962,514.558 870,508C873.5,499.761 880.904,487.717 887,479C895.916,457.561 874.168,482.955 874,489C864.849,495.848 863.787,510.789 859,522C854.542,533.787 851.819,548.828 851,563C845.291,571.097 856.239,603.394 849,589C844.282,574.458 843.671,562.193 847,550C846.182,536.647 851.925,524.519 854,511C849.432,519.328 842.807,532.656 842,546C844.554,563.791 840.976,576.519 837,551C827.964,572.311 837.655,539.406 835,528C839.729,514.664 848.243,512.495 853,500C860.196,484.745 841.239,511.664 838,514C829.088,521.086 824.45,532.452 826,550C837.029,569.646 823.782,562 815,552C797.314,532.056 828.18,563.024 823,542C832.148,520.671 803.359,528.425 791,527C775.722,526.288 749.644,531.432 781,529C789.893,532.082 818.161,525.056 820,537C808.213,547.911 794.3,534.576 787,530C771.215,539.379 761.582,531.255 754,526C740.533,530.656 747.075,554.346 736,532C727.201,517.778 730.257,517.986 742,507C748.795,499.16 759.65,488.683 752,475C747.41,469.979 757.671,470.187 756,474C759.575,492.827 760.738,466.455 762,460C766.801,446.968 767.567,491.686 771,475C775.927,462.571 778.2,448.945 783,440C800.507,424.951 773.671,438.717 770,445C761.484,452.729 753.69,462.699 745,469C732.979,472.977 736.448,492.45 733,505C730.892,528.793 716.85,508.408 705,514C691.908,525.624 686.27,513.905 676,507C655.43,504.368 678.767,494.878 680,484C699.158,468.512 676.453,479.26 669,483C671.304,469.059 692.029,472.02 699,464C709.446,452.019 683.715,469.815 675,468C663.557,472.802 660.757,487.766 655,497C649.438,518.363 656.108,463.968 647,485C647.138,497.678 654.375,521.713 641,524C621.986,534.142 618.24,515.833 626,503C632,492.755 633.51,476.501 637,465C649.062,477.832 639.602,448.207 628,468C615.159,471.403 606.629,480.638 595,484C615.171,476.264 613.133,499.47 605,508C601.764,521.008 595.584,532.593 579,531C571.143,539.94 555.586,539.726 543,539C523.287,535.531 538.393,568.402 521,566C528.164,563.693 518.84,543.256 524,529C525.796,526.537 523.677,517.63 527,521C529.788,538.081 536.696,531.179 529,519C524.586,509.138 520.222,493.006 514,490C513.196,505.331 525.001,516.867 520,529C516.158,540.318 512.141,556.223 517,568C508.795,576.04 500.593,585.602 493,593C482.229,598.227 467.743,599.745 456,604C443.952,608.197 434.27,616.279 428,625C424.014,636.514 443.119,615.829 450,615C457.06,605.816 476.683,607.674 484,600C499.186,599.187 502.616,586.615 512,580C521.818,573.573 530.246,564.236 541,560C549.935,552.937 559.794,546.793 570,541C579.597,536.989 600.05,523.927 597,547C597.142,560.048 610.05,571.767 603,583C591.872,589.678 586.573,602.04 595,614C593.736,628.734 581.669,632.671 576,643C574.074,645.916 569.62,648.529 572,644C579.225,627.401 567.289,645.863 566,652C561.209,663.207 552.812,670.813 546,680C538.261,688.506 528.997,697.006 520,703C509.843,708.841 502.354,717.356 490,721C469.153,722.731 464.125,730.591 489,727C502.599,732.373 466.566,731.738 464,728C455.831,719.925 446.66,711.331 440,703C432.101,694.9 425.678,685.32 422,673C418.005,661.96 407.84,650.882 412,636C417.341,625.343 423.529,615.528 429,605C438.958,593.764 425.824,577.754 431,564C432.301,549.303 443.021,544.02 446,531C436.733,531.64 416.065,528.877 402,530C386.853,529.148 371.504,528.494 356,528C338.816,528.939 323.17,526.821 308,527C293.418,525.584 276.903,526.096 262,525C247.275,524.725 231.286,524.816 217,523C201.47,521.277 187.616,524.449 172,522C157.043,520.713 140.763,519.228 125,520C108.686,520.316 94.9782,518.02 78,519C62.2139,518.542 44.9735,518.017 31,517C21.6625,515.944 -14.3342,514.737 9,521C24.196,522.048 41.7163,522.293 57,522C71.3853,523.613 88.7904,522.211 103,524C119.244,524 137.009,524 152,524C176.003,526.323 136.079,528.613 129,529C110.44,532.892 153.121,529.696 158,529C173.59,528.592 188.73,527.728 204,527C220.136,527.108 234.776,530.233 251,529C266.308,529.69 282.103,529.899 297,531C313.424,530.82 329.07,532.939 345,532C358.399,534.599 377.572,531.429 391,534C404.997,536.248 430.192,528.818 434,540C432.906,547.426 424.142,560.22 426,576C432.296,591.152 425.289,602.662 420,613C413.298,622.297 406.88,631.882 406,647C410.358,658.887 415.603,671.406 420,682C418.372,698.952 433.763,691.981 413,703C403.065,723.42 421.792,695.005 432,699C432.426,703.934 411.544,707.504 411,720C401.45,727.067 393.615,738.206 401,753C394.202,766.849 421.104,784.038 404,776C390.424,775.92 403.083,764 396,747C385.171,731.502 415.502,716.038 394,727C388.819,739.967 394.426,759.98 393,771C391.042,782.845 399.159,785.705 396,802C399.234,810.543 397.561,842.397 404,835C402.772,815.009 403.361,806.469 412,827C431.347,840.104 413.328,811.47 408,810C390.265,814.262 405.53,773.278 408,796C407.732,813.2 439.251,801.447 430,815C424.53,832.208 438.128,838.059 452,839C454.466,852.558 464.295,839.139 455,861C452.025,874.023 447.775,885.777 442,896ZM462,896C469.819,898.018 469.902,893.022 466,890C483.752,889.586 451.58,881.959 478,885C476.935,888.279 483.085,885.95 488,887C499.224,889.391 458.832,879.791 483,871C488.004,870.911 493.549,866.624 484,868C465.801,883.267 481.171,871.794 468,869C463.238,867.317 475.875,867.817 476,865C456.595,860.486 468.396,888.776 462,896ZM664,896C675.313,890.019 677.289,862.447 690,867C687.482,869.217 687.978,876.748 688,880C671.961,900.408 699.319,894.086 688,891C687.873,874.064 696.404,860.652 698,843C693.765,825.002 696.913,813.973 693,794C693.013,761.462 681.807,782.923 690,802C685.14,825.469 692.839,824.114 692,840C692.133,860.131 677.882,865.884 672,880C667.958,883.514 669.577,871.458 667,872C656.373,862.187 663.443,884.529 664,896ZM694,896C700.58,890.543 696.859,875.234 697,865C694.424,878.467 693.446,881.317 694,896ZM718,896C720.339,877.8 719.939,851.558 721,836C716.868,810.221 726.925,797.368 738,788C742.423,773.852 742.164,753.472 753,742C750.388,720.614 787.662,729.871 781,712C774.806,725.605 745.648,714.77 745,737C739.619,753.265 734.883,771.439 731,788C715.224,792.843 719.345,823.067 718,838C718.074,858.006 717.047,874.841 718,896ZM1228,896C1248,896 1268,896 1288,896C1305.42,893.801 1313.19,880.589 1323,872C1333.35,862.357 1349.8,858.797 1344,833C1347.95,805.264 1342.43,794.901 1325,811C1322.01,812.74 1317.06,814.83 1316,817C1292.51,824.63 1327.58,824.717 1334,824C1324.54,834.162 1309.46,840.059 1300,849C1287.41,856.404 1275.25,864.256 1263,872C1251.04,879.659 1236.75,886.345 1228,896ZM1311,896C1336.53,901.232 1352.65,895.735 1344,868C1331.14,875.436 1319.67,885.588 1311,896ZM615,889C646.013,882.502 623.167,894.619 607,891C590.684,897.571 579.67,885.614 570,880C558.957,873.711 551.043,864.289 540,858C508.829,852.069 537.749,863.791 545,868C568.373,879.961 533.72,869.548 528,865C516.729,859.35 502.944,854.731 491,851C475.338,849.33 466.407,840.925 453,837C437.775,836.027 428.229,823.11 438,809C439.997,793.665 448.572,784.904 455,774C459.303,761.382 462.796,746.471 468,736C474.303,730.338 499.148,743.829 503,727C509.255,714.714 527.985,730.681 530,739C543.036,756.639 534.968,723.213 523,724C513.216,705.902 535.535,711.498 538,700C540.498,711.52 541.802,729.687 544,744C550.794,749.961 545.075,788.275 552,771C558.467,758.409 551.128,737.704 554,729C550.953,716.764 547.291,697.455 551,684C560.084,677.048 561.347,656.574 581,666C595.975,667.946 616.03,666.295 630,668C640.01,668.653 671.21,676.716 668,658C669.276,622.853 671.68,668.645 669,676C663.655,674.734 665.427,682.876 663,683C663.129,711.109 661.092,686.469 662,675C647.715,670.157 653.089,673.578 652,692C650.573,707.905 647.366,722.035 643,735C646.081,748.748 635.173,781.85 645,758C648.9,751.241 650.786,717.062 656,729C656.51,725.431 658.073,720.624 658,718C659.109,695.249 662.565,725.112 660,732C659.656,748.478 662.056,766.646 661,781C657.791,794.712 657.163,812.488 654,825C651.709,840.041 648.058,853.726 644,867C644.061,883.982 623.931,882.256 615,889ZM595,887C599.103,878.838 600.146,865.364 599,855C598.821,842.514 597.223,831.443 598,818C596.848,806.487 596.342,794.324 594,784C591.837,773.986 588.794,763.072 586,755C582.999,747.684 572.997,733.384 588,733C602.083,734.418 607.492,727.158 617,724C633.773,714.539 625.179,734.51 626,745C626.579,757.756 623.65,768.784 623,779C620.912,789.578 619.552,800.886 618,812C615.406,822.071 612.524,831.859 610,842C602.458,861.686 607.952,832.484 606,832C601.469,841.662 606.357,855.153 605,866C600.575,876.622 601.909,894.318 610,877C610.267,865.09 613.234,854.1 616,846C618.472,835.806 621.78,826.445 624,816C626.086,805.909 628.159,794.025 631,786C633.998,776.333 635.636,765.302 635,752C633.622,744.67 635.751,730.493 635,718C637.535,707.87 633.973,691.638 638,683C637.34,669.027 629.078,687.869 633,697C632.104,713.327 632.948,716.733 621,717C611.739,720.405 603.766,725.1 594,728C583.713,728.438 569.472,732.486 575,743C577.5,752.678 583.133,761.001 585,770C588.577,779.088 590.258,790.077 592,801C592.179,813.486 593.777,824.557 593,838C593.466,860.551 587.595,831.546 586,827C582.983,821.057 577.39,819.004 574,808C570.182,802.159 562.207,781.557 566,804C568.633,813.544 573.563,822.571 577,830C583.066,836.599 583.108,849.227 587,858C591.349,865.828 589.897,881.237 595,887ZM427,886C433.778,877.098 419.193,860.022 426,865C434.898,875.401 454.011,866.441 436,861C426.935,840.015 426.154,866.473 423,858C417.648,869.35 425.913,875.728 427,886ZM168,885C175.307,884.071 174.021,880.556 168,879C160.231,874.534 164.69,883.797 168,885ZM481,882C492.166,882.368 488.554,876.539 492,876C494.856,869.636 469.896,873.646 481,882ZM111,880C105.626,859.112 93.3844,892.526 97,875C60.9495,872.675 111.063,865.166 111,880ZM579,878C577.976,859.444 568.589,844.387 559,832C548.369,819.967 541.409,804.255 527,796C516.436,783.899 509.924,767.741 504,751C489.946,721.883 498.105,771.825 503,779C516.017,785.573 501.848,831.374 512,816C513.056,811.656 514.912,805.83 515,802C511.964,774.723 519.487,805.479 528,804C541.309,813.355 546.903,830.433 559,841C560.305,854.662 570.977,860.032 579,878ZM517,871C519.896,878.245 509.84,876.809 505,875C499.35,868.038 514.763,866.985 517,871ZM655,867C665.49,860.825 660.661,839.326 665,827C657.718,836.383 658.368,853.703 655,867ZM108,862C112.158,859.07 108.171,850.649 101,857C88.4732,861.638 107.042,856.803 108,862ZM794,862C792.167,856.516 794.897,845.867 792,840C790.143,849.22 789.953,855.202 794,862ZM512,852C521.568,848.983 509.193,839.519 509,836C505.337,832.385 505.761,855.201 512,852ZM424,851C434.601,852.822 438.181,845.579 438,838C435.059,843.838 426.787,846.389 424,851ZM451,851C441.52,845.531 447.007,849.761 451,844C441.742,833.616 437.315,855.606 451,851ZM808,851C814.751,843.086 821.982,835.647 826,825C832.556,816.972 834.009,800.57 822,797C827.156,806.029 825.277,828.83 815,822C818.124,831.751 802.375,838.226 808,851ZM65,849C66.7038,851.001 84.444,838.063 78,839C64.7529,840.53 55.8171,839.374 65,849ZM47,847C47.7405,850.191 33.3539,844.363 39,842C43.9092,843.603 50.2225,841.578 47,847ZM781,845C786.379,833.458 782.679,811.354 784,797C779.666,772.457 794.24,777.433 789,789C791.315,774.394 803.859,768.534 808,757C809.345,747.074 807.318,713.345 815,739C829.402,748.843 813.744,760.945 811,772C807.123,782.703 829.843,763.03 830,756C839.295,743.634 830.412,727.42 837,718C840.53,714.771 848.436,693.302 840,685C834.178,696.099 829.278,709.603 822,718C828.47,710.956 829.451,673.414 824,703C827.252,716.145 802.089,709.679 801,725C790.282,730.286 808.241,754.156 797,760C789.514,772.015 779.38,785.932 784,764C786.016,748.009 781.345,721.899 781,754C778.215,769.5 781.103,782.226 781,797C779.369,814.089 783.797,829.602 781,845ZM427,843C433.008,843.303 433.897,836.266 428,836C421.798,839.348 426.31,840.561 427,843ZM666,843C670.195,837.329 674.905,827.91 673,823C670.974,823.604 665.153,835.472 666,843ZM802,831C810.628,840.93 803.164,821.348 799,817C786.642,805.852 802.816,825.843 802,831ZM544,830C544.255,824.61 533.648,811.413 527,805C526.983,810.152 537.615,823.325 544,830ZM707,825C717.834,826.903 716.392,809.099 708,811C697.247,811.98 699.555,823.937 707,825ZM916,820C928.675,817.344 938.611,811.943 949,807C958.739,801.848 970.87,797.49 981,794C987.197,790.014 1015.34,787.223 1004,782C978.947,780.056 993.601,773.629 1010,777C1024.33,777.562 1037.67,780.708 1049,783C1061.89,785 1076.04,787.341 1089,788C1101.5,790.394 1115.84,792.545 1128,794C1140.58,796.314 1155.69,797.686 1167,800C1180.39,801.946 1192.58,805.093 1206,807C1234.78,810.688 1214.18,803.53 1201,803C1189.06,800.05 1173.77,798.847 1163,796C1150.8,793.314 1134.95,792.673 1124,790C1111.43,787.683 1097.54,785.084 1086,783C1072.53,781.578 1057.73,779.886 1046,778C1023.05,773.252 1034.15,769.016 1051,774C1062.92,776.966 1078.06,778.324 1090,780C1103.34,781.988 1115.59,785.083 1129,787C1141.73,789.158 1158.43,788.95 1168,793C1180.88,795.012 1196.13,796.254 1208,798C1219.03,801.863 1236.17,801.207 1247,804C1256.33,804.708 1288.45,808.54 1270,802C1257.47,799.635 1242.57,798.046 1230,797C1216.17,795.94 1204.22,791.396 1192,790C1177.79,789.318 1164.61,786.014 1152,785C1139.22,782.89 1124.59,781.027 1112,780C1100.16,776.954 1086.22,774.4 1074,773C1060.36,771.754 1047,768.616 1035,767C1020.55,763.316 1007.81,770.411 997,772C986.612,776.173 971.722,779.827 960,776C940.812,773.366 976.83,769.308 981,768C991.748,763.858 1006.43,762.052 1017,759C1030.81,760.085 1044.88,762.502 1057,764C1071.72,764.607 1084.24,767.428 1097,770C1110.21,771.68 1124.87,773.511 1136,776C1150.12,776.772 1163.2,780.179 1176,781C1187.85,784.043 1204.73,783.653 1215,787C1227.36,789.526 1241.84,791.542 1254,793C1263.37,794.472 1296.72,797.236 1272,792C1258.31,790.8 1245.43,787.194 1232,787C1217.55,786.558 1206.91,780.714 1193,781C1180.9,777.766 1166.1,777.233 1154,774C1140.88,772.231 1126.81,769.813 1115,768C1101.05,767.059 1087.47,764.147 1077,761C1065.92,754.359 1094.59,751.843 1097,746C1106.09,740.494 1123.88,740.181 1123,729C1134.88,726.78 1146.69,715.717 1151,722C1163.1,719.208 1172.46,712.08 1184,710C1194.33,705.443 1207.09,701.714 1216,697C1226.03,691.701 1237.74,688.075 1248,683C1257.56,677.665 1271.92,675.54 1280,670C1275.31,670.014 1257.17,671.458 1248,675C1236.51,678.398 1224.64,683.02 1214,686C1201.62,688.515 1190.71,694.094 1180,697C1168.27,700.164 1159.38,707.758 1149,711C1140.03,716.923 1126.71,720.094 1118,725C1108.07,729.96 1093.76,732.145 1084,736C1074.68,741.571 1064.76,748.141 1054,751C1044.93,758.225 1028.2,755.266 1015,755C1002.84,757.73 989.247,760.627 978,763C969.857,767.641 946.11,766.034 952,778C964.129,782.171 975.025,785.045 988,785C981.139,789.605 959.159,786.421 952,792C941.73,796.62 928.178,799.559 919,804C913.73,807.489 935.618,809.288 916,820ZM1197,817C1219.64,818.063 1200.68,812.524 1190,814C1169.5,810.793 1187.95,816.844 1197,817ZM77,815C82.5563,814.983 102.684,809.847 88,808C78.0578,807.03 59.845,811.305 77,815ZM686,804C687.65,788.349 676.203,771.559 683,759C670.81,772.911 677.748,792.211 686,804ZM1113,802C1105.66,796.442 1081.46,797.341 1068,793C1050.38,791.292 1034.54,787.79 1017,786C1025.08,790.817 1046.25,792.955 1062,795C1078.07,798.257 1094.89,800.777 1113,802ZM548,800C552.757,795.425 558.162,791.494 558,782C553.191,786.523 551.066,793.733 548,800ZM543,796C552.65,792.116 556.357,780.602 559,771C561.664,761.561 565.646,748.787 563,737C558.055,741.858 560.855,762.242 556,769C552.028,778.36 550.122,789.79 543,796ZM534,794C555.092,790.695 536.92,771.843 534,763C528.69,750.979 522.825,739.507 514,731C500.268,720.05 517.087,752.68 520,756C529.048,764.284 529.949,780.719 534,794ZM699,792C699.802,783.883 702.348,773.536 700,765C699.581,774.024 697.633,784.26 699,792ZM720,789C725.164,778.51 718.898,769.491 722,759C720.654,746.657 723.987,735.337 723,726C721.485,732.835 719.91,745.913 720,757C717.746,768.467 720.075,779.417 720,789ZM762,785C770.36,781.361 770.429,769.428 772,759C767.632,766.631 767.233,778.234 762,785ZM408,781C412.63,786.956 399.206,777.974 395,778C391.711,770.703 405.245,779.576 408,781ZM423,781C430.406,775.074 433.723,765.055 439,757C447.731,745.657 445.498,743.424 446,735C451.706,717.919 457.648,729.456 452,743C449.524,753.38 445.69,764.133 442,772C442.095,779.792 421.252,790.488 421,775C418.725,764.419 414.793,753.763 414,743C409.171,729.03 420.755,723.859 423,714C429.737,703.527 443.548,705.215 430,714C428.604,718.997 412.393,736.428 421,731C429.635,726.779 433.325,715.881 440,711C449.073,718.723 433.56,725.877 431,734C428.235,741.911 417.412,751.598 420,758C425.451,750.119 431.134,742.466 436,734C438.429,727.764 453.323,711.269 447,726C441.647,733.979 435.971,741.639 432,751C427.866,759.722 425.335,771.779 423,781ZM602,780C605.024,768.749 603.739,746.967 604,738C596.664,746.212 601.001,769.123 602,780ZM416,779C417.473,792.951 411.161,801.777 414,781C412.205,781.991 408.179,764.645 407,756C401.478,744.459 406.409,728.521 409,750C415.395,757.825 410.969,771.724 416,779ZM745,776C752.833,768.942 764.038,763.658 767,753C760.823,761.713 746.003,763.383 745,776ZM700,763C705.33,750.632 700.673,738.69 704,727C707.126,713.905 705.23,700.508 707,688C701.431,675.042 708.375,664.649 707,652C706.912,623.236 703.295,647.069 701,657C700.979,664.445 700.651,674.567 701,685C699.447,698.112 698.608,711.943 697,725C695.31,730.444 694.666,728.128 695,724C692.849,722.373 693.103,741.858 694,748C702.197,734.322 695.548,753.397 700,763ZM791,760C792.934,753.834 798.518,749.219 798,742C792.62,744.719 791.035,753.334 791,760ZM786,738C791.367,721.373 782.832,703.362 786,690C785.423,680.976 787.302,643.897 785,646C784.403,664.068 782.742,681.078 781,698C783.977,718.098 782.328,726.088 786,738ZM768,717C773.026,710.027 772.987,697.986 779,692C776.356,683.558 782.82,660.081 778,667C768.112,670.557 774.641,686.906 772,693C764.88,695.259 759.971,711.073 768,717ZM907,716C908.975,729.291 908.005,751.589 904,727C900.543,715.191 897.305,697.102 907,716ZM723,715C724.113,695.815 742.906,692.99 740,671C742.913,653.915 741.626,632.624 746,617C736.654,627.952 739.309,652.225 735,667C733.786,685.784 724.095,696.097 723,715ZM1339,710C1350.74,705.285 1322.64,705.667 1317,704C1307.72,701.106 1291.93,702.937 1283,701C1271.78,705.195 1298.64,706.055 1305,707C1317.29,706.89 1329.34,708.799 1339,710ZM1335,701C1357.41,699.595 1332.04,690.901 1324,695C1303.06,698.526 1328.35,700.783 1335,701ZM1279,700C1287.7,695.367 1301.01,695.337 1311,692C1318.61,686.425 1340.61,693.645 1343,688C1332.68,685.077 1317.19,685.285 1308,689C1297.65,691.984 1282.51,690.182 1279,700ZM458,695C462.979,684.647 463.717,670.049 469,660C472.353,648.021 471.225,631.557 477,622C466.367,626.699 471.151,646.819 464,655C461.323,667.654 455.65,677.318 458,695ZM0,678C9.47641,678.697 18.1404,676.538 22,673C15.4206,675.2 0.257262,670.859 0,678ZM17,671C35.0528,671.888 9.13798,665.119 7,664C-11.4913,663.55 13.2887,671.454 17,671ZM1184,668C1197.37,667.372 1213.57,669.567 1224,666C1238.34,661.486 1229.98,656.527 1234,651C1240.51,644.741 1254.56,648.297 1264,648C1267.34,642.305 1241.84,644.32 1233,644C1217.91,642.904 1207.6,646.598 1195,648C1183.1,649.634 1171.33,653.082 1163,657C1156,657.923 1132.16,667.386 1146,667C1160.37,666.924 1171.6,666.181 1184,668ZM637,664C642.131,658.755 605.637,659.198 601,651C586.327,623.103 603.796,655.005 618,653C632.769,660.955 655.081,656.03 661,645C665.398,642.628 658.202,650.525 660,653C665.916,669.951 636.948,667.159 637,664ZM624,663C600.459,672.008 585.357,653.161 590,636C595.384,627.949 589.667,639.317 593,643C594.37,658.551 611.071,660.254 624,663ZM593,661C588.774,662.069 582.687,651.871 582,644C587.757,640.939 588.381,657.17 593,661ZM581,660C582.945,663.297 568.923,659.242 573,653C574.515,646.409 578.825,659.628 581,660ZM814,656C803.513,665.53 791.198,644.207 791,640C794.818,632.909 812.954,650.904 814,656ZM716,654C716.701,648.504 723.203,636.14 717,634C714.008,635.212 716.767,649.863 716,654ZM437,653C445.979,649.802 449.311,639.177 454,633C455.199,625.443 468.278,615.131 465,613C457.124,619.57 445.853,619.354 451,630C447.723,638.9 440.513,645.646 437,653ZM632,647C646.434,648.364 657.51,643.002 665,640C661.641,645.989 648.26,651.093 638,652C625.226,650.776 618.449,643.55 607,641C596.411,621.327 600.659,638.659 603,642C588.86,633.884 604.216,620.346 615,630C622.373,630.615 638.627,645.347 633,643C624.86,639.299 612.435,631.886 605,633C609.265,642.269 626.506,640.249 632,647ZM751,640C761.682,638.615 758.719,617.831 757,613C746.183,608.518 751.413,633.197 751,640ZM919,640C923.816,637.748 913.585,636.286 915,633C912.58,632.492 914.61,622.152 915,626C915.205,644.466 919.945,619.024 919,616C920.451,609.978 913.749,608.388 916,606C896.911,597.983 928.582,606.683 933,601C914.913,601.943 890.715,591.809 897,617C880.263,638.745 911.702,627.178 919,640ZM0,639C12.0922,638.236 24.817,636.373 35,635C46.8885,634.223 58.93,633.595 70,632C80.5031,629.647 96.1997,630.756 105,628C115.718,626.052 127.377,625.042 139,624C150.111,622.255 162.984,620.54 173,619C184.527,617.862 195.555,616.22 207,615C218.907,614.242 229.747,612.412 241,611C252.192,609.527 261.379,606.045 271,603C258.027,602.883 246.001,605.445 235,606C222.033,605.698 211.109,607.444 200,609C185.305,607.161 175.824,612.268 164,612C153.501,614.167 140.864,614.198 130,616C118.333,617.189 104.857,618.301 95,620C82.9804,620.646 72.0938,622.428 61,624C49.5812,625.247 37.2767,625.611 27,628C18.0447,631.71 -3.47712,622.857 0,639ZM572,630C581.759,626.577 576.73,611.241 575,601C572.182,599.192 573.15,625.089 572,630ZM579,628C585.902,613.527 600.718,616.696 584,599C583.055,583.755 589.503,567.37 587,549C575.359,568.329 585.976,561.662 580,580C572.527,595.085 580.98,614.431 579,628ZM607,622C591.481,640.858 597.385,584.25 600,595C598.91,597.217 600.115,604.748 601,608C621.181,627.141 591.477,612.367 607,622ZM770,620C771.181,622.938 769.971,647.784 768,637C764.562,633.186 766.88,612.547 770,620ZM1338,618C1353.71,613.891 1322.03,613.513 1319,612C1307.64,611.764 1333.87,617.588 1338,618ZM1312,608C1321.05,603.713 1337.85,607.185 1344,600C1331.97,601.301 1318.32,600.99 1312,608ZM678,606C679.402,612.047 669.61,613.615 672,605C670.015,595.319 677.552,601.659 678,606ZM1084,602C1110.22,602.854 1119.22,595.841 1088,599C1082.53,599.806 1080.47,597.194 1075,598C1046.19,598.089 1074.74,602.627 1084,602ZM885,599C899.074,596.435 890.082,583.672 886,569C881.934,555.469 877.662,540.696 875,527C870.648,505.735 871.701,551.776 875,556C874.803,573.794 886.56,581.082 885,599ZM916,599C931.409,600.421 941.136,594.153 919,596C906.114,589.764 900.23,596.275 916,599ZM0,594C12.1861,592.854 24.1131,591.445 36,590C47.4124,589.032 62.3253,588.106 70,586C58.0432,583.823 43.9859,585.605 32,586C22.5803,589.912 3.86877,584.537 0,594ZM914,594C953.879,592.821 907.408,592.921 908,586C911.323,587.343 914.149,589.184 919,589C947.346,587.748 911.882,587.079 908,585C897.119,570.895 907.424,580.603 929,579C915.442,579.626 903.035,574.614 903,558C897.135,545.866 889.234,535.764 884,523C878.372,502.291 868.933,501.336 879,523C881.139,538.458 888.792,549.85 890,565C895.133,577.464 898.623,593.019 914,594ZM1058,594C1071.01,592.116 1086.31,590.926 1096,587C1083.19,589.079 1065.14,587.519 1058,594ZM371,591C390.16,590.537 409.345,588.749 424,585C405.186,585.809 386.714,588.311 371,591ZM619,591C617.829,594.408 610.678,573.622 606,584C609.151,570.963 620.612,580.146 619,591ZM911,584C916.995,584.699 941.712,583.843 926,582C917.441,583.865 899.941,577.504 911,584ZM782,580C773.935,579.581 768.16,565.407 761,559C774.16,563.552 776.408,566.198 782,580ZM628,578C624.46,574.596 622.042,591.871 620,584C613.543,576.84 622.933,572.836 628,578ZM446,577C448.065,560.418 442.987,569.897 459,573C457.255,565.494 435.599,560.46 446,577ZM732,577C738.795,578.541 739.91,569.792 735,568C733.858,563.331 729.297,574.859 732,577ZM1289,573C1308.5,570.853 1335.47,574.913 1344,563C1326.06,559.611 1314.96,549.37 1290,553C1271.38,550.294 1246.8,553.528 1228,551C1206.11,551.563 1186.01,550.317 1166,549C1143.61,550.056 1125.08,547.255 1103,548C1097.67,548 1092.33,548 1087,548C1064.24,556.613 1073.76,516.565 1067,546C1050.83,552.23 1029.93,550.936 1009,550C986.322,551.346 971.219,545.113 949,546C910.792,549.368 971.948,550.257 978,552C996.494,554.837 1018.64,554.028 1039,555C1058.87,551.786 1074.92,550.225 1098,552C1119.32,552.011 1138.79,553.876 1161,553C1181.6,553.732 1200.78,555.885 1223,555C1243.09,556.244 1265.04,555.632 1285,557C1309.72,553.608 1322.05,562.621 1342,564C1328.24,568.437 1305.36,568.744 1289,573ZM627,566C626.494,562.325 637.091,558.316 631,558C624.717,555.656 620.951,565.011 627,566ZM1100,566C1110.74,566.248 1126.58,566.107 1131,564C1122.79,563.066 1106.7,563.736 1100,566ZM170,561C182.127,559.795 196.051,560.383 206,557C194.55,558.882 179.353,557.021 170,561ZM685,557C685.742,570.873 673.689,572.937 675,553C671.629,539.65 679.192,544.582 685,557ZM511,553C513.704,539.656 498.968,520.829 503,516C515.716,540.966 510.173,514.619 503,504C498.404,475.74 486.273,499.845 495,515C497.918,530.08 505.115,540.887 511,553ZM545,533C551.657,514.739 537.664,499.268 535,484C544.468,478.149 555.008,450.583 545,442C550.205,464.987 532.516,488.161 527,463C524.24,455.924 525.751,459.324 531,461C536.847,458.231 508.27,449.057 533,443C540.292,423.751 562.854,446.395 571,452C582.801,457.502 587.502,485.57 604,475C608.793,460.61 623.457,444.045 617,429C640.225,439.899 633.111,381.297 637,415C635.67,419.954 633.48,424.069 634,427C617.058,433.77 615.826,431.186 630,445C625.677,484.326 636.836,418.984 640,447C635.385,452.872 642.118,454.851 643,455C674.458,457.327 644.017,456.561 643,443C642.017,436.684 647.013,436.346 649,433C670.063,417.267 643.68,438.203 652,446C658.86,460.977 687.322,455.589 692,455C707.704,449.359 688.748,421.246 682,447C667.839,455.282 639.283,443.165 660,429C668.839,416.508 669.615,395.946 673,378C668.224,361.13 667.085,339.358 658,328C652.768,316.846 647.675,287.462 644,288C648.778,288.621 652.522,292.56 653,296C663.63,296.858 642.399,281.194 636,279C626.272,267.397 612.139,260.192 596,255C579.552,245.581 556.502,255.423 547,263C534.505,271.836 524.158,282.827 518,298C510.674,312.32 505.005,329.562 501,346C495.299,361.63 493.089,380.758 487,396C482.139,412.785 471.097,424.653 469,443C466.001,461.333 457.071,473.739 455,493C453.944,497.344 452.088,503.17 452,507C446.15,527.74 451.582,533.18 455,510C458.009,491.678 462.794,475.125 478,469C487.707,465.2 514.531,443.579 519,465C530.699,491.307 500.8,464.007 485,469C497.005,471.338 514.256,480.251 525,489C535.78,499.551 542.778,513.891 545,533ZM571,532C577.434,530.221 570.912,520.278 571,516C568.127,514.218 571.775,527.035 571,532ZM746,525C754.822,519.61 765.037,513.97 769,505C762.113,512.325 749.303,515.37 746,525ZM620,523C615.378,540.473 613.256,488.741 615,481C622.397,463.081 613.832,511.171 620,523ZM816,516C828.545,507.573 839.605,496.369 847,484C836.009,493.981 827.011,507.247 816,516ZM722,515C737.315,503.186 725.343,484.772 728,467C726.146,455.474 720.684,417.863 713,437C701.642,449.989 703.015,464.696 712,480C717.136,488.99 726.89,511.012 722,515ZM801,510C811.287,501.622 821.383,493.048 829,482C818.073,489.738 809.295,499.63 801,510ZM879,504C885.535,504.606 893.591,498.588 889,494C884.966,491.06 884.457,502.367 879,504ZM773,502C777.516,484.87 787.287,471.731 797,461C806.008,459.028 820.737,420.243 819,438C810.349,445.943 838.983,485.554 825,457C826.917,464.355 870.401,444.703 841,449C827.414,485.016 817.407,420.578 827,446C828.774,449.482 834.395,452.437 834,445C820.032,425.287 844.358,450.053 853,442C854.509,434.484 869.178,419.345 877,439C887.885,445.155 906.248,472.27 897,441C913.232,454.064 933.413,435.624 947,442C957.911,422.605 973.73,430.859 980,439C988.263,450.316 1025.12,429.274 999,435C980.517,449.359 981.7,403.035 962,424C952.728,439.813 931.472,432.586 920,441C907.043,433.745 881.231,442.189 877,424C853.591,402.725 849.869,445.854 840,436C823.295,431.374 811.793,421.539 806,406C781.701,399.044 803.214,380.221 800,363C807.439,346.778 811.574,323.242 794,318C793.933,299.53 790.555,278.185 781,268C770.938,256.731 759.229,247.103 741,244C720.438,241.26 704.655,251.319 692,258C679.176,266.507 669.283,277.952 663,293C656.122,314.115 667.021,331.46 671,346C678.291,360.04 673.994,385.675 683,398C693.818,408.828 704.379,421.177 720,426C734.113,434.034 760.85,432.852 769,421C778.951,414.381 797.101,386.114 792,415C789.334,417.666 786.666,420.334 784,423C772.469,426.529 789.009,405.455 770,425C771.769,439.924 714.359,431.092 738,438C756.501,435.17 783.432,440.763 790,426C818.055,416.392 780.658,441.77 790,459C785.308,473.655 770.536,485.559 773,502ZM575,500C563.232,479.307 608.46,493.938 598,488C580.455,493.377 565.484,475.699 586,480C577.526,479.457 572.388,448.817 570,461C575.848,471.386 572.036,485.614 575,500ZM860,499C865.425,492.248 872.193,485.059 875,477C869.168,483.345 863.028,491.162 860,499ZM694,498C720.849,501.599 709.16,480.479 704,471C694.807,455.507 713.384,505.14 694,498ZM689,495C696.36,492.056 694.542,476.174 695,469C691.976,479.144 690.687,484.977 689,495ZM760,494C769.838,491.822 764.892,483.949 766,474C761.617,470.861 762.226,498.727 760,494ZM541,489C554.841,488.963 548.073,462.34 562,475C571.967,494.248 565.553,467.361 557,466C558.044,446.004 551.395,438.163 553,463C552.283,473.972 542.445,484.803 541,489ZM453,487C449.294,473.388 459.454,466.792 452,470C442.925,455.479 445.592,469.887 428,468C414.604,467.936 400.957,467.625 389,469C375.668,469 362.332,469 349,469C334.659,467.991 323.861,470.529 310,470C296.406,470.004 284.873,472.275 274,468C258.038,462.178 261.393,458.817 279,463C288.507,471.675 297.458,465.01 308,463C318.558,466.22 329.521,461.799 339,464C350.737,466.006 364.044,463.852 376,463C384.125,459.278 395.945,462.519 405,460C417.672,463.417 427.171,456.203 438,456C451.971,445.717 446.404,474.069 452,462C449.335,441.687 465.984,455.638 458,440C472.411,426.907 457.159,433.006 452,442C448.046,450.902 434.181,451.625 424,453C412.417,455.816 399.597,453.758 390,455C381.75,455.891 370.276,461.172 357,460C344.312,460.552 334.917,455.102 325,458C311.638,456.266 297.609,460.243 290,460C278.73,456.548 266.739,456.92 256,460C246.804,453.901 230.493,462.477 225,453C222.502,462.935 207.558,465.117 198,462C192.541,454.651 172.451,454.876 173,466C162.169,459.719 151.831,466.397 142,461C132.38,461.782 121.325,474.218 114,463C106.932,449.828 104.406,470.37 89,466C75.0552,467.239 68.6719,457.592 57,463C51.5932,466.253 72.4353,470.59 82,470C92.5896,475.901 106.758,467.4 115,471C122.458,475.716 94.3125,473.412 86,474C72.9242,474.22 58.429,474.127 49,472C46.8484,460.82 46.5659,447.766 47,434C50.6897,418.46 43.3428,417.608 45,400C45.5295,386.138 42.9909,375.341 44,361C43.6491,348.019 42.3041,336.028 43,322C43.9816,307.686 41.1808,297.151 42,283C39.0005,266.669 43.6277,257.96 61,262C85.9518,259.189 59.5404,258.204 48,259C39.8859,254.258 39.1456,240.411 37,231C32.0127,213.86 34.1299,247.064 38,250C39.8629,261.856 37.0835,274.518 38,286C38.5136,298.818 36.9298,313.738 39,325C39,337.856 39,352.444 39,364C39.4176,377.781 40.0909,389.881 39,400C40.4008,411.931 42.5263,423.142 43,436C39.609,447.58 45.3707,461.076 42,473C34.5895,478.849 37.3513,453.075 33,449C28.9916,438.865 22.9605,423.532 28,446C26.328,457.66 17.035,461.703 11,469C-15.886,469.618 15.2685,479.421 20,470C29.8876,477.258 -1.01512,472.786 0,481C13.4615,481.129 24.7598,479.092 39,480C52.3959,480.064 66.0432,480.375 78,479C91.332,479 104.668,479 118,479C130.985,479.129 143.536,477.092 156,478C167.262,475.93 182.181,477.513 195,477C206.531,475.199 220.93,476.262 234,476C247.332,476 260.668,476 274,476C286.592,475.477 296.652,475.025 310,475C322.718,474.386 337.763,476.095 349,474C362.332,474 375.668,474 389,474C402.461,474.129 413.76,472.092 428,473C442.771,471.085 455.766,472.678 453,487ZM868,473C866.295,463.957 853.975,458.054 840,460C849.233,461.515 861.98,466.991 868,473ZM142,471C163.611,469.845 179.116,470.297 203,470C221.069,465.458 241.527,456.982 254,470C232.212,471.543 208.281,470.95 185,471C172.422,472.423 118.912,473.91 142,471ZM782,467C788.619,463.481 784.593,447.382 787,441C782.621,446.76 783.702,459.914 782,467ZM655,466C669.091,466.293 659.019,459.232 651,460C638.403,458.214 648.762,464.987 655,466ZM819,466C817.14,464.429 817.661,451.188 814,450C811.033,456.376 816.928,462.98 819,466ZM903,465C923.611,464.944 940.424,463.201 964,464C984.172,462.841 1004.99,462.321 1026,462C1047.61,462.281 1066.68,460.014 1089,461C1108.63,459.663 1131.14,459.9 1151,460C1170.99,458.663 1192.57,458.9 1214,459C1231.57,458.514 1253.55,457.634 1275,458C1295.32,456.991 1316.35,456.677 1338,457C1361.03,439.195 1315.72,434.388 1326,446C1322.84,455.329 1295.58,451.81 1277,453C1256.25,451.502 1231.21,456.602 1222,452C1202.57,457.909 1187.78,449.357 1174,454C1155.09,456.062 1131.27,454.508 1112,455C1092.55,456.884 1070.01,455.675 1049,456C1025.61,456.479 1016.3,454.992 995,458C974.498,459.032 958.159,457.946 940,459C926.492,459.443 880.116,455.609 903,465ZM589,457C597.831,451.872 596.162,446.734 602,438C592.103,422.337 591.677,450.775 589,457ZM1016,454C1022.62,447.199 1036.98,458.383 1033,450C1029.96,440.979 1014.84,445.981 1016,454ZM296,452C304.52,451.602 318.971,453.16 322,450C315.506,449.879 302.276,448.832 296,452ZM478,443C487.91,435.313 491.667,420.025 501,413C504.961,411.053 490.923,432.078 487,439C480.559,440.612 463.901,472.761 471,454C472.612,443.933 485.055,414.041 478,443ZM805,443C806.124,427.999 818.817,423.113 810,439C805.453,447.987 797.837,455.592 792,462C789.982,461.802 801.596,446.528 800,437C806.603,413.004 803.556,434.415 805,443ZM1149,441C1168.31,443.792 1168.52,425.912 1187,434C1199.89,439.24 1204.83,421.432 1221,424C1234.85,421.079 1250.79,422.163 1265,424C1281.45,418.355 1287.5,431.062 1296,425C1293.39,434.943 1301.66,429.22 1314,431C1329.67,433.845 1333.86,408.827 1337,420C1333.96,406.505 1317.67,427.64 1315,426C1303.56,422.148 1291.83,415.068 1279,418C1267.36,421.723 1249.28,415.297 1234,418C1220.4,416.139 1206.77,421.96 1196,426C1185,433.342 1167.39,418.808 1162,434C1146.52,443.679 1136.81,422.542 1133,431C1117.45,439.242 1107.98,423.848 1094,428C1092.66,416.423 1074.01,416.347 1089,423C1086.43,441.785 1105.61,425.247 1114,438C1133.82,443.159 1135.43,430.922 1149,441ZM672,440C673.162,432.453 670.128,420.607 669,414C666.893,422.491 669.333,434.932 672,440ZM1019,440C1032.49,438.921 1021.63,416.777 1035,431C1039.91,436.513 1057.11,445.148 1058,431C1058.74,430.151 1072.91,435.651 1079,437C1088.86,429.201 1086.32,420.162 1078,434C1072.58,426.563 1058.73,425.826 1061,412C1053.67,409.786 1056.59,433.215 1047,433C1048.46,425.037 1029.84,426.321 1029,416C1024.36,416.215 1017.62,428.152 1019,440ZM54,437C55.7236,430.648 60.8636,419.348 55,414C47.2799,415.891 57.6206,427.267 54,437ZM560,437C560.71,433.596 559.872,422.26 557,421C553.548,427.313 558.419,434.066 560,437ZM26,431C27.2765,426.478 33.6281,417.331 26,415C18.2717,415.82 30.6853,421.293 26,431ZM840,431C851.467,436.423 836.977,410.38 827,416C822.792,433.53 833.693,417.604 840,431ZM610,424C611.607,445.414 605.221,467.229 596,472C586.216,458.79 575.155,445.645 560,439C543.866,433.362 559.492,391.392 564,403C573.071,415.823 590.531,425.897 610,424ZM691,417C693.321,412.641 675.987,408.215 673,401C668.563,407.474 683.267,414.53 691,417ZM741,413C745.712,426.427 735.198,422.109 733,416C724.228,411.684 736.449,407.015 741,413ZM706,412C690.532,407.429 707.335,405.034 718,403C739.406,402.761 704.738,405.028 706,412ZM651,407C652.645,412.844 639.072,439.354 642,427C646.211,423.013 648.41,387.618 651,407ZM719,397C733.25,389.919 755.151,390.482 765,379C764.087,390.188 745.287,404.231 735,403C724.379,392.869 691.47,409.131 686,392C687.236,388.638 684.958,389.506 685,383C683.349,358.835 690.111,382.818 693,367C699.685,366.684 689.985,367.965 692,374C689.688,394.362 705.648,364.369 706,364C710.191,361.771 711.734,362.895 717,361C706.51,375.008 715.972,372.257 724,358C731.279,353.454 738.557,390.881 722,392C718.309,394.565 713.103,391.035 709,391C681.896,393.412 705.43,395.159 719,397ZM657,392C660.854,410.033 651.966,429.527 655,400C650.758,382.853 659.65,360.917 657,392ZM501,390C501.026,397.692 480.701,425.099 485,415C490.698,401.367 495.556,386.887 500,372C502.184,354.853 511.712,345.043 518,332C520.628,324.193 516.966,327.145 516,331C510.718,329.516 524.771,296.205 520,318C524.506,337.881 510.596,348.455 507,362C497.335,380.499 501.8,396.473 509,368C511.401,360.928 530.363,326.488 520,353C514.727,365.897 509.009,382.62 501,390ZM697,390C699.735,388.69 704.264,390.393 707,389C734.958,391.315 699.211,383.292 706,384C736.798,377.178 687.231,374.229 697,390ZM689,349C702.429,351.538 729.653,341.008 720,339C716.247,344.172 679.39,343.388 689,349ZM797,345C798.028,363.802 792.919,340.052 795,335C793.584,319.485 804.135,343.29 797,345ZM590,344C607.269,331.375 572.737,331.42 570,340C575.697,334.231 589.284,329.021 589,316C596.122,308.232 601.378,296.997 611,293C626.921,284.302 630.355,303.064 635,310C632.565,317.729 625.831,316.307 616,327C612.338,339.343 620.026,350.96 598,348C589.981,348.123 560.875,355.659 568,349C572.484,346.445 597.87,330.834 590,344ZM737,343C740.029,332.697 748.314,327.646 759,325C780.282,323.872 771.588,329.695 759,332C747.539,329.658 733.187,347.509 751,338C763.861,342.24 776.407,327.94 779,335C788.931,338.601 751.437,339.348 778,342C793.976,340.536 775.811,323.812 776,319C773.367,307.274 755.989,318.484 750,321C741.697,323.297 729.711,332.486 737,343ZM622,341C629.239,329.116 649.945,349.754 641,329C651.581,334.02 640.84,350.172 626,345C610.335,340.757 625.268,322.654 634,324C649.811,326.521 618.186,331.486 622,341ZM786,339C787.467,348.818 768.751,344.753 759,346C747.694,347.899 735.941,345.763 727,347C715.33,347.328 711.042,355.043 701,357C693.908,357.983 680.542,367.451 677,362C678.317,352.949 675.984,342.814 676,333C677.072,326.885 688.068,312.156 682,312C674.046,307.776 684.158,297.441 690,294C701.492,278.867 689.385,299.824 693,306C686.534,309.529 684.64,324.937 683,328C687.096,320.598 693.678,313.853 697,307C694.937,311.177 686.635,335.371 696,322C698.582,313.084 702.727,303.901 708,299C714.399,293.4 722.553,289.552 733,288C745.369,287.129 750.484,295.341 762,294C772.077,295.922 771.494,308.507 780,312C784.074,318.213 787.444,331.599 786,339ZM684,338C694.025,332.13 724.126,341.064 723,334C712.635,332.652 686.155,323.229 684,338ZM641,300C642,301.428 630.243,282.12 623,278C623.015,275.557 641.118,288.519 641,300ZM25,261C45.7192,260.817 21.497,255.541 17,256C-2.44318,258.802 19.6401,259.604 25,261ZM0,2C14.2126,2 30.0669,2 43,2C56.9986,2 71.0014,2 85,2C98.9986,2 113.001,2 127,2C140.999,2 155.001,2 169,2C182.999,2 197.001,2 211,2C224.999,2 239.001,2 253,2C266.999,2 281.001,2 295,2C308.999,2 323.001,2 337,2C350.999,2 365.001,2 379,2C392.999,2 407.001,2 421,2C434.999,2 449.001,2 463,2C476.999,2 491.001,2 505,2C518.999,2 533.001,2 547,2C560.999,2 575.001,2 589,2C602.999,2 617.001,2 631,2C644.999,2 659.001,2 673,2C687.213,2 703.067,2 716,2C729.999,2 744.001,2 758,2C771.999,2 786.001,2 800,2C813.999,2 828.001,2 842,2C855.999,2 870.001,2 884,2C897.999,2 912.001,2 926,2C939.999,2 954.001,2 968,2C981.999,2 996.001,2 1010,2C1024,2 1038,2 1052,2C1066,2 1080,2 1094,2C1108,2 1122,2 1136,2C1150,2 1164,2 1178,2C1192,2 1206,2 1220,2C1234,2 1248,2 1262,2C1276,2 1290,2 1304,2C1317.07,1.07178 1333.51,3.5069 1344,0C1329.79,0 1313.93,0 1301,0C1287,0 1273,0 1259,0C1245,0 1231,0 1217,0C1203,0 1189,0 1175,0C1161,0 1147,0 1133,0C1119,0 1105,0 1091,0C1077,0 1063,0 1049,0C1035,0 1021,0 1007,0C993.001,0 978.999,0 965,0C951.001,0 936.999,0 923,0C909.001,0 894.999,0 881,0C867.001,0 852.999,0 839,0C825.001,0 810.999,0 797,0C783.001,0 768.999,0 755,0C741.001,0 726.999,0 713,0C699.001,0 684.999,0 671,0C656.787,0 640.933,0 628,0C614.001,0 599.999,0 586,0C572.001,0 557.999,0 544,0C530.001,0 515.999,0 502,0C488.001,0 473.999,0 460,0C446.001,0 431.999,0 418,0C404.001,0 389.999,0 376,0C362.001,0 347.999,0 334,0C320.001,0 305.999,0 292,0C278.001,0 263.999,0 250,0C236.001,0 221.999,0 208,0C194.001,0 179.999,0 166,0C152.001,0 137.999,0 124,0C110.001,0 95.9986,0 82,0C68.0014,0 53.9986,0 40,0C26.9296,0.928223 10.4917,-1.5069 0,2Z" fill="#000000"/>
</g>
</svg>
